<?xml version="1.0" encoding="UTF-8"?><svg id="_レイヤー_2" xmlns="http://www.w3.org/2000/svg" viewBox="0 0 581.406 207.001"><defs><style>.cls-1,.cls-2,.cls-3,.cls-4,.cls-5,.cls-6,.cls-7,.cls-8,.cls-9,.cls-10,.cls-11{stroke-miterlimit:10;}.cls-1,.cls-4{stroke:#231815;}.cls-1,.cls-12{fill:#e27d82;}.cls-13,.cls-4{fill:#67b583;}.cls-14,.cls-9{fill:#e47a5d;}.cls-2{stroke:#58bae1;}.cls-2,.cls-6,.cls-15{fill:#58bae1;}.cls-3{stroke:#040000;}.cls-3,.cls-5,.cls-16{fill:#847bac;}.cls-5{stroke:#847bac;}.cls-17{opacity:.75;}.cls-6,.cls-11{stroke:#070606;}.cls-7{stroke-width:.25px;}.cls-7,.cls-10{stroke:#edae22;}.cls-7,.cls-10,.cls-11{fill:#edae22;}.cls-8{fill:none;stroke:#e27d82;}.cls-8,.cls-10{stroke-width:.5px;}.cls-9{stroke:#050101;}</style></defs><g id="_"><g class="cls-17"><path class="cls-7" d="m28.529,120.003c.618-3.215.507-3.386-2.469-3.415-3.6-.036-7.202.015-10.802-.034-3.045-.041-3.646-.657-3.648-3.625-.01-10.139-.011-20.277.001-30.416.003-2.719.663-3.381,3.38-3.389,6.246-.017,12.492-.017,18.738,0,2.683.008,3.391.657,3.401,3.417.038,10.212.005,20.424.02,30.636.003,1.983-.741,3.294-2.872,3.396-1.37.066-1.724.842-1.69,2.035.025.881.015,1.764-.025,2.644-.123,2.679-1.921,3.812-4.345,2.757-4.732-2.061-5.128-1.92-6.622,3.031-.746,2.473-1.784,4.832-1.164,7.669.316,1.445-.937,3.912-1.897,4.208-1.009.215-2.197.254-2.197.254-.861-.195-1.659-1.124-2.07-1.954-.592-1.817-.841-3.603,1.671-5.367.393-.276.463-1.045.633-1.601.814-2.666,1.525-5.368,2.433-8.001,1.385-4.015,3.991-4.991,7.752-3.052.561.289,1.15.525,1.772.807Zm7.717-22.05c0-4.991-.037-9.982.018-14.972.022-2.042-.771-2.885-2.882-2.854-6.018.087-12.039.081-18.057-.01-1.971-.03-2.737.595-2.722,2.645.075,10.054.068,20.109.005,30.163-.013,2.005.777,2.785,2.722,2.77,5.946-.044,11.892.002,17.837-.042,2.549-.019,3.057-.567,3.073-3.169.029-4.844.008-9.688.006-14.531Zm-4.477,21.705l-.073-.005c0-.44.127-.934-.03-1.309-.241-.577-.677-1.073-1.03-1.603-.259.529-.586,1.038-.754,1.595-.123.405-.011.876-.049,1.314-.122,1.394-.886,1.785-2.118,1.243-.736-.324-1.405-.797-2.135-1.136-2.259-1.048-4.239-.543-5.111,1.73-1.202,3.134-2.042,6.41-2.967,9.645-.101.353.263.839.412,1.263.413-.297,1.052-.509,1.201-.905.618-1.643,1.081-3.345,1.614-5.02,1.725-5.424,2.703-5.856,7.76-3.445.132.063.265.127.4.182,1.415.58,2.285.027,2.634-1.368.176-.703.17-1.452.246-2.18Zm-16.74,15.161c-.227,2.697,1.423,3.25,2.456,3.042.693-.139,2.011-1.352,2.011-2.997-.284-1.344-1.83-1.201-2.81-1.341-.504-.072-1.318-.003-1.656,1.295Z"/><path class="cls-7" d="m24.564,82.627c2.637-.002,5.281-.102,7.908.061.747.046,1.448.854,2.17,1.313-.674.621-1.335,1.762-2.025,1.781-5.49.147-10.988.137-16.479.003-.65-.016-1.274-1.073-1.91-1.647.661-.502,1.299-1.397,1.988-1.438,2.774-.166,5.564-.069,8.347-.071Zm7.924,1.825c.016-.139.033-.279.049-.418h-16.161v.418h16.112Z"/><path class="cls-7" d="m24.372,103.798c2.977.015,5.09,2.17,5.055,5.157-.032,2.755-2.313,5.084-5.012,5.118-2.678.034-5.263-2.512-5.267-5.187-.005-2.838,2.321-5.102,5.224-5.088Zm4.047,5.077c.012-2.291-1.713-4.051-4.002-4.083-2.204-.031-4.123,1.773-4.204,3.952-.081,2.187,1.956,4.268,4.171,4.261,2.156-.007,4.023-1.918,4.035-4.131Z"/><path class="cls-7" d="m27.365,108.792c.031,1.822-1.136,3.074-2.912,3.128-1.799.054-3.084-1.117-3.163-2.882-.082-1.832,1.252-3.282,3.033-3.294,1.739-.013,3.012,1.263,3.042,3.048Zm-2.59-2.346c-.307-.001-.613-.003-.92-.004-.511.82-1.444,1.659-1.406,2.453.032.684,1.274,1.92,1.795,1.831.822-.141,1.992-1.129,2.08-1.869.087-.732-.985-1.602-1.549-2.411Z"/></g><g class="cls-17"><path class="cls-15" d="m21.614,6.663c.535-1.215.88-2.146,1.345-3.012.394-.733,1.061-1.17,1.94-1.161.861.008,1.65.596,1.953,1.547.238.748.372,1.53.583,2.427.663.066,1.331.187,2,.19,4.164.018,8.328.009,12.492.011.694,0,1.39-.031,2.082.014,2.357.156,3.655,1.348,3.941,3.648.085.685.051,1.386.051,2.08.003,7.039.011,14.079-.009,21.118-.003.983-.038,1.993-.261,2.943-.38,1.621-1.531,2.499-3.169,2.683-.686.077-1.386.034-2.08.034-11.898.001-23.795.001-35.693,0-.595,0-1.192.027-1.784-.018-2.001-.154-3.299-1.356-3.559-3.336-.09-.684-.051-1.386-.051-2.079-.003-7.238-.002-14.475-.001-21.713,0-.496-.021-.993.015-1.487.181-2.464,1.479-3.724,3.999-3.876.593-.036,1.189-.011,1.784-.011,3.768,0,7.535,0,11.303,0h3.119Zm4.011,2.863c-.88.823-1.292,1.852-1.245,3.04.009.227.263.575.471.635.416.12.752-.142.758-.59.014-1.049-.026-2.099-.044-3.149.479.002.964.052,1.435-.009.379-.049.943.242,1.173-.548-.74-.087-1.398-.23-2.053-.22-.452.007-.61.392-.494.841Zm-.328,7.913c2.704,1.639,3.532,3.062,3.031,4.859-.49,1.759-1.895,2.792-3.75,2.759-1.712-.031-3.044-1.026-3.542-2.647-.578-1.884.281-3.371,2.824-4.874-.664-.531-1.369-.583-2.215-.488-2.316.259-2.702-.099-3.098-2.418-.047-.278-.136-.548-.221-.879-.463-.196-.899-.461-1.369-.56-.575-.122-1.179-.138-1.77-.142-2.28-.015-4.559-.025-6.839-.002-2.745.028-3.052.32-3.065,3.098-.024,5.352-.015,10.704-.006,16.057.006,3.535.08,3.609,3.707,3.612,10.407.007,20.814.003,31.221.002.496,0,.992.013,1.487-.009,1.885-.084,2.385-.47,2.398-2.248.044-6.046.042-12.092.004-18.138-.011-1.769-.584-2.326-2.322-2.36-2.675-.052-5.352.008-8.028-.025-1.592-.02-2.942.557-3.983,1.684-1.179,1.276-2.569,2.144-4.467,2.719Zm5.48-9.232q-.946,2.189-3.473,2.837c-.074.732-.116,1.511-.238,2.278-.161,1.014-.543,1.362-1.551,1.477-.392.045-.796-.015-1.187.034-.33.041-.809-.169-.911.407,1.129.724,1.13.727,1.456.684,1.429-.191,2.637-.788,3.594-1.891,1.382-1.594,3.17-2.338,5.253-2.359,2.676-.028,5.352-.034,8.028-.007,2.645.027,3.819,1.337,3.739,3.898-.009.297.003.595.003.892,0,5.352,0,10.705,0,16.057,0,.496-.016.991-.018,1.487-.007,1.577-.789,2.658-2.234,3.167-.816.288-1.717.469-2.58.471-10.705.031-21.41.019-32.115.019-.198,0-.397.002-.595-.011-2.631-.165-4.085-1.504-4.111-4.084-.062-6.046-.06-12.093,0-18.138.025-2.577,1.062-3.703,3.604-3.721,3.933-.027,7.9-.495,11.925.662.367-.859.731-1.652,1.045-2.465.17-.441.255-.915.426-1.548-.827-.096-1.487-.235-2.148-.239-3.965-.021-7.93-.033-11.894-.004-3.56.025-3.919.391-3.926,3.934-.013,7.236-.004,14.471-.004,21.707,0,.496-.016.993.016,1.486.106,1.666.694,2.325,2.312,2.517.686.081,1.385.06,2.078.061,3.271.005,6.542.002,9.813.002,8.623,0,17.247.021,25.87-.012,2.977-.011,3.486-.569,3.545-3.446.004-.198.001-.396.001-.595,0-7.236.002-14.471-.003-21.707,0-.692.016-1.395-.093-2.074-.157-.975-.777-1.608-1.768-1.743-.782-.107-1.58-.129-2.37-.132-3.073-.014-6.145-.013-9.218,0-.78.003-1.559.068-2.268.101Zm-10.438,7.448c.333-.049.605-.007.697-.116.909-1.076,3.888-8.67,4.378-11.076-.594-.643-1.139-.335-1.378.256-1.322,3.27-2.59,6.562-3.833,9.863-.112.298.083.712.136,1.073Zm2.124,5.737c.007,1.205,1.074,2.323,2.214,2.318,1.149-.005,2.201-1.123,2.195-2.331-.006-1.232-1.032-2.299-2.214-2.301-1.181-.003-2.202,1.073-2.195,2.314Z"/></g><g class="cls-17"><path class="cls-12" d="m98.018,38.166c.194.759.369,1.232.425,1.719.074.646-.209,1.183-.776,1.512-.671.39-1.388.356-1.97-.126-.535-.443-.962-1.016-1.429-1.538-.267-.299-.521-.61-.737-.865-.524-.058-.918-.138-1.312-.139-6.921-.01-13.843.018-20.764-.036-1.32-.01-2.336.313-3.101,1.407-.285.407-.638.778-1.01,1.11-.625.557-1.58.623-2.231.207-.626-.4-.854-1.164-.586-2.112.102-.362.287-.701.419-1.016-.753-.841-1.478-1.539-2.072-2.337-1.389-1.865-2.469-3.885-2.876-6.217-.224-1.283-.457-2.567-.77-3.83-.328-1.323-.498-2.632-1.816-3.61-1.153-.856-.538-2.896.904-3.41.83-.296,1.755-.384,2.645-.438.685-.041,1.382.117,2.033.182.735-.566.52-1.31.524-1.963.025-3.511.006-7.022.021-10.532.011-2.445,1.209-4.197,3.306-5.335,2.981-1.617,6.927-.711,8.834,2.09.632.929,1.161,1.752,2.335,2.15,1.08.366,1.32,1.405,1.018,2.621-2.471,1.073-5.169.95-7.786,1.271-1.146-1.617-.312-2.725.681-3.741-.332-1.27-1.179-1.614-2.296-1.513-1.045.094-1.575.811-1.891,1.7-.165.465-.269.979-.272,1.472-.021,4.205-.012,8.411-.012,12.752.922.34,1.719.736,2.562.925,2.051.461,4.133.785,6.185,1.242,1.967.438,3.64-.095,4.743-1.695.994-1.441,2.135-1.717,3.604-1.097,1.951.823,3.435.427,4.631-1.381.745-1.126,1.867-1.461,3.159-.814,1.105.553,2.086.384,3.058-.389.656-.522,1.438-.608,2.269-.246.637.278,1.332.425,2,.631.81.25,1.375.744,1.739,1.533.749,1.622,1.682,3.077,3.205,4.154,1.42,1.004,1.516,1.997.35,3.251-.654.704-.988,1.46-1.251,2.333-.405,1.342-.817,2.689-1.351,3.982-.965,2.339-2.327,4.429-4.347,6.136Zm-23.14-31.536c-.766.083-1.598-.131-2.643.561,1.227.126,2.085.441,2.596-.615.724.362,1.437.31,2.237.013-.234-.181-.393-.399-.508-.378-.567.105-1.122.274-1.682.42Zm-7.763,31.983q2.137-1.194,5.009-1.196c6.304,0,12.609,0,18.913,0,.996,0,1.992,0,3.184,0,.562.642,1.146,1.322,1.751,1.982.076.083.269.06.475.099-.181-.606-.344-1.151-.54-1.807,4.192-2.453,5.532-6.568,6.632-11.227-3.696-.111-7.174.203-10.641.063-3.497-.141-6.997-.28-10.485-.556-3.486-.276-6.952-.802-10.438-1.071-3.455-.266-6.818-1.352-10.516-1.288.047.759.02,1.34.129,1.894.311,1.569.614,3.144,1.036,4.684.783,2.861,2.066,5.424,4.773,6.97.633.362.69.918.785,1.507-.599.136-1.01.418-.911,1.144.736-.121,1.045-.486.844-1.198Zm15.123-16.408c3.067.776,5.36.805,15.416.219,1.285-.075,2.598-.059,3.997-.863-1.233-.803-1.554-2.025-1.872-3.114-1.085-.33-2.022-.631-2.971-.889-.157-.043-.364.102-.589.173-.211.498-.432,1.021-.695,1.642-1.568-.452-3.058-.883-4.432-1.279-1.053.283-.49,1.767-1.465,1.802-1.247.045-1.512,1.193-2.301,1.753-1.461-.795-2.993-1.272-4.732-1.546-.14.828-.248,1.473-.355,2.102Zm21.662,2.448c-.064-1.193-.723-1.238-1.293-1.22-1.499.047-3,.132-4.493.274-6.186.589-12.362.801-18.547-.081-4.058-.579-8.101-1.19-12.044-2.353-1.341-.395-2.69-.792-4.062-1.04-1.171-.211-2.379-.232-3.572-.292-.634-.032-1.202.18-1.429.849-.142.417.443.904,1.201,1.029.197.032.401.022.597.055,1.971.327,3.932.735,5.913.975,5.655.687,11.305,1.478,16.982,1.907,6.384.482,12.796.403,19.196.107.485-.022.966-.128,1.551-.209Zm-28.945-19.839c-.365-1.436-1.205-2.274-2.31-2.793-1.092-.513-2.264-.776-3.508-.517-2.506.522-4.083,2.165-4.252,4.756-.13,1.997-.046,4.008-.046,6.012,0,1.904.004,3.809.028,5.713.006.522.16.988.992,1.076.064-.754.178-1.506.183-2.259.021-3.207.023-6.415.003-9.623-.006-1.018.093-1.992.583-2.907,1.27-2.37,4.193-2.801,6.036-.862.409.43.683,1.002,1.132,1.373.213.176.69.03,1.159.03Z"/><path class="cls-12" d="m75.966,12.916c.152.074.374.115.431.234.046.097-.107.288-.171.438-.141-.073-.36-.117-.402-.228-.043-.115.087-.293.142-.444Z"/><path class="cls-12" d="m79.913,14.079c.117.112.233.225.35.337-.116.089-.231.178-.347.267-.086-.157-.172-.313-.259-.47.085-.045.17-.089.256-.135Z"/><path class="cls-12" d="m79.524,12.747c-.154.043-.341.158-.451.107-.125-.058-.18-.265-.265-.407.16-.037.345-.139.472-.09.115.044.166.254.245.391Z"/><path class="cls-12" d="m78.262,10.494c.137.095.35.167.389.293.04.131-.087.314-.141.475-.128-.095-.329-.168-.364-.289-.04-.137.071-.317.117-.478Z"/><path class="cls-12" d="m73.504,17.021c.037.067.105.135.103.201-.002.058-.081.114-.126.171l-.169-.315c.064-.019.129-.038.193-.057Z"/><path class="cls-12" d="m76.387,14.801c.105.093.289.191.278.26-.023.148-.145.281-.227.42-.054-.069-.154-.14-.152-.207.005-.151.06-.3.101-.473Z"/><path class="cls-12" d="m73.631,15.558c-.085.044-.169.088-.253.132-.052-.153-.125-.304-.144-.461-.006-.046.14-.11.216-.166.06.165.12.33.18.496Z"/><path class="cls-12" d="m73.656,13.658c-.077.064-.153.128-.229.192-.079-.152-.18-.299-.226-.461-.014-.048.125-.139.193-.21.087.16.175.319.262.479Z"/><path class="cls-12" d="m75.925,11.057c.052.171.126.34.144.514.006.055-.138.125-.214.188-.058-.178-.133-.353-.16-.536-.006-.043.149-.11.23-.166Z"/><path class="cls-12" d="m73.37,11.28c.097.111.266.221.259.317-.009.122-.162.234-.252.35-.067-.06-.198-.134-.189-.178.033-.162.113-.315.182-.489Z"/><path class="cls-12" d="m75.936,9.513c-.07.065-.155.19-.199.176-.158-.047-.302-.14-.452-.216.065-.062.148-.186.193-.174.155.043.297.134.458.213Z"/><path class="cls-12" d="m73.37,9.381c.099.118.271.235.262.336-.011.129-.169.246-.264.367-.063-.068-.188-.148-.179-.203.029-.166.111-.322.18-.5Z"/><path class="cls-12" d="m77.945,9.241c-.056.068-.112.136-.168.204-.077-.189-.159-.376-.22-.57-.005-.017.125-.077.192-.118.066.161.131.323.196.484Z"/></g><g class="cls-17"><path class="cls-14" d="m85.393,108.693c.937-.084,1.797-.16,2.606-.233.567-.974-1.014-2.166.441-2.953.057-.031,0-.354-.064-.518-.89-2.308.174-4.741,2.538-5.369.756.483-.138,1.564.712,2.005.818.424.484,1.168.541,1.906-.491.355-1.02.736-1.726,1.245.494.47.878.836,1.416,1.349-.04.58-.092,1.331-.154,2.217.759.137,1.499.27,2.308.416.985,1.424-.078,3.265.89,4.86,1.472.099,3,.202,4.6.31,1.358,2.994,2.4,6.021,3.44,9.047.113.327-.016.738-.032,1.091-2.299.372-54.199.424-57.241.054-.024-.416-.189-.912-.052-1.301,1.037-2.928,2.133-5.834,3.256-8.867,1.808-.125,3.52-.243,5.415-.373-.146-1.255-.278-2.302-.386-3.353-.07-.679-.142-1.36-.149-2.041-.014-1.24.154-1.415,1.638-1.976.173-.065.335-.158.663-.316.025-.771.01-1.63.091-2.481.179-1.877,1.146-2.877,3.001-2.891,5.753-.044,11.506-.039,17.259,0,1.612.011,2.682,1.03,2.92,2.699.121.85.021,1.732.021,2.654.256.126.502.259.758.372,1.362.601,1.546.848,1.455,2.119-.111,1.55-.245,3.099-.361,4.649-.007.089.06.184.092.276q1.419.476,3.349.19c.838-1.392-.04-3.065.754-4.786Zm15.888,14.021c-.761-2.739-1.787-5.118-2.711-7.53-1.417-.193-2.641-.318-3.943.102-.071.536-.143,1.009-.193,1.485-.093.87-.145,1.745-.27,2.61-.076.526-.439.857-.98.918-.521.059-.987-.102-1.215-.597-.236-.514-.393-1.065-.595-1.63-1.211-.195-2.345-.317-3.458.114-.077.354-.148.633-.196.916-.129.765-.519,1.261-1.346,1.242-.655-.015-1.155-.547-1.252-1.382-.078-.675-.044-1.362-.088-2.042-.036-.555-.115-1.108-.186-1.768h-3.961c-.17.839-.213,1.628-.501,2.314-.332.792-.854,1.511-1.342,2.229-.514.755-1.35.822-1.957.141-.365-.41-.624-.916-.863-1.277h-17.413c-.183.32-.302.578-.465.806-.883,1.236-1.584,1.189-2.427.073-.966-1.28-1.032-2.885-1.691-4.32-1.498-.067-2.935-.301-4.366.211-.774,2.053-1.545,4.05-2.273,6.062-.15.414-.143.885-.208,1.328,2.582.398,51.034.412,53.899-.004Zm-25.34-12.967c.419-.984.701-2.04,1.276-2.901.782-1.172.69-2.396.589-3.648-.052-.643-.502-1.057-1.121-1.188-.471-.099-.967-.115-1.452-.116-5.065-.007-10.13-.014-15.194.009-.662.003-1.324.177-1.856.254-1.204,1.495-.66,2.951-.243,4.318.356,1.166.992,2.246,1.507,3.363,3.466.38,14.193.317,16.494-.091Zm3.211,6.909c.329-2.82.654-5.52.942-8.225.027-.25-.187-.526-.284-.776-1.714.109-1.978.257-2.016,1.412-.058,1.755-.003,3.513-.058,5.268-.017.544-.231,1.081-.342,1.562-2.831.369-17.158.337-19.403-.02-.642-.748-.444-1.659-.466-2.52-.038-1.463.009-2.929-.084-4.387-.027-.421-.319-1.021-.657-1.178-.431-.201-1.033-.035-1.749-.025.394,3.102.759,5.977,1.135,8.944.619.09,1.084.203,1.552.22,5.624.212,18.828.063,21.427-.274Zm-10.597-2.403c2.671.489,5.312.473,7.608-.044v-2.567c-2.616-.251-5.066-.311-7.608.046v2.565Zm-9.441.334c2.341,0,4.357.01,6.372-.009.365-.003.729-.126,1.147-.203.295-1.007.441-1.896-.291-2.894-1.986,0-3.999-.009-6.013.009-.364.003-.728.12-1.175.199-.067.449-.16.812-.164,1.175-.005.462.062.924.124,1.723Zm27.475,1.698c2.12.466,4.118.376,6.123.076.467-1.013.38-1.929.097-3.044-2.112.078-4.175-.232-6.22.135v2.833Zm6.325-6.453c-2.278.022-4.282-.263-6.378.2.042.546.077,1.001.115,1.5,1.109.1,2.21.589,2.594-.979.019-.076,1.098-.112,1.239.112.231.368.128.972.794.958.537-.011,1.072-.105,1.635-.165v-1.627Zm-2.915-2.607c-.058-.056-.116-.113-.175-.17-.06.133-.139.261-.171.4-.011.05.091.125.142.189.067-.138.134-.277.204-.419Z"/><path class="cls-14" d="m69.494,93.288c.226-2.94,2.868-3.652,4.113-6.014.253-.963-.31-2.559.327-4.104q.854.792.958,4.585c.728.767,1.576,1.676,2.442,2.568.757.78,1.424,1.592,1.363,2.796-.313.111-.588.3-.854.287-1.137-.054-2.07.183-2.751,1.232-.341.525-1.24.689-1.544.222-.94-1.448-2.419-1.397-4.054-1.573Zm7.234-1.453c-.097-.624-.686-.817-1.109-1.17-.493-.412-.938-.882-1.401-1.324-.797.625-1.553,1.177-2.255,1.79-.24.21-.343.576-.633,1.089,1.83,0,3.369.008,4.907-.014.138-.002.273-.201.49-.372Z"/></g><g class="cls-17"><path class="cls-13" d="m88.832,198.936c-.068,1.388-.14,2.84-.218,4.417-.543.178-1.014.464-1.485.467-4.824.033-9.648.027-14.472.006-.397-.002-.794-.193-1.342-.336-.087-1.473-.173-2.922-.273-4.617-.295-.309-.708-.766-1.147-1.196-1.46-1.426-2.414-3.136-3.017-5.08-.496-1.597-1.05-3.18-1.655-4.739-.701-1.805-.285-3.335,1.132-4.528,1.029-.866,2.223-1.535,3.495-2.395-.383-.794-.793-1.611-1.176-2.44-2.459-5.332-2.563-10.741-.402-16.174.942-2.368,2.397-4.413,4.391-6.045,4.449-3.641,10.33-3.577,14.674.179,2.197,1.899,3.708,4.272,4.608,7.011,1.713,5.21,1.463,10.317-.972,15.273-.277.564-.572,1.118-.848,1.682-.042.086-.024.201-.039.348.054.786.862.765,1.329,1.121.747.569,1.593,1.032,2.257,1.682,1.226,1.2,1.653,2.62.864,4.287-.401.847-.712,1.742-1.002,2.636q-1.585,4.885-4.704,8.439Zm-5.015-8.033c2.967.337,5.594-.642,7.975-2.26,2.174-1.477,2.151-3.252-.056-4.747-1.107-.75-2.378-1.351-3.66-1.734-5.455-1.63-10.956-1.597-16.404.012-1.377.407-2.736,1.095-3.906,1.93-1.911,1.363-1.853,2.851-.043,4.357.32.266.666.516,1.034.705,2.159,1.104,4.364,2.046,6.88,1.758,2.624.968,5.272.786,7.928.16.093-.022.168-.119.252-.181Zm4.147-10.441c3.258-4.313,4.301-9.541,3.118-14.576-.658-2.803-1.833-5.335-3.823-7.441-4.292-4.543-10.35-4.587-14.652-.051-.924.974-1.716,2.119-2.363,3.298-1.435,2.615-2.095,5.486-2.013,8.449.102,3.704.953,7.212,3.506,10.293,5.406-1.057,10.798-1.142,16.228.028Zm3.635,10.555c-2.802.63-5.308,1.423-7.87,1.703-2.585.283-5.251.277-7.836-.012-2.535-.283-5.013-1.079-7.681-1.688.255,3.185,2.22,5.171,4.217,7.043.122,1.423.235,2.745.343,4.007,3.432.531,12.066.447,14.237-.118.06-1.231.121-2.482.187-3.856,2.127-1.813,4.084-3.833,4.402-7.079Z"/><path class="cls-13" d="m83.844,190.993c-2.742.001-5.484.003-8.226.004-.336-.212-.65-.476-1.011-.625-.766-.316-1.594-.499-2.327-.872-.944-.481-1.785-1.135-1.814-2.346-.029-1.208.747-1.889,1.697-2.413.453-.25.929-.486,1.422-.634,4.202-1.262,8.422-1.272,12.611.016.867.267,1.713.782,2.416,1.367,1.109.922,1.098,2.334-.047,3.235-.801.63-1.785,1.038-2.716,1.487-.644.311-1.335.525-2.005.782Zm-11.929-4.032c1.214,1.284,2.027,1.813,3.166,2.047,3.215.66,6.441.692,9.641-.038.892-.204,1.74-.681,2.551-1.134.594-.332.521-1.16-.06-1.574-.169-.121-.331-.266-.52-.342-4.576-1.843-9.155-1.866-13.708.059-.42.178-.717.648-1.07.982Z"/></g><g class="cls-17"><path class="cls-16" d="m529.112,112.263c-.306-2.572,1.588-20.05,2.517-22.96.61-.082,1.296-.254,1.983-.254,13.939-.016,27.878-.017,41.817-.001.791,0,1.583.166,2.493.268.203,1.466.406,2.767.559,4.074.679,5.799,1.352,11.598,2.007,17.399.158,1.403-.239,1.82-1.689,1.893-.614.031-1.23.013-1.845.013-14.861,0-29.723.008-44.584-.015-1.093-.002-2.261.312-3.259-.417Zm1.886-7.238c-.122,1.048-.252,1.951-.325,2.859-.077.974-.532,1.954-.068,3.158,2.195.021,4.329.049,6.464.059,2.254.01,4.509.002,6.763.002,2.152,0,4.305.037,6.456-.01,2.219-.049,4.462.219,6.814-.217.076-1.071.176-1.968.193-2.868.018-.992-.04-1.986-.064-2.932-2.665-.433-23.035-.479-26.234-.05Zm38.989-2.125c.232-1.788.174-3.474-.108-5.329-2.243-.335-4.38-.139-6.502-.172-2.151-.034-4.304-.007-6.456-.007s-4.304-.025-6.456.007c-2.12.032-4.256-.16-6.636.195.132,1.944-.615,3.708.274,5.612,8.233,0,16.425.004,24.617-.012.38,0,.76-.172,1.267-.294Zm-14.779-11.864c-.344-.184-.516-.358-.69-.359-6.73-.042-13.461-.072-20.192-.09-.497-.001-.994.106-1.55.169-.374,1.646-.864,3.191-.505,4.906.426.093.815.252,1.205.253,6.733.015,13.465.019,20.198-.005.472-.002.943-.246,1.432-.383.248-1.607.365-3.096.103-4.491Zm23.578,19.802c.158-2.101-.185-3.976-.699-6.049-2.184-.02-4.317-.047-6.45-.057-2.046-.01-4.093-.039-6.138.008-2.117.049-4.255-.236-6.404.229-.365,1.999-.579,3.883-.358,5.743,2.473.477,16.315.559,20.048.125Zm-21.887-19.932c-.231,1.673-.397,3.168-.015,4.736,2.245.605,4.492.227,6.711.293,2.241.066,4.487.075,6.727-.002,2.195-.076,4.434.363,6.698-.35.03-1.718.199-3.322-.597-4.785-3.103-.351-16.972-.294-19.524.109Zm-14.997,12.154c.309-2.012.659-3.68.373-5.342-2.769-.432-7.703-.436-10.255-.031-.646,1.702-.774,3.458-.506,5.396,3.521.228,6.841.25,10.388-.022Zm29.687-.127c2.315.402,4.296.516,6.481-.073-.215-1.797-.416-3.477-.643-5.376-2.04-.025-3.916-.345-5.837.17v5.279Z"/></g><g class="cls-17"><g><g><path class="cls-12" d="m538.256,158.274c.64-.225.96-.418,1.294-.444,7.888-.612,15.777-1.207,23.791-1.814,1.426,2.118,2.859,4.146,4.166,6.253.343.553.404,1.345.415,2.03.045,2.76.019,5.521.019,8.282,0,.706,0,1.411,0,2.218,2.867,2.044,5.684,4.053,8.539,6.088.41,1.195.335,2.415.1,3.786-.487.117-.978.283-1.481.346-1.06.132-2.124.244-3.19.306-7.287.423-14.575.825-21.862,1.248-2.133.124-4.263.291-6.393.445-.83.06-1.546-.158-2.253-.63-4.663-3.112-9.349-6.19-14.025-9.284-.146-.097-.259-.243-.49-.463v-4.252c.535-.121,1.027-.298,1.53-.335,2.663-.194,5.33-.347,7.994-.53.514-.035,1.023-.14,1.623-.224.418-2.217.173-4.346.214-6.458.041-2.129.009-4.26.009-6.568Zm-.114,24.002l-.111-.087c.294.796.889,1.146,1.713,1.159l-.11-.087c.303.782.878,1.163,1.713,1.157l-.11-.089c.679,1.3,1.831,1.473,3.144,1.384,3.905-.266,7.812-.494,11.718-.742,5.415-.343,10.829-.688,16.243-1.044.308-.02.742.055.771-.596-.445-.315-.929-.683-1.437-1.014-2.607-1.702-5.219-3.396-7.831-5.089q-3.296-2.137-7.181-1.889c-.355.023-.71.054-1.065.078-4.171.287-8.34.594-12.513.854-3.906.244-7.816.433-11.724.666-.298.018-.586.187-.929.303.461.838,1.067,1.149,1.786,1.293l-.088-.084c.23.538.698.594,1.196.591.146.135.291.27.437.406.193.584.641.714,1.188.669l.409.37c.245.693.838.682,1.417.698.066.071.132.143.198.214.162.594.51.941,1.166.879Zm23.884-11.91c.389-3.568.297-10.852-.19-12.933-7.304.474-14.644,1.014-21.94,1.703-.13.427-.271.676-.273.926-.024,3.299-.038,6.597-.023,9.896.002.404.193.807.324,1.32,5.9-.362,11.679-.709,17.457-1.078,1.506-.096,3.01-.382,4.645.167Zm-34.036,5.378c1.94.194,3.525.019,5.112-.087,4.352-.292,8.703-.588,13.057-.857,4.176-.258,8.361-.401,12.527-.763,1.616-.14,2.921.172,4.25,1.07,3.539,2.392,7.142,4.689,10.73,7.007.488.315,1.039.531,1.536.78.438-.572.327-.994-.03-1.312-.463-.412-.978-.767-1.485-1.126-3.708-2.619-7.444-5.2-11.117-7.868-1.213-.881-2.404-1.29-3.939-1.188-7.461.492-14.929.871-22.394,1.302-2.132.123-4.263.278-6.393.431-.517.037-1.03.123-1.679.202-.057.79-.106,1.464-.175,2.409Zm36.192-16.097c-.194.065-.387.13-.581.195-.004,3.981-.027,7.962.013,12.042,1.056.4,1.62,1.45,2.909,1.42.299-3.28.061-6.47.001-9.658-.006-.34-.097-.727-.279-1.008-.658-1.017-1.371-1.998-2.064-2.992Z"/><path class="cls-8" d="m538.256,158.274c.64-.225.96-.418,1.294-.444,7.888-.612,15.777-1.207,23.791-1.814,1.426,2.118,2.859,4.146,4.166,6.253.343.553.404,1.345.415,2.03.045,2.76.019,5.521.019,8.282,0,.706,0,1.411,0,2.218,2.867,2.044,5.684,4.053,8.539,6.088.41,1.195.335,2.415.1,3.786-.487.117-.978.283-1.481.346-1.06.132-2.124.244-3.19.306-7.287.423-14.575.825-21.862,1.248-2.133.124-4.263.291-6.393.445-.83.06-1.546-.158-2.253-.63-4.663-3.112-9.349-6.19-14.025-9.284-.146-.097-.259-.243-.49-.463v-4.252c.535-.121,1.027-.298,1.53-.335,2.663-.194,5.33-.347,7.994-.53.514-.035,1.023-.14,1.623-.224.418-2.217.173-4.346.214-6.458.041-2.129.009-4.26.009-6.568Zm-.114,24.002l-.111-.087c.294.796.889,1.146,1.713,1.159l-.11-.087c.303.782.878,1.163,1.713,1.157l-.11-.089c.679,1.3,1.831,1.473,3.144,1.384,3.905-.266,7.812-.494,11.718-.742,5.415-.343,10.829-.688,16.243-1.044.308-.02.742.055.771-.596-.445-.315-.929-.683-1.437-1.014-2.607-1.702-5.219-3.396-7.831-5.089q-3.296-2.137-7.181-1.889c-.355.023-.71.054-1.065.078-4.171.287-8.34.594-12.513.854-3.906.244-7.816.433-11.724.666-.298.018-.586.187-.929.303.461.838,1.067,1.149,1.786,1.293l-.088-.084c.23.538.698.594,1.196.591.146.135.291.27.437.406.193.584.641.714,1.188.669l.409.37c.245.693.838.682,1.417.698.066.071.132.143.198.214.162.594.51.941,1.166.879Zm23.884-11.91c.389-3.568.297-10.852-.19-12.933-7.304.474-14.644,1.014-21.94,1.703-.13.427-.271.676-.273.926-.024,3.299-.038,6.597-.023,9.896.002.404.193.807.324,1.32,5.9-.362,11.679-.709,17.457-1.078,1.506-.096,3.01-.382,4.645.167Zm-34.036,5.378c1.94.194,3.525.019,5.112-.087,4.352-.292,8.703-.588,13.057-.857,4.176-.258,8.361-.401,12.527-.763,1.616-.14,2.921.172,4.25,1.07,3.539,2.392,7.142,4.689,10.73,7.007.488.315,1.039.531,1.536.78.438-.572.327-.994-.03-1.312-.463-.412-.978-.767-1.485-1.126-3.708-2.619-7.444-5.2-11.117-7.868-1.213-.881-2.404-1.29-3.939-1.188-7.461.492-14.929.871-22.394,1.302-2.132.123-4.263.278-6.393.431-.517.037-1.03.123-1.679.202-.057.79-.106,1.464-.175,2.409Zm36.192-16.097c-.194.065-.387.13-.581.195-.004,3.981-.027,7.962.013,12.042,1.056.4,1.62,1.45,2.909,1.42.299-3.28.061-6.47.001-9.658-.006-.34-.097-.727-.279-1.008-.658-1.017-1.371-1.998-2.064-2.992Z"/></g><g><path class="cls-12" d="m536.976,181.397c-.066-.071-.132-.142-.199-.214-.472-.233-.945-.465-1.417-.698l-.409-.37c-.396-.223-.792-.446-1.188-.669-.146-.135-.291-.27-.437-.406-.399-.197-.797-.394-1.196-.591l.088.084c.204-.673.631-.99,1.362-1.026,3.197-.158,6.392-.363,9.589-.537,5.061-.276,10.125-.512,15.183-.831,1.216-.077,2.265.154,3.289.791,2.867,1.785,5.764,3.523,8.632,5.306.313.195.52.56.987,1.081-2.02.17-3.696.341-5.376.443-1.598.098-3.202.094-4.8.188-5.236.307-10.471.622-15.704.972-1.437.096-2.825.044-4.144-.592l.11.089c-.326-.749-.939-1.072-1.713-1.157,0,0,.11.087.11.087-.361-.697-.952-1.054-1.713-1.159,0,0,.111.087.111.087-.389-.293-.777-.586-1.166-.879Zm-2.645-2.978c.652.549,1.005.911,1.417,1.182,2.008,1.321,4.058,2.581,6.041,3.938,1.015.694,2.06.945,3.264.825,1.772-.177,3.549-.323,5.327-.422,4.447-.248,8.897-.444,13.343-.7,1.599-.092,3.192-.294,4.787-.449.087-.008.189-.032.248-.088.051-.048.05-.151.123-.409-.358-.254-.753-.567-1.18-.831-1.97-1.215-3.978-2.372-5.914-3.64-1.17-.766-2.36-1.111-3.762-1.002-2.929.228-5.866.374-8.8.53-4.358.233-8.718.438-13.076.678-.496.027-.984.204-1.819.386Z"/><path class="cls-8" d="m536.976,181.397c-.066-.071-.132-.142-.199-.214-.472-.233-.945-.465-1.417-.698l-.409-.37c-.396-.223-.792-.446-1.188-.669-.146-.135-.291-.27-.437-.406-.399-.197-.797-.394-1.196-.591l.088.084c.204-.673.631-.99,1.362-1.026,3.197-.158,6.392-.363,9.589-.537,5.061-.276,10.125-.512,15.183-.831,1.216-.077,2.265.154,3.289.791,2.867,1.785,5.764,3.523,8.632,5.306.313.195.52.56.987,1.081-2.02.17-3.696.341-5.376.443-1.598.098-3.202.094-4.8.188-5.236.307-10.471.622-15.704.972-1.437.096-2.825.044-4.144-.592l.11.089c-.326-.749-.939-1.072-1.713-1.157,0,0,.11.087.11.087-.361-.697-.952-1.054-1.713-1.159,0,0,.111.087.111.087-.389-.293-.777-.586-1.166-.879Zm-2.645-2.978c.652.549,1.005.911,1.417,1.182,2.008,1.321,4.058,2.581,6.041,3.938,1.015.694,2.06.945,3.264.825,1.772-.177,3.549-.323,5.327-.422,4.447-.248,8.897-.444,13.343-.7,1.599-.092,3.192-.294,4.787-.449.087-.008.189-.032.248-.088.051-.048.05-.151.123-.409-.358-.254-.753-.567-1.18-.831-1.97-1.215-3.978-2.372-5.914-3.64-1.17-.766-2.36-1.111-3.762-1.002-2.929.228-5.866.374-8.8.53-4.358.233-8.718.438-13.076.678-.496.027-.984.204-1.819.386Z"/></g><g><path class="cls-12" d="m554.793,161.787v-1.821c.674-.072,1.353-.179,2.035-.207.463-.019.876.162.973.696.116.644-.308,1.262-.964,1.321-.599.054-1.206.011-2.044.011Z"/><path class="cls-8" d="m554.793,161.787v-1.821c.674-.072,1.353-.179,2.035-.207.463-.019.876.162.973.696.116.644-.308,1.262-.964,1.321-.599.054-1.206.011-2.044.011Z"/></g><g><path class="cls-12" d="m542.889,162.837h-2.324c-.084-.534-.172-1.094-.291-1.848.988-.068,1.838-.126,2.511-.172.85.668.587,1.217.104,2.02Z"/><path class="cls-8" d="m542.889,162.837h-2.324c-.084-.534-.172-1.094-.291-1.848.988-.068,1.838-.126,2.511-.172.85.668.587,1.217.104,2.02Z"/></g><g><path class="cls-12" d="m554.051,161.756c-.831.075-1.519.178-2.207.184-.468.004-.847-.251-.915-.769-.071-.537.284-1.074.844-1.167.6-.099,1.217-.091,1.983-.14.098.63.185,1.187.295,1.891Z"/><path class="cls-8" d="m554.051,161.756c-.831.075-1.519.178-2.207.184-.468.004-.847-.251-.915-.769-.071-.537.284-1.074.844-1.167.6-.099,1.217-.091,1.983-.14.098.63.185,1.187.295,1.891Z"/></g><g><path class="cls-12" d="m550.401,160.274c-.086,1.927-.084,1.944-1.072,2.051-.435.047-.879.008-1.498.008-.093-.593-.182-1.156-.303-1.93.975-.044,1.818-.082,2.873-.129Z"/><path class="cls-8" d="m550.401,160.274c-.086,1.927-.084,1.944-1.072,2.051-.435.047-.879.008-1.498.008-.093-.593-.182-1.156-.303-1.93.975-.044,1.818-.082,2.873-.129Z"/></g><g><path class="cls-12" d="m546.606,160.377c.04.76.067,1.257.102,1.921-.729.052-1.4.141-2.071.135-.519-.005-.712-.4-.733-.879-.02-.472.134-.918.604-1.02.578-.126,1.19-.098,2.098-.157Z"/><path class="cls-8" d="m546.606,160.377c.04.76.067,1.257.102,1.921-.729.052-1.4.141-2.071.135-.519-.005-.712-.4-.733-.879-.02-.472.134-.918.604-1.02.578-.126,1.19-.098,2.098-.157Z"/></g><g><path class="cls-12" d="m561.292,161.309c-1.083.059-1.782.097-2.424.132-.185-.187-.4-.301-.413-.434-.123-1.295.104-1.572,1.385-1.638.332-.017.853.012.969.208.248.419.287.961.483,1.732Z"/><path class="cls-8" d="m561.292,161.309c-1.083.059-1.782.097-2.424.132-.185-.187-.4-.301-.413-.434-.123-1.295.104-1.572,1.385-1.638.332-.017.853.012.969.208.248.419.287.961.483,1.732Z"/></g></g></g><g class="cls-17"><path class="cls-13" d="m560.543.053c5.57,0,11.139-.017,16.708.007,3.489.015,4.136.63,4.143,4.034.022,11.139.008,22.278.008,33.417,0,.304.01.608-.008.911-.138,2.307-.884,3.076-3.141,3.212-.606.037-1.215.018-1.822.018-10.633,0-21.265.001-31.898,0-.709,0-1.421.022-2.125-.04-1.746-.153-2.57-.962-2.726-2.646-.047-.503-.026-1.012-.026-1.518-.001-11.038.063-22.076-.035-33.113-.035-3.913,1.4-4.341,4.216-4.304,5.569.074,11.139.022,16.708.022Zm-.055,40.249c5.362,0,10.724.009,16.086-.003,3.285-.008,3.322-.042,3.325-3.45.009-10.623.008-21.246,0-31.869-.002-3.612-.016-3.62-3.781-3.622-8.903-.005-17.806-.002-26.709-.002-1.821,0-3.642-.018-5.463.006-2.613.034-2.866.307-2.922,3.017-.013.607-.003,1.214-.003,1.821,0,6.576,0,13.152,0,19.728,0,3.946-.027,7.892.016,11.837.023,2.154.378,2.466,2.454,2.531.606.019,1.214.005,1.821.005,5.059,0,10.117,0,15.176,0Z"/><path class="cls-13" d="m577.426,20.713c.379,8.869-7.208,17.02-16.792,17.137-7.4.091-16.996-5.39-17.108-16.868-.108-11.033,8.955-17.101,16.838-17.129,9.964-.035,17.332,8.335,17.062,16.86Zm-21.174-2.355c-.833-.48-1.812-1.21-2.908-1.643-2.91-1.151-5.943.609-6.281,3.714-.206,1.894-.097,3.83-.033,5.743.037,1.087.997,1.717,1.896,1.231,2.549-1.38,5.155-2.681,7.326-4.334v-4.711Zm6.828-1.768c.574-1.146,1.293-2.25,1.699-3.46.837-2.494-.885-5.361-3.476-5.633-2.087-.219-4.215-.098-6.323-.044-.891.023-1.475.975-1.076,1.731,1.348,2.557,2.763,5.079,4.285,7.406h4.891Zm3.948,17.493c-.036-.779.125-1.458-.122-1.918-1.285-2.396-2.673-4.736-4.006-7.061h-4.878c-.559.989-1.279,1.981-1.71,3.085-.977,2.505.531,5.561,3.075,5.944,2.471.371,5.002.323,7.641-.05Zm-2.262-10.683c.911.509,1.827,1.157,2.841,1.561,2.71,1.079,5.734-.365,6.145-3.056.377-2.47.36-4.99-.097-7.639-.631,0-1.199-.172-1.565.028-2.55,1.386-5.152,2.696-7.325,4.29v4.817Zm-4.236.458c1.515-.016,2.845-1.341,2.901-2.89.06-1.674-1.344-3.158-2.964-3.133-1.47.023-2.868,1.398-2.941,2.893-.077,1.589,1.417,3.146,3.004,3.13Z"/></g><g class="cls-17"><path class="cls-14" d="m494.322,87.771c6.94,0,13.879-.002,20.819.003.84,0,1.691-.034,2.518.08,1.143.157,1.839.961,1.956,2.125.053.521.04,1.05.04,1.575.002,6.204.002,12.407,0,18.611,0,.525.016,1.054-.034,1.576-.131,1.359-.816,2.07-2.201,2.223-.728.08-1.47.047-2.206.047-13.984.002-27.969.002-41.954,0-.736,0-1.478.034-2.206-.049-1.24-.141-1.902-.783-2.084-1.995-.093-.62-.094-1.257-.095-1.886-.006-6.099-.021-12.197.003-18.295.014-3.574.443-4,3.992-4.008,7.15-.018,14.3-.005,21.45-.005Zm21.539,24.769c.856-.177,1.477-.134,1.815-.422.332-.283.393-.898.537-1.378.058-.194.021-.418.021-.628,0-6.201.007-12.402-.013-18.603-.002-.604-.169-1.208-.256-1.79-1.211-.612-2.382-.416-3.515-.417-13.453-.013-26.905-.008-40.358-.007-.631,0-1.27-.054-1.889.033-.584.082-1.145.318-1.812.514v7.691c0,2.417-.053,4.836.015,7.251.07,2.479-.335,4.991.326,7.5h1.966c.219-1.1.414-2.08.61-3.067.592-.07,1.002-.16,1.413-.16,13.032-.007,26.065-.008,39.097.005.489,0,.978.15,1.545.243.164,1.062.304,1.965.5,3.236Zm-41.041-2.201c-.31,1.214-.341,1.903.674,2.095.409.077.836.075,1.255.075,11.768.002,23.535.004,35.303-.016.595,0,1.19-.191,1.823-.299.085-.881.312-1.668-.799-1.787-.728-.078-1.468-.065-2.203-.065-11.137-.003-22.275-.002-33.412-.002-.825,0-1.649,0-2.641,0Z"/><path class="cls-14" d="m472.375,97.999c.537-.315.86-.639,1.223-.691.722-.103,1.466-.071,2.2-.071,12.291-.003,24.582-.004,36.872.003.836,0,1.677.035,2.505.14.243.031.448.361.82.686-.453.256-.77.56-1.124.609-.723.101-1.466.082-2.2.082-12.291.004-24.582.003-36.872,0-.735,0-1.478.027-2.2-.077-.362-.052-.686-.37-1.224-.682Z"/><path class="cls-14" d="m472.375,103.662c.542-.31.867-.627,1.23-.677.723-.101,1.466-.068,2.2-.068,12.289-.003,24.578-.004,36.867.003.836,0,1.677.035,2.504.141.242.031.445.363.815.688-.455.254-.775.556-1.13.605-.723.1-1.466.081-2.2.081-12.289.004-24.578.003-36.867,0-.734,0-1.478.026-2.2-.079-.36-.052-.68-.375-1.22-.694Z"/><path class="cls-14" d="m516.211,100.744c-.711.417-.937.64-1.192.68-.515.08-1.046.078-1.57.078-12.814.003-25.629.005-38.443-.003-.623,0-1.258-.036-1.862-.167-.192-.042-.305-.447-.492-.747.386-.136.672-.325.958-.325,13.758-.011,27.517-.007,41.275.011.277,0,.555.191,1.325.473Z"/><path class="cls-14" d="m472.346,95.209c.614-.346.845-.577,1.097-.603,2.752-.29,40.351-.067,42.426.266-.278.357-.448.798-.687.839-.718.122-1.462.112-2.197.112-12.503.005-25.006.008-37.51-.006-.91-.001-1.875.207-3.13-.608Z"/><path class="cls-14" d="m506.194,105.533c1.589-.068,2.497-.132,3.404-.136.605-.003.951.401,1.064.955.119.587-.523,1.415-1.075,1.241-.94-.295-1.86.095-2.678-.044-.857-.146-1.581-.092-2.391.048-.591.102-1.225-.654-1.119-1.232.102-.553.444-.976,1.047-.964.796.015,1.591.12,1.748.133Z"/></g><g><path class="cls-9" d="m221.396,26.094c.415.312.469.625.156.938-.21.21-.469.312-.781.312-.938,2.71-1.719,5.105-2.344,7.188.938.21,1.301.522,1.094.938-.105.21-.366.417-.781.625v24.844h-4.375v-19.219c-.625,1.25-1.616,2.449-2.969,3.594l-2.656-3.438c1.978-1.978,3.54-4.062,4.688-6.25,1.77-3.645,2.969-7.344,3.594-11.094l3.438,1.094c.415.105.728.261.938.469Zm11.406,5.781h11.562v4.062h-9.688v6.719h8.125v4.062h-8.125v8.438h11.094v4.062h-26.25v-4.062h10.781v-8.438h-8.438v-4.062h8.438v-6.719h-10v-4.062h11.25c-1.562-1.665-3.387-3.333-5.469-5l3.125-2.812c3.02,2.085,5.207,3.96,6.562,5.625l-2.969,2.188Z"/><path class="cls-9" d="m278.114,36.876c.415.73.469,1.199.156,1.406-.21.21-.574.21-1.094,0-3.438,1.042-6.562,1.824-9.375,2.344v3.906l16.875-1.719.469,4.219-17.344,1.719v5.312c0,.312.051.574.156.781.103.21.363.312.781.312h9.531c.415,0,.728-.103.938-.312.103-.208.207-.52.312-.938l.312-2.969,4.688.938-.781,5c-.312,1.978-1.512,2.969-3.594,2.969h-13.906c-2.085-.105-3.125-1.199-3.125-3.281v-7.344l-12.812,1.094-.469-4.219,13.281-1.094v-3.594c-2.812.312-5.625.574-8.438.781l-.781-4.375c4.375-.103,8.75-.52,13.125-1.25,3.332-.625,6.25-1.509,8.75-2.656l2.344,2.969Zm-8.594-11.562v3.281h14.531v8.281h-4.375v-3.906h-24.375v4.375h-4.375v-8.75h14.219v-4.531h3.75c1.25.105,1.457.522.625,1.25Z"/><path class="cls-9" d="m302.802,24.844c-.105.21-.312.417-.625.625v3.281h7.344v4.062h-2.344l-1.875,5.469h4.844v4.062h-21.562v-4.062h5.781l-1.562-5.469h-2.344v-4.062h7.344v-4.688h3.75c1.04,0,1.457.261,1.25.781Zm4.844,34.688h-4.375v-1.719h-7.344v2.656h-4.375v-16.094h16.094v15.156Zm-11.719-11.406v5.625h7.344v-5.625h-7.344Zm1.25-15.312l1.406,5.469h2.5l1.562-5.469h-5.469Zm27.188-3.594l-.469.625c-1.25,4.375-2.449,7.866-3.594,10.469,3.332,3.542,4.844,7.292,4.531,11.25-.21,1.25-.625,2.292-1.25,3.125-.73.938-1.668,1.406-2.812,1.406h-4.062l-.625-4.688h2.656c.938,0,1.457-.469,1.562-1.406.103-1.353-.312-3.071-1.25-5.156-.625-1.562-1.562-2.969-2.812-4.219,1.353-3.75,2.344-7.031,2.969-9.844h-3.906v30.625h-4.375V26.719h9.219l.625-.469,3.594,2.969Z"/><path class="cls-9" d="m345.771,60.313h-4.375v-2.188h-6.25v2.812h-4.375v-17.812h15v17.188Zm-10.625-13.125v6.875h6.25v-6.875h-6.25Zm22.344-6.094h-4.375v-.781h-12.5v1.25h-4.375v-15.781h21.25v15.312Zm-16.875-11.25v6.406h12.5v-6.406h-12.5Zm22.969,30.469h-4.375v-2.188h-6.25v2.812h-4.375v-17.812h15v17.188Zm-10.625-13.125v6.875h6.25v-6.875h-6.25Z"/><path class="cls-6" d="m149.675,110.94c.245.248.49.433.738.554.614.738.306,1.171-.923,1.292-1.107,2.463-2.77,5.233-4.984,8.307,4.676,3.202,10.214,5.478,16.614,6.831l-2.03,5.538c-2.585-.738-5.723-1.91-9.415-3.508-3.078-1.353-5.907-3.075-8.492-5.169-.862.738-1.846,1.416-2.953,2.031-4.062,2.461-9.54,4.552-16.431,6.277l-2.03-5.169c5.29-1.108,9.845-2.521,13.661-4.246,1.846-.86,3.074-1.661,3.691-2.4-2.463-2.83-4.615-6.092-6.461-9.784l4.246-2.4c1.722,3.447,3.629,6.461,5.723,9.046,1.968-2.83,3.692-6.029,5.169-9.6l3.877,2.4Zm-5.169-19.384c-.124.248-.369.493-.738.738v3.692h17.353v5.169h-12.553c2.953,3.202,6.83,6.031,11.63,8.492l-3.877,4.431c-4.061-2.091-8.001-5.29-11.814-9.6l3.508-3.323h-14.215l3.322,2.769c.245.248.43.493.554.738.121.369.061.617-.185.738-.248.248-.678.248-1.292,0-3.571,3.816-7.693,6.894-12.369,9.23l-2.584-4.984c1.722-.614,3.444-1.537,5.169-2.769,2.954-2.091,5.229-3.998,6.83-5.723h-12.737v-5.169h17.353v-5.354h5.17c1.229,0,1.722.309,1.477.923Z"/><path class="cls-6" d="m192.504,91.741c.121.124.121.248,0,.369-.124.124-.433.185-.923.185-.124.248-.248.554-.369.923h7.384l.739-.738,3.876,3.323-1.107.923-2.584,4.061h6.83v16.615h3.508v4.431h-12.185c.738,1.232,1.662,2.279,2.77,3.138,2.091,1.846,5.599,3.017,10.522,3.508l-2.03,5.538c-2.585-.617-4.739-1.292-6.462-2.031-2.953-1.232-5.478-3.384-7.568-6.461-2.464,5.29-7.633,8.183-15.508,8.677l-1.107-5.354c2.954-.245,5.354-.675,7.2-1.292,3.322-1.229,5.169-3.138,5.538-5.723h-11.815v-4.431h3.692v-9.969l-2.03,2.031-3.139-3.877c.49-.49,1.044-.984,1.661-1.477h-2.399v7.569l4.062-1.108.554,4.8-4.615,1.477v13.292c0,.49-.063.984-.185,1.477-.493,1.598-1.662,2.4-3.508,2.4h-4.431l-.554-5.538h2.399c.49,0,.8-.121.924-.369.121-.245.185-.554.185-.923v-8.861l-3.139.923c-.124.617-.369.923-.738.923-.124,0-.309-.061-.554-.185-.124-.245-.248-.554-.369-.923l-.924-4.984,5.724-1.292v-8.677h-5.354v-4.8h5.354v-9.046h4.431c1.477.124,1.722.617.738,1.477v7.569h4.062v3.138c.614-.738,1.168-1.537,1.661-2.4,2.091-3.568,3.692-7.136,4.8-10.707l4.062,1.661c.49.248.799.493.923.738Zm-3.139,5.908c-.617,1.108-1.171,2.155-1.661,3.138h6.461l1.847-3.138h-6.646Zm4.431,7.569v2.769c0,.738-.124,1.477-.369,2.215-.738,2.339-2.215,4.185-4.431,5.538l-1.292-2.769v4.431h3.877v-3.323h4.431c1.477.124,1.722.617.738,1.477v1.846h4.8v-2.954h-2.585c-.986,0-1.846-.369-2.584-1.108-.738-.738-1.107-1.598-1.107-2.585v-5.538h-1.478Zm-4.8,0h-1.292v5.354c.245-.245.49-.554.738-.923.369-.49.554-1.108.554-1.846v-2.585Zm11.077,0v3.877c0,.369.061.617.185.738.121.124.369.185.738.185h.554v-4.8h-1.477Z"/><path class="cls-1" d="m244.998,133.832l-4.8-3.323c2.46-3.075,4.431-6.337,5.907-9.784l4.615,1.846c-1.231,4.185-3.139,7.938-5.723,11.261Zm18.276-42.645c-.124.248-.369.493-.739.738v3.323h15.692v5.169h-15.692v3.508h13.846v16.246h-5.169v-.738h-20.307v1.108h-5.169v-16.615h11.63v-13.661h4.431c1.229,0,1.723.309,1.478.923Zm-12.369,17.538v5.538h20.307v-5.538h-20.307Zm7.754,24.184l-5.539.185c.246-3.816.061-7.569-.554-11.261l4.984-.185c.984,3.692,1.354,7.445,1.108,11.261Zm10.892-.923l-5.723,1.108c-.493-3.692-1.417-7.445-2.77-11.261l5.169-.554c1.354,2.954,2.461,6.525,3.323,10.707Zm11.631-2.031l-5.354,2.954c-.493-1.477-1.231-3.138-2.215-4.984-1.231-2.336-2.464-4.122-3.692-5.354l4.062-2.031c3.199,3.202,5.599,6.34,7.2,9.415Z"/><path class="cls-1" d="m316.995,93.033c1.229,1.356,2.706,2.709,4.431,4.061,2.954,2.215,5.844,3.756,8.677,4.615l-2.031,4.984c-1.601-.614-3.138-1.292-4.615-2.031v2.215h-6.092v2.215h9.6v12.738h-4.8v-.738h-3.877c.614.738,1.478,1.54,2.585,2.4,2.215,1.846,5.414,3.262,9.6,4.246l-2.4,4.984c-1.107-.369-2.215-.738-3.322-1.108-3.816-1.477-7.016-3.877-9.6-7.2-1.108,1.846-3.078,3.692-5.908,5.538-2.953,1.846-5.786,3.075-8.491,3.692l-1.662-4.984c.738-.121,1.538-.306,2.4-.554,2.705-.738,5.169-1.967,7.384-3.692,1.229-1.108,2.152-2.215,2.77-3.323h-4.062v.923h-4.8v-8.492l-2.4,4.246c-.862-.86-1.725-1.661-2.584-2.4v18.646h-5.169v-16.615c-1.231,2.339-2.709,4.431-4.431,6.277l-2.77-4.984c3.813-3.813,6.153-8.613,7.016-14.399h-5.723v-4.8h5.907v-9.046h4.431c1.477.124,1.722.617.738,1.477v7.569h4.431v1.661c4.307-1.846,7.814-5.599,10.522-11.261l3.692,1.108c1.722.617,1.906,1.292.554,2.031Zm-19.199,11.261v5.169c1.353.862,3.015,2.031,4.984,3.508v-3.877h9.415v-2.215h-6.461v-1.846c-.987.738-2.4,1.477-4.246,2.215l-.923-2.954h-2.77Zm14.399,9.23h-4.615v3.138h4.615v-3.138Zm-2.954-11.077h11.077c-1.971-1.229-3.94-3.138-5.908-5.723-1.231,1.846-2.953,3.756-5.169,5.723Zm8.123,11.077v3.138h4.8v-3.138h-4.8Z"/><path class="cls-4" d="m392.5,104.294v-2.585h-9.969v-.554c-.248.124-.493.248-.738.369-1.846,3.571-3.756,6.646-5.723,9.23v1.846l2.953-4.615,3.323,2.4c.245.248.43.493.554.738.121.248.121.433,0,.554-.124.248-.493.369-1.107.369l-2.215,3.138c1.477.987,2.769,2.031,3.876,3.138l-3.138,4.061c-1.107-1.477-2.524-2.83-4.246-4.061v15.323h-5.169v-17.538c-1.971,1.725-3.632,3.078-4.984,4.061l-2.77-5.169c2.585-1.108,5.229-3.075,7.938-5.908,1.967-2.091,3.322-4.061,4.062-5.907h-9.784v-4.8h4.984v-8.492h4.431c1.477.124,1.722.617.738,1.477v7.015h2.769l.738-1.108,3.508,3.138v-3.508h9.969v-7.015h4.062c1.478.124,1.723.617.738,1.477v2.769l2.585-3.138c.859.369,1.661.862,2.399,1.477.86.738,1.723,1.54,2.585,2.4l-1.661,2.031h4.8v4.8h-10.708v2.585h8.861v25.476c0,.49-.063.984-.185,1.477-.493,1.598-1.661,2.4-3.507,2.4h-3.508l-.554-4.8h1.846c.49,0,.799-.121.923-.369.121-.245.185-.554.185-.923v-4.431h-4.062v9.784h-4.8v-9.784h-4.062v10.338h-4.8v-29.168h8.861Zm-4.062,4.431v2.769h4.062v-2.769h-4.062Zm0,7.2v2.769h4.062v-2.769h-4.062Zm8.861-19.015h2.77c-.738-.738-1.661-1.477-2.77-2.215v2.215Zm0,11.815v2.769h4.062v-2.769h-4.062Zm0,7.2v2.769h4.062v-2.769h-4.062Z"/><path class="cls-4" d="m421.299,104.294v29.537h-5.169v-21.969c-.248.617-.554,1.171-.923,1.661-.617.862-1.231,1.601-1.846,2.215l-2.585-4.615c1.723-1.846,3.508-4.921,5.354-9.23,1.723-3.937,2.83-7.938,3.323-12l4.062,1.108c.614.124.983.369,1.107.738.121.248.061.493-.185.738-.124.248-.369.369-.738.369-.862,3.202-1.785,6.401-2.77,9.6,1.354.617,1.478,1.232.369,1.846Zm6.277-5.908v3.692c1.353-1.108,3.198-3.138,5.538-6.092,1.477-2.091,2.521-4.183,3.139-6.277l3.876,1.477c.37.124.676.309.924.554.245.248.306.493.185.738-.124.248-.493.433-1.108.554-.493.738-.923,1.477-1.292,2.215h15.692v4.8h-4.985c-1.355,2.833-2.832,4.984-4.43,6.461,2.091,1.232,4.984,2.339,8.676,3.323,1.229.369,2.276.554,3.139.554l-1.477,4.984c-5.417-1.353-9.969-3.323-13.661-5.907-4.186,2.833-8.371,4.924-12.554,6.277l-1.661-4.061v14.584h-4.8v-29.353h4.062c1.477.124,1.722.617.738,1.477Zm7.199,9.969c1.354-.614,2.461-1.229,3.323-1.846-.738-.49-1.416-1.168-2.03-2.031-.618-.86-1.172-1.661-1.662-2.4-.862,1.356-2.339,2.893-4.431,4.615l-2.399-3.877v7.754c2.336-.369,4.736-1.108,7.199-2.215Zm19.754,14.399c0,.124-.063.185-.185.185-.249.248-.618.248-1.108,0-.248.493-.678,1.047-1.292,1.661-2.215,2.094-5.478,4.125-9.784,6.092-4.186,1.846-8.616,2.954-13.292,3.323l-1.292-5.169c2.953,0,6.397-.614,10.338-1.846,2.336-.738,4.615-1.783,6.83-3.138,2.461-1.477,4.552-3.323,6.277-5.538l3.138,3.138c.491.493.615.923.37,1.292Zm-20.308-7.384c3.199-1.229,5.723-2.83,7.569-4.8l2.769,2.769c.491.493.615.923.369,1.292-.124.124-.309.248-.554.369-.248,0-.493-.061-.738-.185-1.107.987-2.523,1.97-4.246,2.954-3.322,1.846-6.524,3.262-9.6,4.246l-1.846-4.615c2.091-.49,4.183-1.168,6.276-2.031Zm15.138,3.508c-.248.248-.678.309-1.292.185-.986.862-2.399,1.91-4.246,3.138-2.708,1.97-6.894,3.816-12.553,5.538l-1.662-4.8c1.847-.245,3.692-.675,5.538-1.292,4.431-1.477,8.06-3.753,10.893-6.831l2.769,2.585c.614.738.8,1.232.554,1.477Zm-7.938-15.138c.983-.984,1.906-2.215,2.769-3.692h-5.907c.983,1.477,2.03,2.709,3.139,3.692Z"/><path class="cls-3" d="m259.911,175.094c2.915,2.5,4.375,6.147,4.375,10.938,0,3.75-1.147,7.031-3.438,9.844-2.293,2.812-5.418,5.054-9.375,6.719l-3.594-3.906c7.915-3.02,11.875-7.188,11.875-12.5,0-3.333-.938-5.938-2.812-7.812-1.98-1.978-4.949-2.969-8.906-2.969,1.665.417,2.5.835,2.5,1.25-.105.417-.418.679-.938.781-.312,2.397-1.094,5.991-2.344,10.781-1.147,4.48-2.344,7.5-3.594,9.062-1.562,1.98-3.23,2.969-5,2.969-1.875,0-3.543-.728-5-2.188-2.188-2.188-3.281-5.52-3.281-10s1.665-8.384,5-11.719c3.332-3.333,7.5-5,12.5-5s9.009,1.25,12.031,3.75Zm-21.406,20.156c1.145,0,2.082-.781,2.812-2.344,1.875-5.103,3.176-10.833,3.906-17.188-3.543.522-6.147,2.136-7.812,4.844-1.562,2.5-2.344,5.054-2.344,7.656,0,2.917.571,4.949,1.719,6.094.625.625,1.196.938,1.719.938Z"/><path class="cls-11" d="m299.443,204.313h-4.688v-1.875h-16.406v2.344h-4.688v-34.688h25.781v34.219Zm-21.094-29.844v4.844h16.406v-4.844h-16.406Zm0,9.219v5h16.406v-5h-16.406Zm0,9.375v5h16.406v-5h-16.406Z"/><path class="cls-11" d="m328.818,169.157v3.281h14.844v8.594h-4.375v-4.531h-14.688l2.656.938c.415.105.728.261.938.469.415.312.625.574.625.781,0,.312-.312.469-.938.469l-1.875,3.906h17.969v4.062h-7.5c-.21.938-.469,1.824-.781,2.656-.938,2.5-1.875,4.324-2.812,5.469,3.853,1.98,7.031,4.011,9.531,6.094l-3.281,3.594c-1.46-1.25-4.585-3.281-9.375-6.094-4.062,3.853-10.366,5.938-18.906,6.25l-.625-4.844c1.978-.103,3.853-.259,5.625-.469,4.27-.728,7.5-1.77,9.688-3.125-2.293-1.04-4.219-1.77-5.781-2.188-.625.625-1.147,1.25-1.562,1.875l-3.594-2.344c2.082-2.5,3.645-4.79,4.688-6.875h-9.688v-4.062h11.719c1.145-2.603,2.031-4.79,2.656-6.562h-9.688v4.531h-4.375v-8.594h14.531v-4.531h3.75c1.25.105,1.457.522.625,1.25Zm.469,23.438c1.04-1.562,1.875-3.384,2.5-5.469h-7.812c-.835,1.562-1.616,2.917-2.344,4.062,2.29.625,4.582,1.406,6.875,2.344.207-.208.469-.52.781-.938Z"/></g><g class="cls-17"><g><path class="cls-5" d="m.507,183.232c0-4.798,0-9.595.001-14.393,0-.73-.026-1.463.033-2.189.263-3.224,2.172-5.095,5.432-5.334.623-.046,1.251-.017,1.877-.017,8.239,0,16.479-.002,24.718.002.834,0,1.681-.049,2.498.077,2.737.421,4.456,2.294,4.68,5.049.067.83.043,1.667.043,2.502.002,9.7.003,19.399,0,29.099,0,.834.024,1.673-.05,2.501-.245,2.755-2.012,4.597-4.763,4.961-.719.095-1.458.067-2.187.067-8.448.004-16.896.003-25.344,0-.625,0-1.256.019-1.875-.048-2.915-.318-4.736-2.14-5.003-5.071-.104-1.139-.057-2.292-.058-3.439-.005-4.589-.002-9.178-.002-13.767Zm1.626-9.191c-.047.69-.112,1.208-.113,1.726-.007,7.825-.006,15.65-.006,23.475,0,.417-.018.838.029,1.251.204,1.794,1.39,3.104,3.145,3.385.818.131,1.662.141,2.495.142,8.347.01,16.694.008,25.04.001.729,0,1.46-.034,2.186-.102,1.784-.167,2.812-1.267,3.305-2.886.177-.582.143-1.24.144-1.863.007-7.825.009-15.65-.008-23.475-.001-.591-.152-1.182-.226-1.719-3.095-.433-33.252-.392-35.991.064Zm35.985-1.803c.418-2.142.32-4.017.175-5.86-.163-2.081-1.61-3.302-3.75-3.443-.519-.034-1.042-.014-1.563-.014-8.545,0-17.091-.001-25.636,0-.625,0-1.251-.002-1.875.032-1.656.09-2.882,1.015-3.199,2.525-.46,2.195-.528,4.471.134,6.76h35.714Z"/><path class="cls-5" d="m34.553,184.397v7.708c-.504.264-1.134.438-1.526.842-.417.429-.615,1.074-.896,1.631-2.31,4.565-6.019,7.121-11.11,7.483-7.979.567-13.608-5.72-14.048-12.134-.568-8.275,6.216-14.696,13.883-14.244,4.557.269,8.161,2.394,10.566,6.312.738,1.203,1.484,2.226,3.132,2.402Zm-4.459,2.746c.069-.507.199-.818.134-1.082-.964-3.928-5.017-7.989-10.809-7.625-4.479.281-8.83,3.686-9.696,9.07-.133.827.173,1.436.907,1.796,2.474,1.216,4.979,1.423,7.473.083.821-.441,1.557-1.039,2.372-1.495,2.243-1.256,4.597-1.896,7.182-1.217.773.203,1.572.307,2.438.471Zm-19.965,3.813c1.122,5.692,6.208,9.192,11.648,8.388,5.056-.747,8.914-5.303,8.554-10.263-3.257-1.567-6.484-1.715-9.651.403-.432.289-.842.613-1.288.877-2.24,1.325-4.603,1.848-7.166,1.081-.576-.172-1.172-.275-2.098-.487Z"/><path class="cls-5" d="m10.342,168.409c-.726.677-1.192,1.255-1.786,1.635-1.334.854-2.883.505-3.868-.77-.883-1.143-.818-2.614.163-3.714,1.011-1.133,2.708-1.358,3.935-.427.562.427.984,1.037,1.561,1.662.423-.505.727-1.033,1.175-1.373,1.779-1.355,4.259-.626,4.815,1.37.352,1.263-.126,2.577-1.195,3.287-1.022.678-2.49.645-3.481-.171-.469-.386-.817-.918-1.319-1.5Zm3.006.695c.756.079,1.601-.71,1.603-1.497.002-.667-.646-1.362-1.33-1.426-.731-.069-1.389.427-1.544,1.162-.171.816.449,1.676,1.271,1.762Zm-4.926-1.633c-.049-.832-.618-1.375-1.397-1.332-.8.045-1.321.608-1.319,1.427.002.793.592,1.347,1.404,1.314.8-.032,1.358-.631,1.313-1.41Z"/><path class="cls-5" d="m31.098,164.891c1.749-.699,3.231-.457,4.645-.293.678,2.673.67,4.015-.005,6.421h-4.318c-.756-2.001-.395-3.948-.322-6.128Zm1.729,1.353c-.446,1.006-.447,1.91-.128,2.766.102.274.613.544.937.545.321,0,.891-.31.92-.539.11-.866.044-1.754.044-2.771h-1.773Z"/></g></g><g class="cls-17"><g><path class="cls-10" d="m519.534,189.447c-2.801.364-46.472.395-49.342.072-.119-.488-.362-1.032-.368-1.578-.036-3.452-.038-6.904-.006-10.356.006-.676.144-1.369.332-2.022,1.442-5.018,2.893-10.033,4.379-15.038.667-2.247,1.165-2.613,3.609-2.617,11.046-.018,22.093-.008,33.139-.007.197,0,.395-.005.592.005,1.858.096,2.404.446,2.973,2.272.996,3.197,1.805,6.455,2.883,9.623,1.512,4.444,2.22,8.957,1.904,13.648-.131,1.948-.068,3.909-.094,5.998Zm-47.84-13.942c.8.088,1.376.207,1.953.208,14.102.01,28.204.01,42.306-.003.551,0,1.102-.151,1.883-.265-.625-2.156-1.198-4.128-1.769-6.1-.822-2.838-1.663-5.671-2.456-8.517-.282-1.013-.872-1.508-1.916-1.422-.372.031-.739.13-1.068.191-.06.599-.105,1.053-.169,1.698-1.105,0-2.076,0-3.046,0-7.189-.008-14.378.076-21.568,0-2.365-.025-4.73-.046-7.094-.091-.157-.003-.311-.195-.479-.308-.085-.436-.171-.882-.275-1.419-.515.024-.987.047-1.633.078-1.7,5.25-3.205,10.52-4.669,15.95Zm43.647,3.893c-.496-.166-.677-.279-.858-.28-12.726-.026-25.452-.043-38.178-.056-.59,0-1.181.049-1.771.084-.092.005-.189.044-.27.09-.084.048-.152.124-.227.188-.482,2.771-.444,4.521.142,6.585,3.098.395,8.183.325,10.019-.113,0-1.505-.037-2.984.019-4.459.021-.548.262-1.089.417-1.687.912-.048,1.692-.127,2.473-.124,5.622.021,11.244.056,16.866.102.17.001.338.166.691.352.392,1.884.02,3.94.192,6.122,3.51.017,6.912.189,10.49-.115.118-2.32.182-4.452-.006-6.691Zm-29.512,5.055c2.12.219,4.077.093,6.026.115,1.871.022,3.744.053,5.614-.009,1.931-.064,3.899.292,5.85-.295.118-1.178.364-2.222-.206-3.172-3.545-.369-15.03-.278-17.283.149v3.212Zm-13.353,2.71c-.102-.324-.154-.416-.156-.508-.061-3.039-.116-6.077-.184-9.116,0-.021-.17-.037-.261-.057-.157.088-.43.152-.455.269-.379,1.76-.226,8.455.242,10.36.726.048,1.498.139,2.27.143,2.956.017,5.911.006,8.867.007,10.838,0,21.675.008,32.513-.01.944-.002,1.966.288,2.78-.38.37-2.93.339-8.092-.065-10.423h-1.136c-.263,3.271.256,6.512-.295,9.701-.394.13-.665.297-.935.297-14.088.014-28.177.014-42.265.003-.272,0-.543-.165-.921-.287Z"/><path class="cls-10" d="m505.425,174.927c-1.358.056-2.816-.478-4.071-1.503-2.187-1.787-2.259-4.799-.202-6.705,2.392-2.215,6.505-2.276,8.907-.069,2.21,2.031,2.143,4.715-.021,6.683-1.198,1.089-2.686,1.593-4.612,1.594Zm.255-1.396c1.377-.008,2.585-.463,3.49-1.315,1.338-1.259,1.362-3.134.058-4.417-1.91-1.879-5.706-1.735-7.416.282-.958,1.13-.965,2.599-.043,3.758,1.006,1.265,2.406,1.593,3.911,1.692Z"/><path class="cls-10" d="m483.292,174.919c-1.532.067-2.994-.441-4.252-1.468-2.286-1.867-2.295-4.975-.052-6.896,2.393-2.049,6.323-2.023,8.681.058,2.222,1.961,2.164,5.053-.178,6.887-1.185.928-2.555,1.441-4.199,1.42Zm-.011-1.394c1.521-.012,2.901-.582,3.759-1.531,1-1.104,1.08-2.595.204-3.774-1.762-2.372-6.303-2.308-8.003.112-.748,1.065-.757,2.221-.011,3.289.998,1.428,2.484,1.817,4.05,1.903Z"/><path class="cls-10" d="m495.038,167.481c-1.211-.122-2.224-.441-3.087-1.18-1.15-.985-1.112-2.623.067-3.598,1.506-1.245,4.289-1.258,5.791-.026,1.311,1.074,1.328,2.803-.101,3.748-.781.517-1.774.714-2.671,1.055Zm-.384-4.354c-.212.052-.736.072-1.127.31-.382.233-.841.672-.871,1.052-.027.342.416.825.773,1.064.384.257.902.388,1.374.425,1.244.098,2.604-.775,2.469-1.515-.138-.76-1.154-1.338-2.618-1.336Z"/><path class="cls-10" d="m509.278,180.126c1.554-.063,2.887,1.115,2.983,2.635.092,1.457-1.204,2.843-2.721,2.91-1.573.069-2.856-1.082-2.945-2.643-.087-1.532,1.121-2.839,2.683-2.902Zm-.013,1.411c-.664.071-1.184.711-1.152,1.416.03.662.669,1.303,1.29,1.294.81-.011,1.408-.748,1.278-1.572-.112-.706-.741-1.211-1.417-1.138Z"/><path class="cls-10" d="m477.349,182.928c-.013-1.612,1.137-2.796,2.724-2.804,1.578-.008,2.797,1.193,2.796,2.753-.002,1.579-1.175,2.774-2.75,2.801-1.583.027-2.757-1.138-2.77-2.749Zm4.104.014c.035-.644-.572-1.335-1.233-1.405-.786-.083-1.55.644-1.499,1.425.041.625.769,1.325,1.369,1.319.61-.006,1.329-.713,1.363-1.339Z"/><path class="cls-10" d="m505.257,170.17c-.04.078-.08.155-.12.233-.035-.121-.082-.24-.095-.364-.003-.026.121-.065.187-.098.01.077.019.153.029.23Z"/><path class="cls-10" d="m503.947,170.256c-.052.114-.104.227-.156.341-.018-.089-.065-.183-.048-.264.025-.119.096-.228.147-.341.019.088.038.177.057.265Z"/><path class="cls-10" d="m507.508,170.324c-.054.031-.107.063-.161.094-.033-.17-.072-.339-.089-.51-.002-.021.12-.054.185-.082.021.166.043.332.064.498Z"/><path class="cls-10" d="m481.329,170.492c-.01-.151-.018-.302-.027-.454.009.151.019.302.027.454Z"/><path class="cls-10" d="m482.7,169.776c-.032.281-.065.562-.097.843-.074-.007-.148-.014-.222-.021.015-.282.03-.563.045-.845.092.008.183.015.275.023Z"/><path class="cls-10" d="m484.759,169.771c.062.011.174.014.177.033.025.177.031.356.042.535-.098-.02-.28-.041-.28-.06.002-.169.036-.339.061-.508Z"/></g></g><path class="cls-2" d="m491.062,49.193c-5.975,0-11.952-.065-17.926.037-1.942.033-2.479-.668-2.464-2.53.073-9.125-.027-18.251.087-27.375.021-1.689.34-3.634,1.23-5,2.114-3.244,2.365-6.701,2.224-10.359-.095-2.456.086-2.55,2.563-2.551,9.587-.004,19.174-.005,28.761,0,2.351.001,2.714.213,2.542,2.604-.297,4.138.482,7.912,2.81,11.392.469.701.597,1.739.601,2.623.041,9.585-.011,19.17.059,28.754.014,1.932-.71,2.468-2.561,2.439-5.974-.094-11.95-.035-17.926-.035Zm-.031-.912c5.908,0,11.816-.038,17.722.027,1.459.016,1.998-.524,1.994-1.93-.021-8.334-.022-16.669.005-25.003.005-1.469-.512-2.1-2.075-2.094-11.684.044-23.368.043-35.051.002-1.537-.005-2.038.534-2.027,2.068.058,8.269.062,16.538-.003,24.806-.013,1.603.452,2.179,2.106,2.156,5.775-.081,11.552-.031,17.328-.032Zm-.011-38.384v.009c3.742,0,7.484.027,11.225-.006,5.986-.054,4.924.603,5.115-5.165.063-1.911-.629-2.467-2.497-2.449-8.27.082-16.542.035-24.813.035-5.279,0-5.222-.001-5.124,5.308.031,1.695.617,2.319,2.309,2.292,4.594-.071,9.19-.024,13.785-.024Zm-18.836,5.95c.506.262.621.374.737.374,6.751.034,13.502.084,20.252.027.457-.004,1.166-.756,1.302-1.279.224-.861.078-1.818.084-2.735.008-1.157-.58-1.607-1.72-1.602-5.573.025-11.147-.005-16.719.042-.518.004-1.264.269-1.508.66-.884,1.416-1.598,2.937-2.426,4.513Zm38.09.486c-.799-1.608-1.378-2.624-1.818-3.697-.633-1.543-1.673-2.135-3.36-2.038-2.291.132-4.595.026-6.893.034-2.846.01-2.877.046-2.879,2.835-.001,2.819.027,2.849,2.85,2.864.919.005,1.839.002,2.758.002,2.934,0,5.868,0,9.342,0Zm-15.935,2.133c.027-.329.053-.658.08-.987-.51-.133-1.02-.379-1.53-.381-6.554-.024-13.108-.026-19.662.013-.528.003-1.054.343-1.581.527l.118.759c7.525.312,15.05.223,22.575.069Zm1.068-.63c1.94,1.113,13.82,1.009,15.091-.036-1.365-1.039-13.277-1.091-15.091.036Z"/></g></svg>