<?xml version="1.0" encoding="utf-8"?>
<!-- Generator: Adobe Illustrator 27.2.0, SVG Export Plug-In . SVG Version: 6.00 Build 0)  -->
<svg version="1.1" id="icon" xmlns="http://www.w3.org/2000/svg" xmlns:xlink="http://www.w3.org/1999/xlink" x="0px" y="0px"
	 viewBox="0 0 538.1 370.5" style="enable-background:new 0 0 538.1 370.5;" xml:space="preserve">
<style type="text/css">
	.st0{fill:#E47A5D;}
	.st1{fill:#FFFFFF;}
	.st2{font-family:'KozGoPr6N-ExtraLight-90ms-RKSJ-H';}
	.st3{font-size:2.17px;}
	.st4{fill:none;stroke:#FFFFFF;stroke-miterlimit:10;}
	.st5{fill:#EAAC52;}
	.st6{fill:#FFE700;}
	.st7{fill:#E60012;}
	.st8{fill:#FFFFFF;stroke:#070606;stroke-miterlimit:10;}
	.st9{fill:#063491;}
</style>
<g id="_レイヤー_2-2">
	<g id="_">
		<g>
			<circle class="st0" cx="131" cy="48.5" r="7.7"/>
			<g>
				<text transform="matrix(1 0 0 1 125.89 49.1101)" class="st1 st2 st3">居</text>
				<text transform="matrix(1 0 0 1 125.89 49.1101)" class="st4 st2 st3">居</text>
				<text transform="matrix(1 0 0 1 128.06 49.1101)" class="st1 st2 st3">室</text>
				<text transform="matrix(1 0 0 1 128.06 49.1101)" class="st4 st2 st3">室</text>
				<text transform="matrix(1 0 0 1 130.05 49.1101)" class="st1 st2 st3">ま</text>
				<text transform="matrix(1 0 0 1 130.05 49.1101)" class="st4 st2 st3">ま</text>
				<text transform="matrix(1 0 0 1 132.18 49.1101)" class="st1 st2 st3">わり</text>
				<text transform="matrix(1 0 0 1 132.18 49.1101)" class="st4 st2 st3">わり</text>
			</g>
		</g>
		<g>
			<path d="M56,92.3c-3,0-5.6-2-6.2-4.9c-0.5-2.3,0-4.3,1.7-6c3.7-3.8,7.5-7.5,11.2-11.2c1-1,2.1-1.6,3.5-1.8
				c3.2-0.5,6.2,1.3,7.2,4.3c0.8,2.5,0.3,4.7-1.6,6.6C68,83,64.3,86.7,60.5,90.4c-0.9,0.9-2,1.5-3.2,1.8
				C56.9,92.3,56.4,92.3,56,92.3L56,92.3L56,92.3z M51.2,86c0,0.2,0,0.4,0.1,0.6c0,0.1,0,0.2,0.1,0.3c0.5,2.3,2.7,3.9,5.1,3.7
				c1.2-0.1,2.1-0.6,3-1.4c3.7-3.7,7.5-7.5,11.2-11.2c1.2-1.2,1.6-2.6,1.3-4.3c-0.5-2.5-2.8-4.2-5.3-3.8c-1.1,0.1-2.1,0.6-2.8,1.4
				C60,75,56.3,78.8,52.6,82.5C51.7,83.4,51.2,84.6,51.2,86C51.2,86,51.2,86,51.2,86z"/>
			<path class="st5" d="M51.1,86c0-1.4,0.5-2.5,1.4-3.5c3.7-3.7,7.5-7.4,11.2-11.2c0.8-0.8,1.7-1.2,2.8-1.4c2.5-0.3,4.8,1.4,5.3,3.8
				c0.3,1.7-0.1,3.1-1.3,4.3c-3.7,3.7-7.5,7.5-11.2,11.2c-0.8,0.8-1.8,1.3-3,1.4c-2.4,0.2-4.6-1.4-5.1-3.7c0-0.1,0-0.2-0.1-0.3
				C51.1,86.3,51.1,86.1,51.1,86C51,86,51.1,86,51.1,86z M55.2,80.4c0,0-0.2,0-0.2,0.1c-0.3,0.2-0.3,0.6-0.1,0.9
				c1.8,1.8,3.7,3.7,5.5,5.5c0,0,0,0,0.1,0.1c0.3,0.3,0.8,0.1,0.9-0.3c0.1-0.2,0-0.4-0.2-0.6c-1.5-1.5-3-3-4.6-4.6
				c-0.3-0.3-0.6-0.6-0.9-0.9C55.6,80.5,55.5,80.4,55.2,80.4L55.2,80.4L55.2,80.4z M62.1,73.5c0,0-0.1,0-0.2,0
				c-0.4,0.1-0.5,0.6-0.2,0.9c1.8,1.8,3.6,3.6,5.5,5.4c0,0,0.1,0.1,0.1,0.1c0.2,0.1,0.4,0.2,0.6,0.1s0.3-0.3,0.3-0.5
				c0-0.2-0.1-0.3-0.2-0.5c-1.7-1.7-3.3-3.3-5-5c-0.1-0.1-0.3-0.3-0.4-0.4C62.4,73.6,62.3,73.5,62.1,73.5L62.1,73.5L62.1,73.5z
				 M62.9,78c0.2,0,0.2-0.1,0.3-0.2c0.1-0.1,0-0.2-0.1-0.3c-0.3-0.3-0.5-0.5-0.8-0.8c-0.1-0.1-0.3-0.1-0.4,0c-0.1,0.1-0.1,0.3,0,0.4
				c0.3,0.3,0.5,0.5,0.8,0.8C62.8,77.9,62.9,77.9,62.9,78z M65.1,79.5c0,0,0-0.1-0.1-0.2c-0.3-0.3-0.5-0.6-0.8-0.8
				c-0.1-0.1-0.3-0.1-0.4,0c-0.1,0.1-0.1,0.3,0,0.4c0.1,0.1,0.2,0.2,0.2,0.2c0.2,0.2,0.4,0.4,0.6,0.6c0.1,0.1,0.2,0.1,0.3,0.1
				C65.1,79.8,65.1,79.7,65.1,79.5L65.1,79.5L65.1,79.5z M61.9,79.1c0-0.1-0.1-0.2-0.1-0.2c-0.2-0.3-0.5-0.5-0.8-0.8
				c-0.1-0.1-0.3-0.2-0.4,0s-0.1,0.3,0,0.4c0.2,0.2,0.3,0.3,0.4,0.4c0.1,0.1,0.2,0.2,0.4,0.4c0.1,0.1,0.2,0.1,0.3,0.1
				C61.8,79.3,61.9,79.2,61.9,79.1L61.9,79.1L61.9,79.1z M63.4,81.2c0.1,0,0.2-0.1,0.3-0.2c0-0.1,0-0.2-0.1-0.3
				c-0.3-0.3-0.5-0.5-0.8-0.8c-0.1-0.1-0.3-0.1-0.4,0s-0.1,0.3,0,0.4c0.3,0.3,0.5,0.5,0.8,0.8C63.3,81.1,63.4,81.2,63.4,81.2
				C63.4,81.2,63.4,81.2,63.4,81.2z M59.4,79.3c-0.1,0-0.2,0.1-0.3,0.2c0,0.1,0,0.2,0.1,0.3c0.3,0.3,0.5,0.5,0.8,0.8
				c0.1,0.1,0.3,0.1,0.4,0s0.1-0.3,0-0.4c-0.3-0.3-0.5-0.5-0.8-0.8C59.5,79.4,59.5,79.3,59.4,79.3L59.4,79.3L59.4,79.3z M58.8,82.1
				c0.1,0,0.2-0.1,0.3-0.2c0.1-0.1,0-0.2,0-0.3c-0.3-0.3-0.6-0.6-0.8-0.8c-0.1-0.1-0.3-0.1-0.4,0c-0.1,0.1-0.1,0.3,0,0.4
				c0.3,0.3,0.5,0.5,0.8,0.8C58.7,82.1,58.7,82.1,58.8,82.1L58.8,82.1z M61.3,81.2c-0.2,0-0.2,0.1-0.3,0.2c0,0.1,0,0.2,0.1,0.3
				c0.3,0.3,0.5,0.5,0.8,0.8c0.1,0.1,0.3,0.1,0.4,0s0.1-0.3,0-0.4c-0.3-0.3-0.5-0.5-0.8-0.8C61.4,81.2,61.3,81.2,61.3,81.2
				L61.3,81.2L61.3,81.2z M60.6,84c0.1,0,0.2-0.1,0.3-0.2s0-0.2-0.1-0.3c-0.3-0.3-0.5-0.6-0.8-0.8c-0.1-0.1-0.3-0.1-0.4,0
				s-0.1,0.3,0,0.4c0.3,0.3,0.5,0.5,0.8,0.8C60.5,83.9,60.6,84,60.6,84z M60.8,75.1c-0.1,0-0.2,0.1-0.3,0.2c0,0.1,0,0.2,0,0.3
				c0.1,0.1,0.3,0.3,0.4,0.4c0.1,0.1,0.3,0.1,0.4,0c0.1-0.1,0.1-0.3,0-0.4c-0.1-0.1-0.2-0.2-0.4-0.4C60.9,75.2,60.8,75.2,60.8,75.1z
				 M60,77.2C60,77.2,60,77.2,60,77.2c0-0.1,0-0.1-0.1-0.2c-0.2-0.2-0.3-0.3-0.5-0.5c-0.1-0.1-0.3-0.1-0.4,0c-0.1,0.1-0.1,0.3,0,0.4
				c0.1,0.2,0.3,0.3,0.4,0.4c0.1,0.1,0.2,0.1,0.3,0C59.9,77.4,60,77.3,60,77.2L60,77.2L60,77.2z M66.6,80.9c0-0.1-0.1-0.1-0.1-0.2
				c-0.1-0.1-0.2-0.3-0.4-0.4c-0.1-0.1-0.3-0.1-0.4,0c-0.1,0.1-0.1,0.3,0,0.4c0.1,0.2,0.3,0.3,0.4,0.4c0.1,0.1,0.2,0.1,0.3,0
				S66.5,81.1,66.6,80.9C66.5,80.9,66.6,80.9,66.6,80.9z M64.5,81.7c-0.2,0-0.2,0.1-0.3,0.2s0,0.2,0,0.3c0.1,0.1,0.3,0.3,0.4,0.4
				c0.1,0.1,0.3,0.1,0.4,0s0.1-0.3,0-0.4c-0.1-0.1-0.2-0.2-0.4-0.4C64.6,81.7,64.6,81.7,64.5,81.7C64.5,81.7,64.5,81.7,64.5,81.7z
				 M57,80.3c0.1-0.1,0.2-0.1,0.2-0.2c0.1-0.1,0-0.2,0-0.3c-0.1-0.1-0.3-0.3-0.4-0.4c-0.1-0.1-0.3-0.1-0.4,0c-0.1,0.1-0.1,0.3,0,0.4
				c0.1,0.1,0.2,0.3,0.4,0.4C56.8,80.2,56.9,80.3,57,80.3L57,80.3L57,80.3z M57.7,78.2c0,0.1,0,0.2,0.1,0.2c0.1,0.1,0.3,0.3,0.4,0.4
				c0.1,0.1,0.3,0.1,0.4,0c0.1-0.1,0.1-0.3,0-0.4c-0.1-0.2-0.3-0.3-0.4-0.4c-0.1-0.1-0.2-0.1-0.3,0C57.8,78.1,57.7,78.1,57.7,78.2z
				 M62.4,85.1c0,0,0-0.1-0.1-0.1c-0.1-0.2-0.3-0.3-0.4-0.4c-0.1-0.1-0.3-0.1-0.4,0c-0.1,0.1-0.1,0.3,0,0.4c0.1,0.1,0.3,0.3,0.4,0.4
				c0.1,0.1,0.2,0.1,0.3,0C62.3,85.3,62.4,85.2,62.4,85.1L62.4,85.1L62.4,85.1z M63.1,83.1c-0.2,0-0.2,0.1-0.3,0.2s0,0.2,0.1,0.3
				c0.1,0.1,0.2,0.2,0.4,0.4c0.1,0.1,0.3,0.1,0.4,0c0.1-0.1,0.1-0.3,0-0.4c-0.1-0.1-0.2-0.3-0.4-0.4C63.2,83.1,63.2,83.1,63.1,83.1
				C63.1,83.1,63.1,83.1,63.1,83.1z"/>
			<path d="M55.3,80.4c0.2,0,0.4,0.1,0.5,0.2c0.3,0.3,0.6,0.6,0.9,0.9c1.5,1.5,3,3,4.6,4.6c0.2,0.2,0.2,0.3,0.2,0.6
				c-0.1,0.4-0.6,0.6-0.9,0.3c0,0,0,0-0.1-0.1c-1.8-1.8-3.7-3.7-5.5-5.5c-0.3-0.3-0.2-0.7,0.1-0.9C55.2,80.4,55.3,80.4,55.3,80.4
				L55.3,80.4L55.3,80.4z"/>
			<path d="M62.2,73.6c0.2,0,0.3,0.1,0.4,0.2c0.1,0.1,0.3,0.3,0.4,0.4c1.7,1.7,3.3,3.3,5,5c0.1,0.1,0.2,0.3,0.2,0.5
				c0,0.2-0.1,0.4-0.3,0.5s-0.4,0.1-0.6-0.1c0,0-0.1-0.1-0.1-0.1c-1.8-1.8-3.6-3.6-5.5-5.4c-0.3-0.3-0.2-0.8,0.2-0.9
				C62.1,73.6,62.2,73.6,62.2,73.6L62.2,73.6L62.2,73.6z"/>
			<path d="M63.1,78c0,0-0.1-0.1-0.2-0.1c-0.3-0.3-0.5-0.5-0.8-0.8c-0.1-0.1-0.1-0.3,0-0.4c0.1-0.1,0.3-0.1,0.4,0
				c0.3,0.3,0.5,0.5,0.8,0.8c0.1,0.1,0.1,0.2,0.1,0.3C63.3,77.9,63.2,78,63.1,78z"/>
			<path d="M65.2,79.5c0,0.2-0.1,0.2-0.2,0.3c-0.1,0.1-0.2,0-0.3-0.1c-0.2-0.2-0.4-0.4-0.6-0.6c-0.1-0.1-0.2-0.2-0.2-0.2
				c-0.1-0.1-0.1-0.3,0-0.4c0.1-0.1,0.3-0.1,0.4,0c0.3,0.3,0.6,0.5,0.8,0.8C65.2,79.4,65.2,79.5,65.2,79.5L65.2,79.5L65.2,79.5z"/>
			<path d="M62,79.1c0,0.1-0.1,0.2-0.2,0.3c-0.1,0.1-0.2,0-0.3-0.1c-0.1-0.1-0.2-0.2-0.4-0.4c-0.2-0.2-0.3-0.3-0.4-0.4
				c-0.1-0.1-0.1-0.3,0-0.4c0.1-0.1,0.3-0.1,0.4,0c0.2,0.2,0.5,0.5,0.8,0.8C61.9,78.9,62,79,62,79.1L62,79.1L62,79.1z"/>
			<path d="M63.5,81.2c-0.1,0-0.2-0.1-0.2-0.1c-0.3-0.3-0.5-0.5-0.8-0.8c-0.1-0.1-0.1-0.3,0-0.4c0.1-0.1,0.3-0.1,0.4,0
				c0.3,0.3,0.5,0.5,0.8,0.8c0.1,0.1,0.1,0.2,0.1,0.3C63.8,81.2,63.7,81.2,63.5,81.2C63.6,81.2,63.6,81.2,63.5,81.2z"/>
			<path d="M59.5,79.4c0.1,0,0.1,0.1,0.2,0.1c0.3,0.3,0.5,0.5,0.8,0.8c0.1,0.1,0.1,0.3,0,0.4c-0.1,0.1-0.3,0.1-0.4,0
				c-0.3-0.3-0.5-0.5-0.8-0.8c-0.1-0.1-0.1-0.2-0.1-0.3C59.3,79.4,59.4,79.4,59.5,79.4L59.5,79.4L59.5,79.4z"/>
			<path d="M58.9,82.2c-0.1,0-0.1-0.1-0.2-0.1c-0.3-0.3-0.5-0.5-0.8-0.8c-0.1-0.1-0.1-0.3,0-0.4c0.1-0.1,0.3-0.1,0.4,0
				c0.3,0.3,0.6,0.6,0.8,0.8c0.1,0.1,0.1,0.2,0,0.3C59.1,82.1,59,82.2,58.9,82.2L58.9,82.2z"/>
			<path d="M61.4,81.2c0,0,0.1,0,0.2,0.1c0.3,0.3,0.5,0.5,0.8,0.8c0.1,0.1,0.1,0.3,0,0.4s-0.3,0.1-0.4,0c-0.3-0.3-0.5-0.5-0.8-0.8
				c-0.1-0.1-0.1-0.2-0.1-0.3C61.1,81.3,61.2,81.2,61.4,81.2L61.4,81.2L61.4,81.2z"/>
			<path d="M60.8,84c-0.1,0-0.1-0.1-0.2-0.1c-0.3-0.3-0.5-0.5-0.8-0.8c-0.1-0.1-0.1-0.3,0-0.4s0.3-0.1,0.4,0
				c0.3,0.3,0.5,0.6,0.8,0.8c0.1,0.1,0.1,0.2,0.1,0.3S60.9,84,60.8,84z"/>
			<path d="M60.9,75.2c0.1,0,0.1,0.1,0.2,0.1c0.1,0.1,0.2,0.2,0.4,0.4c0.1,0.1,0.1,0.3,0,0.4c-0.1,0.1-0.3,0.1-0.4,0
				c-0.1-0.1-0.3-0.3-0.4-0.4c-0.1-0.1-0.1-0.2,0-0.3C60.6,75.2,60.7,75.2,60.9,75.2z"/>
			<path d="M60.2,77.2c-0.1,0.1-0.1,0.2-0.2,0.2c-0.1,0.1-0.2,0.1-0.3,0c-0.2-0.1-0.3-0.3-0.4-0.4c-0.1-0.1-0.1-0.3,0-0.4
				c0.1-0.1,0.2-0.1,0.4,0c0.2,0.1,0.3,0.3,0.5,0.5C60.1,77.1,60.2,77.2,60.2,77.2C60.2,77.2,60.2,77.2,60.2,77.2L60.2,77.2
				L60.2,77.2z"/>
			<path d="M66.7,80.9c0,0.1-0.1,0.2-0.2,0.2c-0.1,0.1-0.2,0.1-0.3,0c-0.2-0.1-0.3-0.3-0.4-0.4c-0.1-0.1-0.1-0.3,0-0.4
				c0.1-0.1,0.3-0.1,0.4,0c0.1,0.1,0.3,0.2,0.4,0.4C66.6,80.8,66.7,80.9,66.7,80.9C66.7,80.9,66.7,80.9,66.7,80.9z"/>
			<path d="M64.6,81.7c0,0,0.1,0,0.2,0.1c0.1,0.1,0.2,0.2,0.4,0.4c0.1,0.1,0.1,0.3,0,0.4s-0.3,0.1-0.4,0c-0.1-0.1-0.3-0.3-0.4-0.4
				c-0.1-0.1-0.1-0.2,0-0.3C64.4,81.7,64.5,81.7,64.6,81.7C64.6,81.7,64.6,81.7,64.6,81.7z"/>
			<path d="M57.1,80.3c-0.1-0.1-0.2-0.1-0.2-0.1c-0.1-0.1-0.3-0.2-0.4-0.4c-0.1-0.1-0.1-0.3,0-0.4c0.1-0.1,0.3-0.1,0.4,0
				c0.1,0.1,0.3,0.3,0.4,0.4c0.1,0.1,0.1,0.2,0,0.3C57.3,80.2,57.2,80.3,57.1,80.3L57.1,80.3L57.1,80.3z"/>
			<path d="M57.8,78.2c0.1-0.1,0.1-0.2,0.2-0.2c0.1-0.1,0.2-0.1,0.3,0c0.2,0.1,0.3,0.3,0.4,0.4c0.1,0.1,0.1,0.3,0,0.4
				s-0.3,0.1-0.4,0c-0.1-0.1-0.3-0.3-0.4-0.4C57.8,78.4,57.8,78.3,57.8,78.2z"/>
			<path d="M62.5,85.1c0,0.1,0,0.2-0.2,0.3s-0.2,0.1-0.3,0c-0.1-0.1-0.3-0.3-0.4-0.4c-0.1-0.1-0.1-0.3,0-0.4s0.3-0.1,0.4,0
				c0.2,0.1,0.3,0.3,0.4,0.4C62.5,85,62.5,85.1,62.5,85.1L62.5,85.1L62.5,85.1z"/>
			<path d="M63.2,83.1c0,0,0.1,0,0.2,0.1c0.1,0.1,0.3,0.2,0.4,0.4c0.1,0.1,0.1,0.3,0,0.4c-0.1,0.1-0.3,0.1-0.4,0
				c-0.1-0.1-0.2-0.2-0.4-0.4c-0.1-0.1-0.1-0.2-0.1-0.3C63,83.2,63.1,83.1,63.2,83.1C63.2,83.1,63.2,83.1,63.2,83.1z"/>
		</g>
		<g id="ignition">
			<g id="ignition11">
				<path d="M130.9,28.8c6.7,11.6,13.4,23.2,20.1,34.8h-40.2C117.4,52.1,124.1,40.5,130.9,28.8z M114.9,61.3h31.9
					c-5.3-9.2-10.6-18.4-15.9-27.6C125.5,42.9,120.2,52.1,114.9,61.3C114.9,61.3,114.9,61.3,114.9,61.3z"/>
				<path class="st6" d="M114.9,61.3c5.3-9.2,10.6-18.4,15.9-27.6c5.3,9.2,10.6,18.4,15.9,27.6C146.8,61.3,114.9,61.3,114.9,61.3z
					 M129.8,46c-0.3-0.5-0.8-1-1.3-1.4c-0.1,0-0.2,0-0.2-0.1c0,0.1,0,0.2,0,0.3c0.2,0.5,0.2,1.1,0.1,1.7c-0.2,0.9-0.6,1.6-1.2,2.3
					c-0.5,0.6-1,1.2-1.5,1.8c-0.9,1.2-1.4,2.5-1.2,4c0.2,1.8,1.7,3.5,3.4,4c0.1,0,0.2,0,0.3,0c0-0.1,0-0.2-0.1-0.2
					c-0.9-2-0.7-3.9,0.7-5.5c0.5-0.6,1-1.3,1.3-2.1c0.1-0.3,0.2-0.5,0.3-0.9c0.1,0.2,0.3,0.3,0.4,0.4c0.6,1.1,0.8,2.2,0.4,3.5
					c0.7-0.1,1.1-0.5,1.5-0.9c0.6,1.2,0.8,2.5,0.6,3.8c-0.1,0.6-0.3,1.2-0.6,1.8c0,0.1-0.1,0.2,0,0.2c0,0,0.1,0,0.2,0
					c0.1,0,0.3-0.1,0.4-0.1c2.5-0.8,4.6-3.8,3.6-7c-0.4-1.3-1.2-2.5-2.1-3.5c-0.7-0.8-1.3-1.6-1.8-2.5c-0.6-1.1-0.8-2.2-0.3-3.5
					c0-0.1,0-0.2,0-0.2c-0.1,0-0.2,0-0.2,0.1c-1,0.7-1.7,1.5-2.1,2.6C130.1,44.8,130,45.4,129.8,46L129.8,46L129.8,46z"/>
				<path class="st7" d="M129.8,46c0.2-0.6,0.3-1.1,0.6-1.7c0.4-1.1,1.2-1.9,2.1-2.6c0.1,0,0.1,0,0.2-0.1c0,0.1,0,0.2,0,0.2
					c-0.5,1.2-0.3,2.3,0.3,3.5c0.5,0.9,1.2,1.7,1.8,2.5c0.9,1.1,1.7,2.2,2.1,3.5c1,3.3-1.1,6.3-3.6,7c-0.1,0-0.3,0.1-0.4,0.1
					c-0.1,0-0.2,0-0.2,0c0,0,0-0.1,0-0.2c0.3-0.6,0.5-1.1,0.6-1.8c0.2-1.3,0-2.6-0.6-3.8c-0.4,0.5-0.9,0.8-1.5,0.9
					c0.4-1.2,0.2-2.4-0.4-3.5c-0.1-0.2-0.2-0.3-0.4-0.4c-0.1,0.3-0.2,0.6-0.3,0.9c-0.3,0.8-0.8,1.4-1.3,2.1
					c-1.4,1.7-1.6,3.5-0.7,5.5c0,0.1,0,0.2,0.1,0.2c-0.1,0-0.2,0-0.3,0c-1.8-0.5-3.2-2.2-3.4-4c-0.2-1.5,0.3-2.8,1.2-4
					c0.5-0.6,1-1.2,1.5-1.8c0.6-0.7,1-1.5,1.2-2.3c0.1-0.6,0.1-1.1-0.1-1.7c0-0.1,0-0.2,0-0.3c0.1,0,0.2,0,0.2,0.1
					C129,44.9,129.5,45.4,129.8,46L129.8,46L129.8,46z"/>
			</g>
			<g id="ignition10">
				<path d="M314.6,88.1c6.7,11.6,13.4,23.2,20.1,34.8h-40.2C301.2,111.3,307.9,99.7,314.6,88.1L314.6,88.1z M298.7,120.5h31.9
					c-5.3-9.2-10.6-18.4-15.9-27.6C309.3,102.2,304,111.3,298.7,120.5L298.7,120.5z"/>
				<path class="st6" d="M298.7,120.5c5.3-9.2,10.6-18.4,15.9-27.6c5.3,9.2,10.6,18.4,15.9,27.6H298.7z M313.6,105.2
					c-0.3-0.5-0.8-1-1.3-1.4c-0.1-0.1-0.2-0.1-0.2-0.1c0,0.1,0,0.2,0,0.3c0.2,0.6,0.2,1.1,0.1,1.7c-0.2,0.9-0.6,1.6-1.2,2.3
					c-0.5,0.6-1,1.2-1.5,1.8c-0.9,1.2-1.4,2.5-1.2,4c0.2,1.8,1.6,3.5,3.4,3.9c0.1,0,0.2,0,0.3,0c0-0.1,0-0.2,0-0.2
					c-0.9-2-0.6-3.9,0.7-5.6c0.5-0.6,1-1.3,1.3-2.1c0.1-0.3,0.2-0.5,0.3-0.9c0.1,0.2,0.3,0.3,0.4,0.4c0.6,1.1,0.8,2.2,0.4,3.4
					c0.7-0.1,1.1-0.5,1.5-0.9c0.6,1.2,0.8,2.5,0.6,3.8c-0.1,0.6-0.3,1.2-0.6,1.8c0,0.1,0,0.2,0,0.2c0,0,0.1,0.1,0.2,0
					c0.1,0,0.3-0.1,0.4-0.1c2.5-0.8,4.6-3.8,3.6-7.1c-0.4-1.3-1.2-2.5-2.1-3.5c-0.7-0.8-1.3-1.6-1.8-2.5c-0.6-1.1-0.8-2.2-0.3-3.5
					c0-0.1,0-0.2,0-0.2c-0.1,0-0.2,0-0.2,0.1c-1,0.7-1.7,1.5-2.1,2.6C313.9,104.1,313.8,104.7,313.6,105.2L313.6,105.2L313.6,105.2z
					"/>
				<path class="st7" d="M313.6,105.2c0.2-0.6,0.3-1.1,0.5-1.7c0.4-1.1,1.2-1.9,2.1-2.6c0.1,0,0.1,0,0.2-0.1c0,0.1,0,0.2,0,0.2
					c-0.5,1.2-0.3,2.3,0.3,3.5c0.5,0.9,1.2,1.7,1.8,2.5c0.9,1.1,1.7,2.2,2.1,3.5c1,3.3-1.1,6.3-3.6,7.1c-0.1,0-0.3,0.1-0.4,0.1
					c-0.1,0-0.2,0-0.2,0c0,0,0-0.1,0-0.2c0.3-0.6,0.5-1.1,0.6-1.8c0.2-1.3,0-2.6-0.6-3.8c-0.4,0.5-0.9,0.8-1.5,0.9
					c0.4-1.2,0.2-2.4-0.4-3.4c-0.1-0.2-0.2-0.3-0.4-0.4c-0.1,0.3-0.2,0.6-0.3,0.9c-0.3,0.8-0.8,1.4-1.3,2.1
					c-1.4,1.7-1.6,3.6-0.7,5.6c0,0.1,0,0.2,0,0.2c-0.1,0-0.2,0-0.3,0c-1.8-0.4-3.2-2.2-3.4-3.9c-0.2-1.5,0.3-2.8,1.2-4
					c0.5-0.6,1-1.2,1.5-1.8c0.5-0.7,1-1.4,1.2-2.3c0.1-0.6,0.1-1.1-0.1-1.7c0-0.1,0-0.2,0-0.3c0.1,0,0.2,0,0.2,0.1
					C312.8,104.2,313.2,104.7,313.6,105.2L313.6,105.2L313.6,105.2z"/>
			</g>
			<g id="ignition09">
				<path d="M406.8,50c6.7,11.6,13.4,23.2,20.1,34.8h-40.2C393.4,73.3,400.1,61.7,406.8,50L406.8,50L406.8,50z M390.9,82.5h31.9
					c-5.3-9.2-10.6-18.4-15.9-27.6C401.5,64.1,396.2,73.2,390.9,82.5L390.9,82.5z"/>
				<path class="st6" d="M390.9,82.5c5.3-9.2,10.6-18.4,15.9-27.6c5.3,9.2,10.6,18.4,15.9,27.6H390.9z M405.8,67.2
					c-0.3-0.5-0.8-1-1.3-1.4c-0.1-0.1-0.2-0.1-0.2-0.1c0,0.1,0,0.2,0,0.3c0.2,0.6,0.2,1.1,0.1,1.7c-0.2,0.9-0.6,1.6-1.2,2.3
					c-0.5,0.6-1,1.2-1.5,1.8c-0.9,1.2-1.4,2.5-1.2,4c0.2,1.8,1.6,3.5,3.4,3.9c0.1,0,0.2,0,0.3,0c0-0.1,0-0.2,0-0.2
					c-0.9-2-0.6-3.9,0.7-5.6c0.5-0.6,1-1.3,1.3-2.1c0.1-0.3,0.2-0.5,0.3-0.9c0.1,0.2,0.3,0.3,0.4,0.4c0.6,1.1,0.8,2.2,0.4,3.4
					c0.7-0.1,1.1-0.5,1.5-0.9c0.6,1.2,0.8,2.5,0.6,3.8c-0.1,0.6-0.3,1.2-0.6,1.8c0,0.1,0,0.2,0,0.2c0,0,0.1,0.1,0.2,0
					c0.1,0,0.3-0.1,0.4-0.1c2.5-0.8,4.6-3.8,3.6-7.1c-0.4-1.3-1.2-2.5-2.1-3.5c-0.7-0.8-1.3-1.6-1.8-2.5c-0.6-1.1-0.8-2.2-0.3-3.5
					c0-0.1,0-0.2,0-0.2c-0.1,0-0.2,0-0.2,0.1c-1,0.7-1.7,1.5-2.1,2.6C406.1,66,405.9,66.6,405.8,67.2L405.8,67.2L405.8,67.2z"/>
				<path class="st7" d="M405.8,67.2c0.2-0.6,0.3-1.1,0.5-1.7c0.4-1.1,1.2-1.9,2.1-2.6c0.1,0,0.1,0,0.2-0.1c0,0.1,0,0.2,0,0.2
					c-0.5,1.2-0.3,2.4,0.3,3.5c0.5,0.9,1.2,1.7,1.8,2.5c0.9,1.1,1.7,2.2,2.1,3.5c1,3.3-1.1,6.3-3.6,7.1c-0.1,0-0.3,0.1-0.4,0.1
					c-0.1,0-0.2,0-0.2,0c0,0,0-0.1,0-0.2c0.3-0.6,0.5-1.1,0.6-1.8c0.2-1.3,0-2.6-0.6-3.8c-0.4,0.5-0.9,0.8-1.5,0.9
					c0.4-1.2,0.2-2.4-0.4-3.4c-0.1-0.2-0.2-0.3-0.4-0.4c-0.1,0.3-0.2,0.6-0.3,0.9c-0.3,0.8-0.8,1.4-1.3,2.1
					c-1.4,1.7-1.6,3.6-0.7,5.6c0,0.1,0,0.2,0,0.2c-0.1,0-0.2,0-0.3,0c-1.8-0.4-3.2-2.2-3.4-3.9c-0.2-1.5,0.3-2.8,1.2-4
					c0.5-0.6,1-1.2,1.5-1.8c0.5-0.7,1-1.4,1.2-2.3c0.1-0.6,0.1-1.1-0.1-1.7c0-0.1,0-0.2,0-0.3c0.1,0,0.2,0,0.2,0.1
					C405,66.1,405.4,66.6,405.8,67.2L405.8,67.2L405.8,67.2z"/>
			</g>
			<g id="ignition08">
				<path d="M354.6,131.4c6.7,11.6,13.4,23.2,20.1,34.8h-40.2C341.1,154.6,347.8,143,354.6,131.4L354.6,131.4z M338.6,163.8h31.9
					c-5.3-9.2-10.6-18.4-15.9-27.6C349.2,145.4,343.9,154.6,338.6,163.8L338.6,163.8z"/>
				<path class="st6" d="M338.6,163.8c5.3-9.2,10.6-18.4,15.9-27.6c5.3,9.2,10.6,18.4,15.9,27.6H338.6z M353.5,148.5
					c-0.3-0.5-0.8-1-1.3-1.4c-0.1-0.1-0.2-0.1-0.2-0.1c0,0.1,0,0.2,0,0.3c0.2,0.6,0.2,1.1,0.1,1.7c-0.2,0.9-0.6,1.6-1.2,2.3
					c-0.5,0.6-1,1.1-1.5,1.8c-0.9,1.2-1.4,2.5-1.2,4c0.2,1.8,1.6,3.5,3.4,3.9c0.1,0,0.2,0,0.3,0c0-0.1,0-0.2,0-0.2
					c-0.9-2-0.6-3.9,0.7-5.6c0.5-0.6,1-1.3,1.3-2.1c0.1-0.3,0.2-0.5,0.3-0.9c0.1,0.2,0.3,0.3,0.4,0.4c0.6,1.1,0.8,2.2,0.4,3.4
					c0.7-0.1,1.1-0.5,1.5-0.9c0.6,1.2,0.8,2.5,0.6,3.9c-0.1,0.6-0.3,1.2-0.6,1.8c0,0.1,0,0.2,0,0.2c0,0,0.1,0.1,0.2,0
					c0.1,0,0.3-0.1,0.4-0.1c2.5-0.8,4.6-3.8,3.6-7.1c-0.4-1.4-1.2-2.5-2.1-3.5c-0.7-0.8-1.3-1.6-1.8-2.5c-0.6-1.1-0.8-2.2-0.3-3.5
					c0-0.1,0-0.1,0-0.2c-0.1,0-0.2,0-0.2,0.1c-1,0.6-1.7,1.5-2.1,2.6C353.9,147.4,353.7,147.9,353.5,148.5L353.5,148.5L353.5,148.5z
					"/>
				<path class="st7" d="M353.5,148.5c0.2-0.6,0.3-1.1,0.5-1.6c0.4-1.1,1.2-1.9,2.1-2.6c0.1,0,0.1,0,0.2-0.1c0,0.1,0,0.2,0,0.2
					c-0.5,1.2-0.3,2.4,0.3,3.5c0.5,0.9,1.2,1.7,1.8,2.5c0.9,1.1,1.7,2.2,2.1,3.5c1,3.3-1.1,6.3-3.6,7.1c-0.1,0-0.3,0.1-0.4,0.1
					c-0.1,0-0.2,0-0.2,0c0,0,0-0.1,0-0.2c0.3-0.6,0.5-1.1,0.6-1.8c0.2-1.3,0-2.6-0.6-3.9c-0.4,0.5-0.9,0.8-1.5,0.9
					c0.4-1.2,0.2-2.4-0.4-3.4c-0.1-0.1-0.2-0.3-0.4-0.4c-0.1,0.3-0.2,0.6-0.3,0.9c-0.3,0.8-0.8,1.4-1.3,2.1
					c-1.4,1.7-1.6,3.6-0.7,5.6c0,0.1,0,0.2,0,0.2c-0.1,0-0.2,0-0.3,0c-1.8-0.4-3.2-2.1-3.4-3.9c-0.2-1.5,0.3-2.8,1.2-4
					c0.5-0.6,1-1.2,1.5-1.8c0.5-0.7,1-1.4,1.2-2.3c0.1-0.6,0.1-1.1-0.1-1.7c0-0.1,0-0.2,0-0.3c0.1,0,0.2,0,0.2,0.1
					C352.8,147.5,353.2,147.9,353.5,148.5L353.5,148.5L353.5,148.5z"/>
			</g>
			<g id="ignition07">
				<path d="M431.3,211.4c6.7,11.6,13.4,23.2,20.1,34.8h-40.2C417.9,234.6,424.6,223,431.3,211.4L431.3,211.4z M415.4,243.8h31.9
					c-5.3-9.2-10.6-18.4-15.9-27.6C426,225.4,420.7,234.6,415.4,243.8L415.4,243.8z"/>
				<path class="st6" d="M415.4,243.8c5.3-9.2,10.6-18.4,15.9-27.6c5.3,9.2,10.6,18.4,15.9,27.6H415.4z M430.3,228.5
					c-0.3-0.5-0.8-1-1.3-1.4c-0.1-0.1-0.2-0.1-0.2-0.1c0,0.1,0,0.2,0,0.3c0.2,0.6,0.2,1.1,0.1,1.7c-0.2,0.9-0.6,1.6-1.2,2.3
					c-0.5,0.6-1,1.1-1.5,1.8c-0.9,1.2-1.4,2.5-1.2,4c0.2,1.8,1.6,3.5,3.4,3.9c0.1,0,0.2,0,0.3,0c0-0.1,0-0.2,0-0.2
					c-0.9-2-0.6-3.9,0.7-5.6c0.5-0.6,1-1.3,1.3-2.1c0.1-0.3,0.2-0.5,0.3-0.9c0.1,0.2,0.3,0.3,0.4,0.4c0.6,1.1,0.8,2.2,0.4,3.4
					c0.7-0.1,1.1-0.5,1.5-0.9c0.6,1.2,0.8,2.5,0.6,3.9c-0.1,0.6-0.3,1.2-0.6,1.8c0,0.1,0,0.2,0,0.2c0,0,0.1,0.1,0.2,0
					c0.1,0,0.3-0.1,0.4-0.1c2.5-0.8,4.6-3.8,3.6-7.1c-0.4-1.4-1.2-2.5-2.1-3.5c-0.7-0.8-1.3-1.6-1.8-2.5c-0.6-1.1-0.8-2.2-0.3-3.5
					c0-0.1,0-0.1,0-0.2c-0.1,0-0.2,0-0.2,0.1c-1,0.6-1.7,1.5-2.1,2.6C430.6,227.4,430.4,228,430.3,228.5L430.3,228.5L430.3,228.5z"
					/>
				<path class="st7" d="M430.3,228.5c0.2-0.6,0.3-1.1,0.5-1.6c0.4-1.1,1.2-1.9,2.1-2.6c0.1,0,0.1,0,0.2-0.1c0,0.1,0,0.2,0,0.2
					c-0.5,1.2-0.3,2.4,0.3,3.5c0.5,0.9,1.2,1.7,1.8,2.5c0.9,1.1,1.7,2.2,2.1,3.5c1,3.3-1.1,6.3-3.6,7.1c-0.1,0-0.3,0.1-0.4,0.1
					c-0.1,0-0.2,0-0.2,0c0,0,0-0.1,0-0.2c0.3-0.6,0.5-1.1,0.6-1.8c0.2-1.3,0-2.6-0.6-3.9c-0.4,0.5-0.9,0.8-1.5,0.9
					c0.4-1.2,0.2-2.4-0.4-3.4c-0.1-0.1-0.2-0.3-0.4-0.4c-0.1,0.3-0.2,0.6-0.3,0.9c-0.3,0.8-0.8,1.4-1.3,2.1
					c-1.4,1.7-1.6,3.6-0.7,5.6c0,0.1,0,0.2,0,0.2c-0.1,0-0.2,0-0.3,0c-1.8-0.4-3.2-2.1-3.4-3.9c-0.2-1.5,0.3-2.8,1.2-4
					c0.5-0.6,1-1.2,1.5-1.8c0.5-0.7,1-1.4,1.2-2.3c0.1-0.6,0.1-1.1-0.1-1.7c0-0.1,0-0.2,0-0.3c0.1,0,0.2,0,0.2,0.1
					C429.5,227.5,429.9,228,430.3,228.5L430.3,228.5L430.3,228.5z"/>
			</g>
			<g id="ignition06">
				<path d="M360.9,184.7c6.7,11.6,13.4,23.2,20.1,34.8h-40.2C347.5,207.9,354.2,196.3,360.9,184.7L360.9,184.7z M345,217.1h31.9
					c-5.3-9.2-10.6-18.4-15.9-27.6C355.6,198.7,350.3,207.9,345,217.1L345,217.1z"/>
				<path class="st6" d="M345,217.1c5.3-9.2,10.6-18.4,15.9-27.6c5.3,9.2,10.6,18.4,15.9,27.6H345z M359.9,201.8
					c-0.3-0.5-0.8-1-1.3-1.4c-0.1-0.1-0.2-0.1-0.2-0.1c0,0.1,0,0.2,0,0.3c0.2,0.6,0.2,1.1,0.1,1.7c-0.2,0.9-0.6,1.6-1.2,2.3
					c-0.5,0.6-1,1.1-1.5,1.8c-0.9,1.2-1.4,2.5-1.2,4c0.2,1.8,1.6,3.5,3.4,3.9c0.1,0,0.2,0,0.3,0c0-0.1,0-0.2,0-0.2
					c-0.9-2-0.6-3.9,0.7-5.6c0.5-0.6,1-1.3,1.3-2.1c0.1-0.3,0.2-0.5,0.3-0.9c0.1,0.2,0.3,0.3,0.4,0.4c0.6,1.1,0.8,2.2,0.4,3.4
					c0.7-0.1,1.1-0.5,1.5-0.9c0.6,1.2,0.8,2.5,0.6,3.9c-0.1,0.6-0.3,1.2-0.6,1.8c0,0.1,0,0.2,0,0.2c0,0,0.1,0.1,0.2,0
					c0.1,0,0.3-0.1,0.4-0.1c2.5-0.8,4.6-3.8,3.6-7.1c-0.4-1.4-1.2-2.5-2.1-3.5c-0.7-0.8-1.3-1.6-1.8-2.5c-0.6-1.1-0.8-2.2-0.3-3.5
					c0-0.1,0-0.1,0-0.2c-0.1,0-0.2,0-0.2,0.1c-1,0.6-1.7,1.5-2.1,2.6C360.2,200.7,360.1,201.3,359.9,201.8L359.9,201.8L359.9,201.8z
					"/>
				<path class="st7" d="M359.9,201.8c0.2-0.6,0.3-1.1,0.5-1.6c0.4-1.1,1.2-1.9,2.1-2.6c0.1,0,0.1,0,0.2-0.1c0,0.1,0,0.2,0,0.2
					c-0.5,1.2-0.3,2.4,0.3,3.5c0.5,0.9,1.2,1.7,1.8,2.5c0.9,1.1,1.7,2.2,2.1,3.5c1,3.3-1.1,6.3-3.6,7.1c-0.1,0-0.3,0.1-0.4,0.1
					c-0.1,0-0.2,0-0.2,0c0,0,0-0.1,0-0.2c0.3-0.6,0.5-1.1,0.6-1.8c0.2-1.3,0-2.6-0.6-3.9c-0.4,0.5-0.9,0.8-1.5,0.9
					c0.4-1.2,0.2-2.4-0.4-3.4c-0.1-0.1-0.2-0.3-0.4-0.4c-0.1,0.3-0.2,0.6-0.3,0.9c-0.3,0.8-0.8,1.4-1.3,2.1
					c-1.4,1.7-1.6,3.6-0.7,5.6c0,0.1,0,0.2,0,0.2c-0.1,0-0.2,0-0.3,0c-1.8-0.4-3.2-2.1-3.4-3.9c-0.2-1.5,0.3-2.8,1.2-4
					c0.5-0.6,1-1.2,1.5-1.8c0.5-0.7,1-1.4,1.2-2.3c0.1-0.6,0.1-1.1-0.1-1.7c0-0.1,0-0.2,0-0.3c0.1,0,0.2,0,0.2,0.1
					C359.1,200.8,359.6,201.3,359.9,201.8L359.9,201.8L359.9,201.8z"/>
			</g>
			<g id="ignition05">
				<path d="M499,127.1c6.7,11.6,13.4,23.2,20.1,34.8h-40.2C485.6,150.3,492.3,138.7,499,127.1L499,127.1L499,127.1z M483.1,159.5
					H515c-5.3-9.2-10.6-18.4-15.9-27.6C493.7,141.1,488.4,150.3,483.1,159.5L483.1,159.5L483.1,159.5z"/>
				<path class="st6" d="M483.1,159.5c5.3-9.2,10.6-18.4,15.9-27.6c5.3,9.2,10.6,18.4,15.9,27.6H483.1z M498,144.2
					c-0.3-0.5-0.8-1-1.3-1.4c-0.1-0.1-0.2-0.1-0.2-0.1c0,0.1,0,0.2,0,0.3c0.2,0.6,0.2,1.1,0.1,1.7c-0.2,0.9-0.6,1.6-1.2,2.3
					c-0.5,0.6-1,1.1-1.5,1.8c-0.9,1.2-1.4,2.5-1.2,4c0.2,1.8,1.6,3.5,3.4,3.9c0.1,0,0.2,0,0.3,0c0-0.1,0-0.2,0-0.2
					c-0.9-2-0.6-3.9,0.7-5.6c0.5-0.6,1-1.3,1.3-2.1c0.1-0.3,0.2-0.5,0.3-0.9c0.1,0.2,0.3,0.3,0.4,0.4c0.6,1.1,0.8,2.2,0.4,3.4
					c0.7-0.1,1.1-0.5,1.5-0.9c0.6,1.2,0.8,2.5,0.6,3.9c-0.1,0.6-0.3,1.2-0.6,1.8c0,0.1,0,0.2,0,0.2c0,0,0.1,0.1,0.2,0
					c0.1,0,0.3-0.1,0.4-0.1c2.5-0.8,4.6-3.8,3.6-7.1c-0.4-1.4-1.2-2.5-2.1-3.5c-0.7-0.8-1.3-1.6-1.8-2.5c-0.6-1.1-0.8-2.2-0.3-3.5
					c0-0.1,0-0.1,0-0.2c-0.1,0-0.2,0-0.2,0.1c-1,0.6-1.7,1.5-2.1,2.6C498.3,143.1,498.2,143.7,498,144.2L498,144.2L498,144.2z"/>
				<path class="st7" d="M498,144.2c0.2-0.6,0.3-1.1,0.5-1.6c0.4-1.1,1.2-1.9,2.1-2.6c0.1,0,0.1,0,0.2-0.1c0,0.1,0,0.2,0,0.2
					c-0.5,1.2-0.3,2.4,0.3,3.5c0.5,0.9,1.2,1.7,1.8,2.5c0.9,1.1,1.7,2.2,2.1,3.5c1,3.3-1.1,6.3-3.6,7.1c-0.1,0-0.3,0.1-0.4,0.1
					c-0.1,0-0.2,0-0.2,0c0,0,0-0.1,0-0.2c0.3-0.6,0.5-1.1,0.6-1.8c0.2-1.3,0-2.6-0.6-3.9c-0.4,0.5-0.9,0.8-1.5,0.9
					c0.4-1.2,0.2-2.4-0.4-3.4c-0.1-0.1-0.2-0.3-0.4-0.4c-0.1,0.3-0.2,0.6-0.3,0.9c-0.3,0.8-0.8,1.4-1.3,2.1
					c-1.4,1.7-1.6,3.6-0.7,5.6c0,0.1,0,0.2,0,0.2c-0.1,0-0.2,0-0.3,0c-1.8-0.4-3.2-2.1-3.4-3.9c-0.2-1.5,0.3-2.8,1.2-4
					c0.5-0.6,1-1.2,1.5-1.8c0.5-0.7,1-1.4,1.2-2.3c0.1-0.6,0.1-1.1-0.1-1.7c0-0.1,0-0.2,0-0.3c0.1,0,0.2,0,0.2,0.1
					C497.2,143.2,497.7,143.7,498,144.2L498,144.2L498,144.2z"/>
			</g>
			<g id="ignition04">
				<path d="M228.8,148.8c6.7,11.6,13.4,23.2,20.1,34.8h-40.2C215.4,172,222.1,160.4,228.8,148.8z M212.9,181.2h31.9
					c-5.3-9.2-10.6-18.4-15.9-27.6C223.5,162.8,218.2,172,212.9,181.2L212.9,181.2L212.9,181.2z"/>
				<path class="st6" d="M212.9,181.2c5.3-9.2,10.6-18.4,15.9-27.6c5.3,9.2,10.6,18.4,15.9,27.6H212.9z M227.8,165.9
					c-0.3-0.5-0.8-1-1.3-1.4c-0.1-0.1-0.2-0.1-0.2-0.1c0,0.1,0,0.2,0,0.3c0.2,0.6,0.2,1.1,0.1,1.7c-0.2,0.9-0.6,1.6-1.2,2.3
					c-0.5,0.6-1,1.1-1.5,1.8c-0.9,1.2-1.4,2.5-1.2,4c0.2,1.8,1.6,3.5,3.4,3.9c0.1,0,0.2,0,0.3,0c0-0.1,0-0.2-0.1-0.2
					c-0.9-2-0.6-3.9,0.7-5.6c0.5-0.6,1-1.3,1.3-2.1c0.1-0.3,0.2-0.5,0.3-0.9c0.1,0.2,0.3,0.3,0.4,0.4c0.6,1.1,0.8,2.2,0.4,3.4
					c0.7-0.1,1.1-0.5,1.5-0.9c0.6,1.2,0.8,2.5,0.6,3.9c-0.1,0.6-0.3,1.2-0.6,1.8c0,0.1-0.1,0.2,0,0.2c0,0,0.1,0.1,0.2,0
					c0.1,0,0.3-0.1,0.4-0.1c2.5-0.8,4.6-3.8,3.6-7.1c-0.4-1.4-1.2-2.5-2.1-3.5c-0.7-0.8-1.3-1.6-1.8-2.5c-0.6-1.1-0.8-2.2-0.3-3.5
					c0-0.1,0-0.1,0-0.2c-0.1,0-0.2,0-0.2,0.1c-1,0.6-1.7,1.5-2.1,2.6C228.1,164.8,228,165.3,227.8,165.9L227.8,165.9L227.8,165.9z"
					/>
				<path class="st7" d="M227.8,165.9c0.2-0.6,0.3-1.1,0.6-1.6c0.4-1.1,1.2-1.9,2.1-2.6c0.1,0,0.1,0,0.2-0.1c0,0.1,0,0.2,0,0.2
					c-0.5,1.2-0.3,2.4,0.3,3.5c0.5,0.9,1.2,1.7,1.8,2.5c0.9,1.1,1.7,2.2,2.1,3.5c1,3.3-1.1,6.3-3.6,7.1c-0.1,0-0.3,0.1-0.4,0.1
					c-0.1,0-0.2,0-0.2,0c0,0,0-0.1,0-0.2c0.3-0.6,0.5-1.1,0.6-1.8c0.2-1.3,0-2.6-0.6-3.9c-0.4,0.5-0.9,0.8-1.5,0.9
					c0.4-1.2,0.2-2.4-0.4-3.4c-0.1-0.1-0.2-0.3-0.4-0.4c-0.1,0.3-0.2,0.6-0.3,0.9c-0.3,0.8-0.8,1.4-1.3,2.1
					c-1.4,1.7-1.6,3.6-0.7,5.6c0,0.1,0,0.2,0.1,0.2c-0.1,0-0.2,0-0.3,0c-1.8-0.4-3.2-2.1-3.4-3.9c-0.2-1.5,0.3-2.8,1.2-4
					c0.5-0.6,1-1.2,1.5-1.8c0.6-0.7,1-1.4,1.2-2.3c0.1-0.6,0.1-1.1-0.1-1.7c0-0.1,0-0.2,0-0.3c0.1,0,0.2,0,0.2,0.1
					C227,164.9,227.5,165.3,227.8,165.9L227.8,165.9L227.8,165.9z"/>
			</g>
			<g id="ignition03">
				<path d="M235.2,262.3c6.7,11.6,13.4,23.2,20.1,34.8h-40.2C221.8,285.6,228.5,274,235.2,262.3z M219.2,294.8h31.9
					c-5.3-9.2-10.6-18.4-15.9-27.6C229.9,276.4,224.6,285.5,219.2,294.8L219.2,294.8L219.2,294.8z"/>
				<path class="st6" d="M219.2,294.8c5.3-9.2,10.6-18.4,15.9-27.6c5.3,9.2,10.6,18.4,15.9,27.6H219.2z M234.2,279.4
					c-0.3-0.5-0.8-1-1.3-1.4c-0.1,0-0.2,0-0.2-0.1c0,0.1,0,0.2,0,0.3c0.2,0.5,0.2,1.1,0.1,1.7c-0.2,0.9-0.6,1.6-1.2,2.3
					c-0.5,0.6-1,1.1-1.5,1.8c-0.9,1.2-1.4,2.5-1.2,4c0.2,1.8,1.6,3.5,3.4,4c0.1,0,0.2,0,0.3,0c0-0.1,0-0.2-0.1-0.2
					c-0.9-2-0.6-3.9,0.7-5.5c0.5-0.6,1-1.3,1.3-2.1c0.1-0.3,0.2-0.5,0.3-0.9c0.1,0.2,0.3,0.3,0.4,0.4c0.6,1.1,0.8,2.2,0.4,3.5
					c0.7-0.1,1.1-0.5,1.5-0.9c0.6,1.2,0.8,2.5,0.6,3.9c-0.1,0.6-0.3,1.2-0.6,1.8c0,0.1-0.1,0.2,0,0.2c0,0,0.1,0,0.2,0
					c0.1,0,0.3-0.1,0.4-0.1c2.5-0.8,4.6-3.8,3.6-7c-0.4-1.4-1.2-2.5-2.1-3.5c-0.7-0.8-1.3-1.6-1.8-2.5c-0.6-1.1-0.8-2.2-0.3-3.5
					c0-0.1,0-0.1,0-0.2c-0.1,0-0.2,0-0.2,0.1c-1,0.6-1.7,1.5-2.1,2.6C234.5,278.3,234.3,278.9,234.2,279.4L234.2,279.4L234.2,279.4z
					"/>
				<path class="st7" d="M234.2,279.4c0.2-0.6,0.3-1.1,0.6-1.6c0.4-1.1,1.2-1.9,2.1-2.6c0.1,0,0.1,0,0.2-0.1c0,0.1,0,0.2,0,0.2
					c-0.5,1.2-0.3,2.4,0.3,3.5c0.5,0.9,1.2,1.7,1.8,2.5c0.9,1.1,1.7,2.2,2.1,3.5c1,3.3-1.1,6.3-3.6,7c-0.1,0-0.3,0.1-0.4,0.1
					c-0.1,0-0.2,0-0.2,0c0,0,0-0.1,0-0.2c0.3-0.6,0.5-1.1,0.6-1.8c0.2-1.3,0-2.6-0.6-3.9c-0.4,0.5-0.9,0.8-1.5,0.9
					c0.4-1.2,0.2-2.4-0.4-3.5c-0.1-0.1-0.2-0.3-0.4-0.4c-0.1,0.3-0.2,0.6-0.3,0.9c-0.3,0.8-0.8,1.4-1.3,2.1
					c-1.4,1.7-1.6,3.5-0.7,5.5c0,0.1,0,0.2,0.1,0.2c-0.1,0-0.2,0-0.3,0c-1.8-0.5-3.2-2.1-3.4-4c-0.2-1.5,0.3-2.8,1.2-4
					c0.5-0.6,1-1.2,1.5-1.8c0.6-0.7,1-1.5,1.2-2.3c0.1-0.6,0.1-1.1-0.1-1.7c0-0.1,0-0.2,0-0.3c0.1,0,0.2,0,0.2,0.1
					C233.4,278.4,233.8,278.9,234.2,279.4L234.2,279.4L234.2,279.4z"/>
			</g>
			<g id="ignition02">
				<path d="M518,330c6.7,11.6,13.4,23.2,20.1,34.8h-40.2C504.6,353.2,511.2,341.6,518,330L518,330L518,330z M502,362.4h31.9
					c-5.3-9.2-10.6-18.4-15.9-27.6C512.6,344,507.3,353.2,502,362.4L502,362.4z"/>
				<path class="st6" d="M502,362.4c5.3-9.2,10.6-18.4,15.9-27.6c5.3,9.2,10.6,18.4,15.9,27.6H502L502,362.4z M517,347.1
					c-0.3-0.5-0.8-1-1.3-1.4c-0.1,0-0.2,0-0.2-0.1c0,0.1,0,0.2,0,0.3c0.2,0.5,0.2,1.1,0.1,1.7c-0.2,0.9-0.6,1.6-1.2,2.3
					c-0.5,0.6-1,1.1-1.5,1.8c-0.9,1.2-1.4,2.5-1.2,4c0.2,1.8,1.6,3.5,3.4,4c0.1,0,0.2,0,0.3,0c0-0.1,0-0.2,0-0.2
					c-0.9-2-0.7-3.9,0.7-5.5c0.5-0.6,1-1.3,1.3-2.1c0.1-0.3,0.2-0.5,0.3-0.9c0.1,0.2,0.3,0.3,0.4,0.4c0.6,1.1,0.8,2.2,0.4,3.5
					c0.7-0.1,1.1-0.5,1.5-0.9c0.6,1.2,0.8,2.5,0.6,3.9c-0.1,0.6-0.3,1.2-0.6,1.8c0,0.1,0,0.2,0,0.2c0,0,0.1,0,0.2,0
					c0.1,0,0.3-0.1,0.4-0.1c2.5-0.8,4.6-3.8,3.6-7c-0.4-1.4-1.2-2.5-2.1-3.5c-0.7-0.8-1.3-1.6-1.8-2.5c-0.6-1.1-0.8-2.2-0.3-3.5
					c0-0.1,0-0.1,0-0.2c-0.1,0-0.2,0-0.2,0.1c-1,0.6-1.7,1.5-2.1,2.6C517.3,346,517.1,346.6,517,347.1L517,347.1L517,347.1z"/>
				<path class="st7" d="M517,347.1c0.2-0.6,0.3-1.1,0.5-1.6c0.4-1.1,1.2-1.9,2.1-2.6c0.1,0,0.2,0,0.2-0.1c0,0.1,0,0.2,0,0.2
					c-0.5,1.2-0.3,2.4,0.3,3.5c0.5,0.9,1.2,1.7,1.8,2.5c0.9,1.1,1.7,2.2,2.1,3.5c1,3.3-1.1,6.3-3.6,7c-0.1,0-0.3,0.1-0.4,0.1
					c-0.1,0-0.2,0-0.2,0c0,0,0-0.1,0-0.2c0.3-0.6,0.5-1.1,0.6-1.8c0.2-1.3,0-2.6-0.6-3.9c-0.4,0.5-0.9,0.8-1.5,0.9
					c0.4-1.2,0.2-2.4-0.4-3.5c-0.1-0.1-0.2-0.3-0.4-0.4c-0.1,0.3-0.2,0.6-0.3,0.9c-0.3,0.8-0.8,1.4-1.3,2.1
					c-1.4,1.7-1.6,3.5-0.7,5.5c0,0.1,0,0.2,0,0.2c-0.1,0-0.2,0-0.3,0c-1.8-0.5-3.2-2.1-3.4-4c-0.2-1.5,0.3-2.8,1.2-4
					c0.5-0.6,1-1.2,1.5-1.8c0.5-0.7,1-1.5,1.2-2.3c0.1-0.6,0.1-1.1-0.1-1.7c0-0.1,0-0.2,0-0.3c0.1,0,0.2,0,0.2,0.1
					C516.2,346.1,516.6,346.5,517,347.1L517,347.1L517,347.1z"/>
			</g>
			<g id="ignition01">
				<path d="M495.5,249.7c6.7,11.6,13.4,23.2,20.1,34.8h-40.2C482.1,273,488.8,261.4,495.5,249.7L495.5,249.7L495.5,249.7z
					 M479.6,282.2h31.9c-5.3-9.2-10.6-18.4-15.9-27.6C490.2,263.8,484.9,273,479.6,282.2L479.6,282.2z"/>
				<path class="st6" d="M479.6,282.2c5.3-9.2,10.6-18.4,15.9-27.6c5.3,9.2,10.6,18.4,15.9,27.6H479.6z M494.5,266.9
					c-0.3-0.5-0.8-1-1.3-1.4c-0.1,0-0.2,0-0.2-0.1c0,0.1,0,0.2,0,0.3c0.2,0.5,0.2,1.1,0.1,1.7c-0.2,0.9-0.6,1.6-1.2,2.3
					c-0.5,0.6-1,1.1-1.5,1.8c-0.9,1.2-1.4,2.5-1.2,4c0.2,1.8,1.6,3.5,3.4,4c0.1,0,0.2,0,0.3,0c0-0.1,0-0.2,0-0.2
					c-0.9-2-0.6-3.9,0.7-5.5c0.5-0.6,1-1.3,1.3-2.1c0.1-0.3,0.2-0.5,0.3-0.9c0.1,0.2,0.3,0.3,0.4,0.4c0.6,1.1,0.8,2.2,0.4,3.5
					c0.7-0.1,1.1-0.5,1.5-0.9c0.6,1.2,0.8,2.5,0.6,3.9c-0.1,0.6-0.3,1.2-0.6,1.8c0,0.1,0,0.2,0,0.2c0,0,0.1,0,0.2,0
					c0.1,0,0.3-0.1,0.4-0.1c2.5-0.8,4.6-3.8,3.6-7c-0.4-1.4-1.2-2.5-2.1-3.5c-0.7-0.8-1.3-1.6-1.8-2.5c-0.6-1.1-0.8-2.2-0.3-3.5
					c0-0.1,0-0.1,0-0.2c-0.1,0-0.2,0-0.2,0.1c-1,0.6-1.7,1.5-2.1,2.6C494.8,265.7,494.7,266.3,494.5,266.9L494.5,266.9L494.5,266.9z
					"/>
				<path class="st7" d="M494.5,266.9c0.2-0.6,0.3-1.1,0.5-1.6c0.4-1.1,1.2-1.9,2.1-2.6c0.1,0,0.1,0,0.2-0.1c0,0.1,0,0.2,0,0.2
					c-0.5,1.2-0.3,2.4,0.3,3.5c0.5,0.9,1.2,1.7,1.8,2.5c0.9,1.1,1.7,2.2,2.1,3.5c1,3.3-1.1,6.3-3.6,7c-0.1,0-0.3,0.1-0.4,0.1
					c-0.1,0-0.2,0-0.2,0c0,0,0-0.1,0-0.2c0.3-0.6,0.5-1.1,0.6-1.8c0.2-1.3,0-2.6-0.6-3.9c-0.4,0.5-0.9,0.8-1.5,0.9
					c0.4-1.2,0.2-2.4-0.4-3.5c-0.1-0.1-0.2-0.3-0.4-0.4c-0.1,0.3-0.2,0.6-0.3,0.9c-0.3,0.8-0.8,1.4-1.3,2.1
					c-1.4,1.7-1.6,3.5-0.7,5.5c0,0.1,0,0.2,0,0.2c-0.1,0-0.2,0-0.3,0c-1.8-0.5-3.2-2.1-3.4-4c-0.2-1.5,0.3-2.8,1.2-4
					c0.5-0.6,1-1.2,1.5-1.8c0.5-0.7,1-1.5,1.2-2.3c0.1-0.6,0.1-1.1-0.1-1.7c0-0.1,0-0.2,0-0.3c0.1,0,0.2,0,0.2,0.1
					C493.7,265.8,494.2,266.3,494.5,266.9L494.5,266.9L494.5,266.9z"/>
			</g>
		</g>
		<g id="water_x5F_leakage">
			<g id="water_x5F_leakage05">
				
					<ellipse transform="matrix(3.332968e-02 -0.9994 0.9994 3.332968e-02 -276.5243 303.629)" class="st8" cx="18.7" cy="294.8" rx="18.2" ry="18.2"/>
				<g>
					<path class="st9" d="M15.2,294.1h-2.9c-0.2,0-0.4,0-0.6,0.1c-0.3,0.1-0.4,0.2-0.5,0.5c0,0.2,0,0.3,0,0.5c0,0.5,0,0.9,0,1.4
						c-0.1,0.9-0.8,1.7-1.6,1.9c-1.3,0.4-2.7-0.5-2.9-1.8c-0.1-0.5,0-1,0-1.6c0-0.9,0.2-1.7,0.5-2.5c0.7-1.5,1.8-2.4,3.4-2.8
						c0.6-0.1,1.1-0.2,1.7-0.2c2.1,0,4.2,0,6.2,0c0.1,0,0.1,0,0.2-0.1c0.7-1.2,1.7-2,2.9-2.4c0.1,0,0.1-0.1,0.1-0.2v-0.5
						c0-0.1,0-0.1-0.1-0.1c-0.6,0-1.2,0-1.9,0c-0.9,0-1.7-0.6-1.9-1.6c-0.2-1.1,0.6-1.9,1.5-2.1c0.1,0,0.2,0,0.4,0h2
						c0.1,0,0.1,0,0.2-0.1c0.2-0.6,0.8-0.9,1.4-0.9s1.1,0.4,1.4,0.9c0,0.1,0.1,0.1,0.1,0.1h2c1,0,1.9,0.9,1.8,1.9
						c0,0.8-0.6,1.6-1.6,1.7c-0.1,0-0.2,0-0.3,0h-1.9c-0.1,0-0.1,0-0.1,0.1v0.5c0,0.1,0,0.1,0.1,0.1c1.3,0.4,2.3,1.2,3,2.4
						c0,0.1,0.1,0.1,0.2,0.1h2.7c0.1,0,0.1,0,0.1,0.1v4.3c0,0.1,0,0.1-0.1,0.1h-2.4c-0.1,0-0.1,0-0.2,0.1c-0.8,1.6-2,2.6-3.7,3
						c-1.8,0.4-3.4-0.1-4.7-1.3c-0.5-0.5-0.9-1-1.2-1.7c0-0.1-0.1-0.1-0.1-0.1L15.2,294.1L15.2,294.1L15.2,294.1z"/>
					<path class="st9" d="M9,299.3c0.5,1,0.9,2,1.3,3.1c0.3,0.9,0.7,1.7,0.9,2.6c0.4,1.4-0.5,2.6-1.8,2.9c-1.3,0.3-2.5-0.6-2.8-1.9
						c-0.1-0.5,0-0.9,0.2-1.4c0.4-1.2,0.8-2.4,1.3-3.5c0.2-0.6,0.5-1.1,0.7-1.7C9,299.4,9,299.4,9,299.3L9,299.3L9,299.3z"/>
				</g>
			</g>
			<g id="water_x5F_leakage04">
				<circle class="st8" cx="392.9" cy="351.8" r="18.2"/>
				<g>
					<path class="st9" d="M389.4,351.1h-2.9c-0.2,0-0.4,0-0.6,0.1c-0.3,0.1-0.4,0.2-0.5,0.5c0,0.2,0,0.3,0,0.5c0,0.5,0,0.9,0,1.4
						c-0.1,0.9-0.8,1.7-1.6,1.9c-1.3,0.4-2.7-0.5-2.9-1.8c-0.1-0.5,0-1,0-1.6c0-0.9,0.2-1.7,0.5-2.5c0.7-1.5,1.8-2.4,3.4-2.8
						c0.6-0.1,1.1-0.2,1.7-0.2c2.1,0,4.2,0,6.2,0c0.1,0,0.1,0,0.2-0.1c0.7-1.2,1.7-2,2.9-2.4c0.1,0,0.1-0.1,0.1-0.2v-0.5
						c0-0.1,0-0.1-0.1-0.1c-0.6,0-1.2,0-1.9,0c-0.9,0-1.7-0.6-1.9-1.6c-0.2-1.1,0.6-1.9,1.5-2.1c0.1,0,0.2,0,0.4,0h2
						c0.1,0,0.1,0,0.2-0.1c0.2-0.6,0.8-0.9,1.4-0.9s1.1,0.4,1.4,0.9c0,0.1,0.1,0.1,0.1,0.1h2c1,0,1.9,0.9,1.8,1.9
						c0,0.8-0.6,1.6-1.6,1.7c-0.1,0-0.2,0-0.3,0h-1.9c-0.1,0-0.1,0-0.1,0.1v0.5c0,0.1,0,0.1,0.1,0.1c1.3,0.4,2.3,1.2,3,2.4
						c0,0.1,0.1,0.1,0.2,0.1h2.7c0.1,0,0.1,0,0.1,0.1v4.3c0,0.1,0,0.1-0.1,0.1h-2.4c-0.1,0-0.1,0-0.2,0.1c-0.8,1.6-2,2.6-3.7,3
						c-1.8,0.4-3.4-0.1-4.7-1.3c-0.5-0.5-0.9-1-1.2-1.7c0-0.1-0.1-0.1-0.1-0.1L389.4,351.1L389.4,351.1L389.4,351.1z"/>
					<path class="st9" d="M383.2,356.4c0.5,1,0.9,2,1.3,3.1c0.3,0.9,0.7,1.7,0.9,2.6c0.4,1.4-0.5,2.6-1.8,2.9
						c-1.3,0.3-2.5-0.6-2.8-1.9c-0.1-0.5,0-0.9,0.1-1.4c0.4-1.2,0.8-2.4,1.3-3.5c0.2-0.6,0.5-1.1,0.7-1.7
						C383.2,356.5,383.2,356.5,383.2,356.4L383.2,356.4L383.2,356.4z"/>
				</g>
			</g>
			<g id="water_x5F_leakage02">
				<circle class="st8" cx="478.9" cy="215.4" r="18.2"/>
				<g>
					<path class="st9" d="M475.5,214.7h-2.9c-0.2,0-0.4,0-0.6,0.1c-0.3,0.1-0.4,0.2-0.5,0.6c0,0.2,0,0.3,0,0.5c0,0.4,0,0.9,0,1.4
						c-0.1,0.9-0.8,1.7-1.6,1.9c-1.3,0.4-2.7-0.5-2.9-1.8c-0.1-0.5,0-1,0-1.6c0-0.9,0.2-1.7,0.5-2.5c0.7-1.5,1.8-2.4,3.4-2.8
						c0.6-0.1,1.1-0.2,1.7-0.2c2.1,0,4.2,0,6.2,0c0.1,0,0.1,0,0.2-0.1c0.7-1.2,1.7-2,2.9-2.4c0.1,0,0.1-0.1,0.1-0.2v-0.5
						c0-0.1,0-0.1-0.1-0.1c-0.6,0-1.2,0-1.9,0c-0.9,0-1.7-0.6-1.9-1.6c-0.2-1.1,0.6-1.9,1.5-2.1c0.1,0,0.2,0,0.4,0h2
						c0.1,0,0.1,0,0.2-0.1c0.2-0.6,0.8-0.9,1.4-0.9s1.1,0.4,1.4,0.9c0,0.1,0.1,0.1,0.1,0.1h2c1,0,1.9,0.9,1.8,1.9
						c0,0.8-0.6,1.6-1.6,1.7c-0.1,0-0.2,0-0.3,0h-1.9c-0.1,0-0.1,0-0.1,0.1v0.6c0,0.1,0,0.1,0.1,0.1c1.3,0.4,2.3,1.2,3,2.4
						c0,0.1,0.1,0.1,0.2,0.1h2.7c0.1,0,0.1,0,0.1,0.1v4.3c0,0.1,0,0.1-0.1,0.1h-2.4c-0.1,0-0.1,0-0.2,0.1c-0.8,1.6-2,2.6-3.7,3
						c-1.8,0.4-3.4-0.1-4.7-1.3c-0.5-0.5-0.9-1.1-1.2-1.7c0-0.1-0.1-0.1-0.1-0.1L475.5,214.7L475.5,214.7L475.5,214.7z"/>
					<path class="st9" d="M469.2,219.9c0.5,1,0.9,2.1,1.3,3.1c0.3,0.9,0.7,1.7,0.9,2.6c0.4,1.4-0.5,2.6-1.8,2.9
						c-1.3,0.3-2.5-0.6-2.8-1.9c-0.1-0.5,0-0.9,0.1-1.4c0.4-1.2,0.8-2.4,1.3-3.5c0.2-0.6,0.5-1.1,0.7-1.7
						C469.2,220.1,469.2,220,469.2,219.9L469.2,219.9L469.2,219.9z"/>
				</g>
			</g>
			<g id="water_x5F_leakage01">
				<circle class="st8" cx="198" cy="63.7" r="18.2"/>
				<g>
					<path class="st9" d="M194.5,63h-2.9c-0.2,0-0.4,0-0.6,0.1c-0.3,0.1-0.4,0.2-0.5,0.5c0,0.2,0,0.3,0,0.5c0,0.4,0,0.9,0,1.4
						c-0.1,0.9-0.8,1.7-1.6,1.9c-1.3,0.4-2.7-0.5-2.9-1.8c-0.1-0.5,0-1,0-1.6c0-0.9,0.2-1.7,0.5-2.5c0.7-1.5,1.8-2.4,3.4-2.8
						c0.6-0.2,1.1-0.2,1.7-0.2c2.1,0,4.2,0,6.2,0c0.1,0,0.1,0,0.2-0.1c0.7-1.2,1.7-2,2.9-2.4c0.1,0,0.1-0.1,0.1-0.2v-0.5
						c0-0.1,0-0.1-0.1-0.1c-0.6,0-1.2,0-1.9,0c-0.9,0-1.7-0.6-1.9-1.6c-0.2-1.1,0.6-1.9,1.5-2.1c0.1,0,0.2,0,0.4,0h1.9
						c0.1,0,0.1,0,0.2-0.1c0.2-0.6,0.8-0.9,1.4-0.9s1.1,0.4,1.4,0.9c0,0.1,0.1,0.1,0.1,0.1h2c1,0,1.9,0.9,1.8,1.9
						c0,0.8-0.6,1.6-1.6,1.7c-0.1,0-0.2,0-0.3,0h-1.9c-0.1,0-0.1,0-0.1,0.1v0.5c0,0.1,0,0.1,0.1,0.1c1.3,0.4,2.3,1.2,3,2.4
						c0,0.1,0.1,0.1,0.2,0.1h2.7c0.1,0,0.1,0,0.1,0.2v4.3c0,0.1,0,0.1-0.1,0.1h-2.4c-0.1,0-0.1,0-0.2,0.1c-0.8,1.6-2,2.6-3.7,3
						c-1.8,0.4-3.4-0.1-4.7-1.3c-0.5-0.5-0.9-1-1.2-1.7c0-0.1-0.1-0.1-0.1-0.1L194.5,63L194.5,63L194.5,63z"/>
					<path class="st9" d="M188.3,68.3c0.5,1,0.9,2.1,1.3,3.1c0.3,0.9,0.7,1.7,0.9,2.6c0.4,1.4-0.5,2.6-1.8,2.9
						c-1.3,0.3-2.5-0.6-2.8-1.8c-0.1-0.5,0-0.9,0.1-1.4c0.4-1.2,0.8-2.4,1.3-3.5c0.2-0.6,0.5-1.1,0.7-1.7
						C188.3,68.4,188.3,68.3,188.3,68.3L188.3,68.3L188.3,68.3z"/>
				</g>
			</g>
		</g>
		<g id="injury">
			<g id="injury06">
				<circle class="st8" cx="61.6" cy="80.8" r="18"/>
				<g>
					<path d="M55.9,92.3c-3,0-5.6-2-6.2-4.9c-0.5-2.3,0-4.3,1.7-6c3.7-3.8,7.5-7.5,11.2-11.2c1-1,2.1-1.6,3.5-1.8
						c3.2-0.5,6.2,1.3,7.2,4.3c0.8,2.5,0.3,4.7-1.6,6.6c-3.7,3.7-7.4,7.4-11.1,11.2c-0.9,0.9-2,1.5-3.2,1.8
						C56.8,92.3,56.3,92.3,55.9,92.3L55.9,92.3L55.9,92.3z M51.1,86c0,0.2,0,0.4,0.1,0.6c0,0.1,0,0.2,0.1,0.3
						c0.5,2.3,2.7,3.9,5.1,3.7c1.2-0.1,2.1-0.6,3-1.4c3.7-3.7,7.5-7.5,11.2-11.2c1.2-1.2,1.6-2.6,1.3-4.3c-0.5-2.5-2.8-4.2-5.3-3.8
						c-1.1,0.1-2.1,0.6-2.8,1.4c-3.7,3.7-7.5,7.4-11.2,11.2C51.6,83.4,51.1,84.6,51.1,86C51.1,86,51.1,86,51.1,86z"/>
					<path class="st5" d="M51,86c0-1.4,0.5-2.5,1.4-3.5c3.7-3.7,7.5-7.4,11.2-11.2c0.8-0.8,1.7-1.2,2.8-1.4c2.5-0.3,4.8,1.4,5.3,3.8
						c0.3,1.7-0.1,3.1-1.3,4.3c-3.7,3.7-7.5,7.5-11.2,11.2c-0.8,0.8-1.8,1.3-3,1.4c-2.4,0.2-4.6-1.4-5.1-3.7c0-0.1,0-0.2-0.1-0.3
						C51,86.3,51,86.1,51,86C50.9,86,51,86,51,86z M55.1,80.4c0,0-0.2,0-0.2,0.1c-0.3,0.2-0.3,0.6-0.1,0.9c1.8,1.8,3.7,3.7,5.5,5.5
						c0,0,0,0,0.1,0.1c0.3,0.3,0.8,0.1,0.9-0.3c0.1-0.2,0-0.4-0.2-0.6c-1.5-1.5-3-3-4.6-4.6c-0.3-0.3-0.6-0.6-0.9-0.9
						C55.5,80.5,55.4,80.4,55.1,80.4L55.1,80.4L55.1,80.4z M62,73.5c0,0-0.1,0-0.2,0c-0.4,0.1-0.5,0.6-0.2,0.9
						c1.8,1.8,3.6,3.6,5.5,5.4c0,0,0.1,0.1,0.1,0.1c0.2,0.1,0.4,0.2,0.6,0.1s0.3-0.3,0.3-0.5c0-0.2-0.1-0.3-0.2-0.5
						c-1.7-1.7-3.3-3.3-5-5c-0.1-0.1-0.3-0.3-0.4-0.4C62.3,73.6,62.2,73.5,62,73.5L62,73.5L62,73.5z M62.8,78c0.2,0,0.2-0.1,0.3-0.2
						c0.1-0.1,0-0.2-0.1-0.3c-0.3-0.3-0.5-0.5-0.8-0.8c-0.1-0.1-0.3-0.1-0.4,0c-0.1,0.1-0.1,0.3,0,0.4c0.3,0.3,0.5,0.5,0.8,0.8
						C62.7,77.9,62.8,77.9,62.8,78z M65,79.5c0,0,0-0.1-0.1-0.2c-0.3-0.3-0.5-0.6-0.8-0.8c-0.1-0.1-0.3-0.1-0.4,0
						c-0.1,0.1-0.1,0.3,0,0.4c0.1,0.1,0.2,0.2,0.2,0.2c0.2,0.2,0.4,0.4,0.6,0.6c0.1,0.1,0.2,0.1,0.3,0.1C65,79.8,65,79.7,65,79.5
						L65,79.5L65,79.5z M61.8,79.1c0-0.1-0.1-0.2-0.1-0.2c-0.2-0.3-0.5-0.5-0.8-0.8c-0.1-0.1-0.3-0.2-0.4,0s-0.1,0.3,0,0.4
						c0.2,0.2,0.3,0.3,0.4,0.4c0.1,0.1,0.2,0.2,0.4,0.4c0.1,0.1,0.2,0.1,0.3,0.1C61.7,79.3,61.8,79.2,61.8,79.1L61.8,79.1L61.8,79.1
						z M63.3,81.2c0.1,0,0.2-0.1,0.3-0.2c0-0.1,0-0.2-0.1-0.3c-0.3-0.3-0.5-0.5-0.8-0.8c-0.1-0.1-0.3-0.1-0.4,0s-0.1,0.3,0,0.4
						c0.3,0.3,0.5,0.5,0.8,0.8C63.2,81.1,63.2,81.2,63.3,81.2C63.3,81.2,63.3,81.2,63.3,81.2z M59.3,79.3c-0.1,0-0.2,0.1-0.3,0.2
						c0,0.1,0,0.2,0.1,0.3c0.3,0.3,0.5,0.5,0.8,0.8c0.1,0.1,0.3,0.1,0.4,0s0.1-0.3,0-0.4c-0.3-0.3-0.5-0.5-0.8-0.8
						C59.4,79.4,59.3,79.3,59.3,79.3L59.3,79.3L59.3,79.3z M58.7,82.1c0.1,0,0.2-0.1,0.3-0.2c0.1-0.1,0-0.2,0-0.3
						c-0.3-0.3-0.6-0.6-0.8-0.8c-0.1-0.1-0.3-0.1-0.4,0c-0.1,0.1-0.1,0.3,0,0.4c0.3,0.3,0.5,0.5,0.8,0.8
						C58.5,82.1,58.6,82.1,58.7,82.1L58.7,82.1z M61.2,81.2c-0.2,0-0.2,0.1-0.3,0.2c0,0.1,0,0.2,0.1,0.3c0.3,0.3,0.5,0.5,0.8,0.8
						c0.1,0.1,0.3,0.1,0.4,0s0.1-0.3,0-0.4c-0.3-0.3-0.5-0.5-0.8-0.8C61.3,81.2,61.2,81.2,61.2,81.2L61.2,81.2L61.2,81.2z M60.5,84
						c0.1,0,0.2-0.1,0.3-0.2s0-0.2-0.1-0.3c-0.3-0.3-0.5-0.6-0.8-0.8c-0.1-0.1-0.3-0.1-0.4,0s-0.1,0.3,0,0.4
						c0.3,0.3,0.5,0.5,0.8,0.8C60.4,83.9,60.5,84,60.5,84z M60.6,75.1c-0.1,0-0.2,0.1-0.3,0.2c0,0.1,0,0.2,0,0.3
						c0.1,0.1,0.3,0.3,0.4,0.4c0.1,0.1,0.3,0.1,0.4,0c0.1-0.1,0.1-0.3,0-0.4c-0.1-0.1-0.2-0.2-0.4-0.4
						C60.8,75.2,60.7,75.2,60.6,75.1z M59.9,77.2C59.9,77.2,59.9,77.2,59.9,77.2c0-0.1,0-0.1-0.1-0.2c-0.2-0.2-0.3-0.3-0.5-0.5
						c-0.1-0.1-0.3-0.1-0.4,0c-0.1,0.1-0.1,0.3,0,0.4c0.1,0.2,0.3,0.3,0.4,0.4c0.1,0.1,0.2,0.1,0.3,0C59.8,77.4,59.9,77.3,59.9,77.2
						L59.9,77.2L59.9,77.2z M66.4,80.9c0-0.1-0.1-0.1-0.1-0.2c-0.1-0.1-0.2-0.3-0.4-0.4c-0.1-0.1-0.3-0.1-0.4,0
						c-0.1,0.1-0.1,0.3,0,0.4c0.1,0.2,0.3,0.3,0.4,0.4c0.1,0.1,0.2,0.1,0.3,0S66.4,81.1,66.4,80.9C66.4,80.9,66.5,80.9,66.4,80.9z
						 M64.4,81.7c-0.2,0-0.2,0.1-0.3,0.2s0,0.2,0,0.3c0.1,0.1,0.3,0.3,0.4,0.4c0.1,0.1,0.3,0.1,0.4,0s0.1-0.3,0-0.4
						c-0.1-0.1-0.2-0.2-0.4-0.4C64.5,81.7,64.5,81.7,64.4,81.7C64.4,81.7,64.4,81.7,64.4,81.7z M56.9,80.3c0.1-0.1,0.2-0.1,0.2-0.2
						c0.1-0.1,0-0.2,0-0.3c-0.1-0.1-0.3-0.3-0.4-0.4c-0.1-0.1-0.3-0.1-0.4,0c-0.1,0.1-0.1,0.3,0,0.4c0.1,0.1,0.2,0.3,0.4,0.4
						C56.7,80.2,56.8,80.3,56.9,80.3L56.9,80.3L56.9,80.3z M57.6,78.2c0,0.1,0,0.2,0.1,0.2c0.1,0.1,0.3,0.3,0.4,0.4
						c0.1,0.1,0.3,0.1,0.4,0c0.1-0.1,0.1-0.3,0-0.4c-0.1-0.2-0.3-0.3-0.4-0.4c-0.1-0.1-0.2-0.1-0.3,0C57.7,78.1,57.6,78.1,57.6,78.2
						z M62.3,85.1c0,0,0-0.1-0.1-0.1c-0.1-0.2-0.3-0.3-0.4-0.4c-0.1-0.1-0.3-0.1-0.4,0c-0.1,0.1-0.1,0.3,0,0.4
						c0.1,0.1,0.3,0.3,0.4,0.4c0.1,0.1,0.2,0.1,0.3,0C62.2,85.3,62.2,85.2,62.3,85.1L62.3,85.1L62.3,85.1z M63,83.1
						c-0.2,0-0.2,0.1-0.3,0.2s0,0.2,0.1,0.3c0.1,0.1,0.2,0.2,0.4,0.4c0.1,0.1,0.3,0.1,0.4,0c0.1-0.1,0.1-0.3,0-0.4
						c-0.1-0.1-0.2-0.3-0.4-0.4C63.1,83.1,63,83.1,63,83.1C63,83.1,63,83.1,63,83.1z"/>
					<path d="M55.2,80.4c0.2,0,0.4,0.1,0.5,0.2c0.3,0.3,0.6,0.6,0.9,0.9c1.5,1.5,3,3,4.6,4.6c0.2,0.2,0.2,0.3,0.2,0.6
						c-0.1,0.4-0.6,0.6-0.9,0.3c0,0,0,0-0.1-0.1c-1.8-1.8-3.7-3.7-5.5-5.5c-0.3-0.3-0.2-0.7,0.1-0.9C55.1,80.4,55.2,80.4,55.2,80.4
						L55.2,80.4L55.2,80.4z"/>
					<path d="M62.1,73.6c0.2,0,0.3,0.1,0.4,0.2c0.1,0.1,0.3,0.3,0.4,0.4c1.7,1.7,3.3,3.3,5,5c0.1,0.1,0.2,0.3,0.2,0.5
						c0,0.2-0.1,0.4-0.3,0.5s-0.4,0.1-0.6-0.1c0,0-0.1-0.1-0.1-0.1c-1.8-1.8-3.6-3.6-5.5-5.4c-0.3-0.3-0.2-0.8,0.2-0.9
						C62,73.6,62.1,73.6,62.1,73.6L62.1,73.6L62.1,73.6z"/>
					<path d="M63,78c0,0-0.1-0.1-0.2-0.1c-0.3-0.3-0.5-0.5-0.8-0.8c-0.1-0.1-0.1-0.3,0-0.4c0.1-0.1,0.3-0.1,0.4,0
						c0.3,0.3,0.5,0.5,0.8,0.8c0.1,0.1,0.1,0.2,0.1,0.3C63.2,77.9,63.1,78,63,78z"/>
					<path d="M65.1,79.5c0,0.2-0.1,0.2-0.2,0.3c-0.1,0.1-0.2,0-0.3-0.1c-0.2-0.2-0.4-0.4-0.6-0.6c-0.1-0.1-0.2-0.2-0.2-0.2
						c-0.1-0.1-0.1-0.3,0-0.4c0.1-0.1,0.3-0.1,0.4,0c0.3,0.3,0.6,0.5,0.8,0.8C65.1,79.4,65.1,79.5,65.1,79.5L65.1,79.5L65.1,79.5z"
						/>
					<path d="M61.9,79.1c0,0.1-0.1,0.2-0.2,0.3c-0.1,0.1-0.2,0-0.3-0.1c-0.1-0.1-0.2-0.2-0.4-0.4c-0.2-0.2-0.3-0.3-0.4-0.4
						c-0.1-0.1-0.1-0.3,0-0.4c0.1-0.1,0.3-0.1,0.4,0c0.2,0.2,0.5,0.5,0.8,0.8C61.8,78.9,61.9,79,61.9,79.1L61.9,79.1L61.9,79.1z"/>
					<path d="M63.5,81.2c-0.1,0-0.2-0.1-0.2-0.1c-0.3-0.3-0.5-0.5-0.8-0.8c-0.1-0.1-0.1-0.3,0-0.4c0.1-0.1,0.3-0.1,0.4,0
						c0.3,0.3,0.5,0.5,0.8,0.8c0.1,0.1,0.1,0.2,0.1,0.3C63.7,81.2,63.6,81.2,63.5,81.2C63.5,81.2,63.5,81.2,63.5,81.2z"/>
					<path d="M59.4,79.4c0.1,0,0.1,0.1,0.2,0.1c0.3,0.3,0.5,0.5,0.8,0.8c0.1,0.1,0.1,0.3,0,0.4c-0.1,0.1-0.3,0.1-0.4,0
						c-0.3-0.3-0.5-0.5-0.8-0.8c-0.1-0.1-0.1-0.2-0.1-0.3C59.2,79.4,59.3,79.4,59.4,79.4L59.4,79.4L59.4,79.4z"/>
					<path d="M58.8,82.2c-0.1,0-0.1-0.1-0.2-0.1c-0.3-0.3-0.5-0.5-0.8-0.8c-0.1-0.1-0.1-0.3,0-0.4c0.1-0.1,0.3-0.1,0.4,0
						c0.3,0.3,0.6,0.6,0.8,0.8c0.1,0.1,0.1,0.2,0,0.3C59,82.1,59,82.2,58.8,82.2L58.8,82.2z"/>
					<path d="M61.3,81.2c0,0,0.1,0,0.2,0.1c0.3,0.3,0.5,0.5,0.8,0.8c0.1,0.1,0.1,0.3,0,0.4s-0.3,0.1-0.4,0c-0.3-0.3-0.5-0.5-0.8-0.8
						c-0.1-0.1-0.1-0.2-0.1-0.3C61,81.3,61.1,81.2,61.3,81.2L61.3,81.2L61.3,81.2z"/>
					<path d="M60.7,84c-0.1,0-0.1-0.1-0.2-0.1c-0.3-0.3-0.5-0.5-0.8-0.8c-0.1-0.1-0.1-0.3,0-0.4s0.3-0.1,0.4,0
						c0.3,0.3,0.5,0.6,0.8,0.8c0.1,0.1,0.1,0.2,0.1,0.3S60.8,84,60.7,84z"/>
					<path d="M60.8,75.2c0.1,0,0.1,0.1,0.2,0.1c0.1,0.1,0.2,0.2,0.4,0.4c0.1,0.1,0.1,0.3,0,0.4c-0.1,0.1-0.3,0.1-0.4,0
						c-0.1-0.1-0.3-0.3-0.4-0.4c-0.1-0.1-0.1-0.2,0-0.3C60.5,75.2,60.6,75.2,60.8,75.2z"/>
					<path d="M60.1,77.2c-0.1,0.1-0.1,0.2-0.2,0.2c-0.1,0.1-0.2,0.1-0.3,0c-0.2-0.1-0.3-0.3-0.4-0.4c-0.1-0.1-0.1-0.3,0-0.4
						c0.1-0.1,0.2-0.1,0.4,0c0.2,0.1,0.3,0.3,0.5,0.5C60,77.1,60,77.2,60.1,77.2C60.1,77.2,60.1,77.2,60.1,77.2L60.1,77.2L60.1,77.2
						z"/>
					<path d="M66.6,80.9c0,0.1-0.1,0.2-0.2,0.2c-0.1,0.1-0.2,0.1-0.3,0c-0.2-0.1-0.3-0.3-0.4-0.4c-0.1-0.1-0.1-0.3,0-0.4
						c0.1-0.1,0.3-0.1,0.4,0c0.1,0.1,0.3,0.2,0.4,0.4C66.5,80.8,66.6,80.9,66.6,80.9C66.6,80.9,66.6,80.9,66.6,80.9z"/>
					<path d="M64.5,81.7c0,0,0.1,0,0.2,0.1c0.1,0.1,0.2,0.2,0.4,0.4c0.1,0.1,0.1,0.3,0,0.4s-0.3,0.1-0.4,0c-0.1-0.1-0.3-0.3-0.4-0.4
						c-0.1-0.1-0.1-0.2,0-0.3C64.3,81.7,64.4,81.7,64.5,81.7C64.5,81.7,64.5,81.7,64.5,81.7z"/>
					<path d="M57,80.3c-0.1-0.1-0.2-0.1-0.2-0.1c-0.1-0.1-0.3-0.2-0.4-0.4c-0.1-0.1-0.1-0.3,0-0.4c0.1-0.1,0.3-0.1,0.4,0
						c0.1,0.1,0.3,0.3,0.4,0.4c0.1,0.1,0.1,0.2,0,0.3C57.2,80.2,57.1,80.3,57,80.3L57,80.3L57,80.3z"/>
					<path d="M57.7,78.2c0.1-0.1,0.1-0.2,0.2-0.2c0.1-0.1,0.2-0.1,0.3,0c0.2,0.1,0.3,0.3,0.4,0.4c0.1,0.1,0.1,0.3,0,0.4
						s-0.3,0.1-0.4,0c-0.1-0.1-0.3-0.3-0.4-0.4C57.7,78.4,57.7,78.3,57.7,78.2z"/>
					<path d="M62.4,85.1c0,0.1,0,0.2-0.2,0.3s-0.2,0.1-0.3,0c-0.1-0.1-0.3-0.3-0.4-0.4c-0.1-0.1-0.1-0.3,0-0.4s0.3-0.1,0.4,0
						c0.2,0.1,0.3,0.3,0.4,0.4C62.4,85,62.4,85.1,62.4,85.1L62.4,85.1L62.4,85.1z"/>
					<path d="M63.1,83.1c0,0,0.1,0,0.2,0.1c0.1,0.1,0.3,0.2,0.4,0.4c0.1,0.1,0.1,0.3,0,0.4c-0.1,0.1-0.3,0.1-0.4,0
						c-0.1-0.1-0.2-0.2-0.4-0.4c-0.1-0.1-0.1-0.2-0.1-0.3C62.9,83.2,63,83.1,63.1,83.1C63.1,83.1,63.1,83.1,63.1,83.1z"/>
				</g>
			</g>
			<g id="injury05">
				<circle class="st8" cx="334.5" cy="45.5" r="18"/>
				<g>
					<path d="M328.8,57c-3,0-5.6-2-6.2-5c-0.5-2.3,0-4.3,1.7-6c3.7-3.8,7.5-7.5,11.2-11.2c1-1,2.1-1.5,3.5-1.8
						c3.2-0.5,6.2,1.3,7.2,4.3c0.8,2.5,0.3,4.7-1.6,6.6c-3.7,3.7-7.4,7.4-11.1,11.1c-0.9,0.9-2,1.5-3.2,1.8
						C329.7,57,329.2,57,328.8,57C328.7,57,328.8,57,328.8,57z M324,50.7c0,0.2,0,0.4,0.1,0.6c0,0.1,0,0.2,0.1,0.3
						c0.5,2.3,2.7,4,5.1,3.7c1.1-0.1,2.1-0.6,3-1.4c3.7-3.7,7.5-7.5,11.2-11.2c1.2-1.2,1.6-2.6,1.3-4.3c-0.5-2.5-2.8-4.2-5.3-3.8
						c-1.1,0.1-2,0.6-2.8,1.4c-3.7,3.7-7.5,7.5-11.2,11.2C324.5,48.1,324,49.2,324,50.7L324,50.7z"/>
					<path class="st5" d="M323.9,50.7c0-1.4,0.5-2.5,1.4-3.5c3.7-3.7,7.5-7.5,11.2-11.2c0.8-0.8,1.7-1.2,2.8-1.4
						c2.5-0.3,4.8,1.4,5.3,3.8c0.3,1.7-0.1,3.1-1.3,4.3c-3.7,3.7-7.5,7.5-11.2,11.2c-0.8,0.8-1.8,1.3-3,1.4
						c-2.4,0.2-4.6-1.4-5.1-3.7c0-0.1,0-0.2-0.1-0.3C323.9,51,323.8,50.8,323.9,50.7C323.8,50.6,323.9,50.6,323.9,50.7z M328,45.1
						c0,0-0.2,0-0.2,0.1c-0.3,0.2-0.4,0.6-0.1,0.9c1.8,1.8,3.6,3.7,5.5,5.5c0,0,0,0,0.1,0c0.3,0.3,0.8,0.1,0.9-0.3
						c0.1-0.2,0-0.4-0.2-0.6c-1.5-1.5-3-3-4.6-4.6c-0.3-0.3-0.6-0.6-0.9-0.9C328.4,45.2,328.3,45.1,328,45.1L328,45.1L328,45.1z
						 M334.9,38.2c0,0-0.1,0-0.1,0c-0.4,0.1-0.5,0.6-0.2,0.9c1.8,1.8,3.6,3.6,5.5,5.5c0,0,0.1,0.1,0.1,0.1c0.2,0.1,0.4,0.2,0.6,0.1
						s0.3-0.3,0.3-0.5c0-0.2-0.1-0.3-0.2-0.5c-1.7-1.7-3.3-3.3-5-5c-0.1-0.1-0.3-0.3-0.4-0.4C335.2,38.3,335,38.2,334.9,38.2
						L334.9,38.2L334.9,38.2z M335.7,42.7c0.2,0,0.2-0.1,0.3-0.2c0.1-0.1,0-0.2-0.1-0.3c-0.3-0.3-0.5-0.5-0.8-0.8
						c-0.1-0.1-0.3-0.1-0.4,0c-0.1,0.1-0.1,0.3,0,0.4c0.3,0.3,0.5,0.5,0.8,0.8C335.6,42.6,335.7,42.6,335.7,42.7L335.7,42.7
						L335.7,42.7z M337.9,44.2c0,0,0-0.1-0.1-0.2c-0.3-0.3-0.5-0.5-0.8-0.8c-0.1-0.1-0.3-0.1-0.4,0c-0.1,0.1-0.1,0.3,0,0.4
						c0.1,0.1,0.2,0.2,0.2,0.2c0.2,0.2,0.4,0.4,0.6,0.6c0.1,0.1,0.2,0.1,0.3,0.1C337.8,44.4,337.9,44.4,337.9,44.2L337.9,44.2
						L337.9,44.2z M334.7,43.7c0-0.1-0.1-0.2-0.1-0.2c-0.2-0.3-0.5-0.5-0.8-0.8c-0.1-0.1-0.3-0.2-0.4,0c-0.1,0.1-0.1,0.3,0,0.4
						c0.1,0.2,0.3,0.3,0.4,0.4c0.1,0.1,0.2,0.2,0.4,0.4c0.1,0.1,0.2,0.1,0.3,0C334.6,44,334.7,43.9,334.7,43.7L334.7,43.7
						L334.7,43.7z M336.2,45.9c0.1,0,0.2-0.1,0.3-0.2c0-0.1,0-0.2-0.1-0.3c-0.3-0.3-0.5-0.5-0.8-0.8c-0.1-0.1-0.3-0.1-0.4,0
						s-0.1,0.3,0,0.4c0.3,0.3,0.5,0.5,0.8,0.8C336.1,45.8,336.1,45.9,336.2,45.9C336.2,45.9,336.2,45.9,336.2,45.9z M332.2,44
						c-0.1,0-0.2,0.1-0.3,0.2c0,0.1,0,0.2,0.1,0.3c0.3,0.3,0.5,0.5,0.8,0.8c0.1,0.1,0.3,0.1,0.4,0s0.1-0.3,0-0.4
						c-0.3-0.3-0.5-0.5-0.8-0.8C332.3,44.1,332.2,44,332.2,44L332.2,44L332.2,44z M331.6,46.8c0.1,0,0.2-0.1,0.3-0.2
						c0.1-0.1,0-0.2,0-0.3c-0.3-0.3-0.6-0.6-0.9-0.8c-0.1-0.1-0.3-0.1-0.4,0c-0.1,0.1-0.1,0.3,0,0.4c0.3,0.3,0.5,0.5,0.8,0.8
						C331.4,46.8,331.5,46.8,331.6,46.8L331.6,46.8L331.6,46.8z M334.1,45.9c-0.2,0-0.2,0.1-0.3,0.2c0,0.1,0,0.2,0.1,0.3
						c0.3,0.3,0.5,0.5,0.8,0.8c0.1,0.1,0.3,0.1,0.4,0s0.1-0.3,0-0.4c-0.3-0.3-0.5-0.5-0.8-0.8C334.2,45.9,334.1,45.9,334.1,45.9
						L334.1,45.9z M333.4,48.7c0.1,0,0.2-0.1,0.3-0.2s0-0.2-0.1-0.3c-0.3-0.3-0.5-0.5-0.8-0.8c-0.1-0.1-0.3-0.1-0.4,0
						c-0.1,0.1-0.1,0.3,0,0.4c0.3,0.3,0.5,0.5,0.8,0.8C333.3,48.6,333.4,48.7,333.4,48.7L333.4,48.7L333.4,48.7z M333.5,39.8
						c-0.1,0-0.2,0.1-0.3,0.2c0,0.1,0,0.2,0,0.3c0.1,0.1,0.3,0.3,0.4,0.4c0.1,0.1,0.3,0.1,0.4,0c0.1-0.1,0.1-0.3,0-0.4
						c-0.1-0.1-0.2-0.2-0.4-0.4C333.7,39.9,333.6,39.9,333.5,39.8L333.5,39.8L333.5,39.8z M332.8,41.9
						C332.8,41.9,332.8,41.9,332.8,41.9c0-0.1,0-0.1-0.1-0.2c-0.1-0.2-0.3-0.3-0.5-0.5c-0.1-0.1-0.3-0.1-0.4,0
						c-0.1,0.1-0.1,0.3,0,0.4c0.1,0.2,0.3,0.3,0.4,0.4c0.1,0.1,0.2,0.1,0.3,0C332.7,42.1,332.8,42,332.8,41.9L332.8,41.9L332.8,41.9
						z M339.3,45.6c0-0.1,0-0.1-0.1-0.2c-0.1-0.1-0.2-0.3-0.4-0.4c-0.1-0.1-0.3-0.1-0.4,0c-0.1,0.1-0.1,0.3,0,0.4
						c0.1,0.2,0.3,0.3,0.4,0.4c0.1,0.1,0.2,0.1,0.3,0S339.3,45.7,339.3,45.6L339.3,45.6L339.3,45.6z M337.3,46.4
						c-0.2,0-0.2,0-0.3,0.2c0,0.1,0,0.2,0,0.3c0.1,0.1,0.3,0.3,0.4,0.4c0.1,0.1,0.3,0.1,0.4,0s0.1-0.3,0-0.4s-0.2-0.2-0.4-0.4
						C337.4,46.4,337.3,46.4,337.3,46.4L337.3,46.4L337.3,46.4z M329.8,45c0.1-0.1,0.2-0.1,0.2-0.2c0.1-0.1,0-0.2,0-0.3
						c-0.1-0.1-0.3-0.3-0.4-0.4c-0.1-0.1-0.3-0.1-0.4,0c-0.1,0.1-0.1,0.3,0,0.4c0.1,0.1,0.2,0.3,0.4,0.4
						C329.6,44.9,329.7,45,329.8,45L329.8,45L329.8,45z M330.4,42.9c0,0.1,0,0.2,0.1,0.2c0.1,0.1,0.3,0.3,0.4,0.4
						c0.1,0.1,0.3,0.1,0.4,0c0.1-0.1,0.1-0.3,0-0.4c-0.1-0.2-0.3-0.3-0.4-0.4c-0.1-0.1-0.2-0.1-0.3,0
						C330.6,42.8,330.5,42.8,330.4,42.9z M335.1,49.8c0,0,0-0.1-0.1-0.1c-0.1-0.2-0.3-0.3-0.4-0.4c-0.1-0.1-0.3-0.1-0.4,0
						c-0.1,0.1-0.1,0.3,0,0.4c0.1,0.1,0.3,0.3,0.4,0.4c0.1,0.1,0.2,0.1,0.3,0C335.1,50,335.1,49.9,335.1,49.8L335.1,49.8L335.1,49.8
						z M335.9,47.8c-0.2,0-0.2,0.1-0.3,0.2c0,0.1,0,0.2,0.1,0.3c0.1,0.1,0.2,0.2,0.4,0.4c0.1,0.1,0.3,0.1,0.4,0
						c0.1-0.1,0.1-0.3,0-0.4c-0.1-0.1-0.2-0.3-0.4-0.4C336,47.8,335.9,47.8,335.9,47.8L335.9,47.8L335.9,47.8z"/>
					<path d="M328.1,45.1c0.2,0,0.4,0.1,0.5,0.2c0.3,0.3,0.6,0.6,0.9,0.9c1.5,1.5,3,3,4.6,4.6c0.2,0.2,0.2,0.3,0.2,0.6
						c-0.1,0.4-0.6,0.5-0.9,0.3c0,0,0,0-0.1,0c-1.8-1.8-3.6-3.7-5.5-5.5c-0.3-0.3-0.2-0.7,0.1-0.9C328,45.1,328.1,45.1,328.1,45.1
						L328.1,45.1L328.1,45.1z"/>
					<path d="M335,38.2c0.2,0,0.3,0.1,0.4,0.2c0.1,0.1,0.3,0.3,0.4,0.4c1.7,1.7,3.3,3.3,5,5c0.1,0.1,0.2,0.3,0.2,0.5
						c0,0.2-0.1,0.4-0.3,0.5s-0.4,0.1-0.6-0.1c0,0-0.1,0-0.1-0.1c-1.8-1.8-3.6-3.6-5.5-5.5c-0.3-0.3-0.2-0.8,0.2-0.9
						C334.9,38.3,335,38.3,335,38.2L335,38.2L335,38.2z"/>
					<path d="M335.9,42.7c0,0-0.1,0-0.2-0.1c-0.3-0.3-0.5-0.5-0.8-0.8c-0.1-0.1-0.1-0.3,0-0.4c0.1-0.1,0.3-0.1,0.4,0
						c0.3,0.3,0.5,0.5,0.8,0.8c0.1,0.1,0.1,0.2,0.1,0.3C336.1,42.6,336,42.7,335.9,42.7L335.9,42.7L335.9,42.7z"/>
					<path d="M338,44.2c0,0.2-0.1,0.2-0.2,0.3c-0.1,0-0.2,0-0.3-0.1l-0.6-0.6c-0.1-0.1-0.2-0.2-0.2-0.2c-0.1-0.1-0.1-0.3,0-0.4
						c0.1-0.1,0.3-0.1,0.4,0c0.3,0.3,0.5,0.5,0.8,0.8C338,44.1,338,44.2,338,44.2L338,44.2L338,44.2z"/>
					<path d="M334.8,43.8c0,0.1-0.1,0.2-0.2,0.3c-0.1,0-0.2,0-0.3,0c-0.1-0.1-0.2-0.2-0.4-0.4c-0.1-0.2-0.3-0.3-0.4-0.4
						c-0.1-0.1-0.1-0.3,0-0.4c0.1-0.1,0.3-0.1,0.4,0c0.2,0.2,0.5,0.5,0.8,0.8C334.7,43.6,334.8,43.7,334.8,43.8L334.8,43.8
						L334.8,43.8z"/>
					<path d="M336.3,45.9c-0.1,0-0.1-0.1-0.2-0.1c-0.3-0.3-0.5-0.5-0.8-0.8c-0.1-0.1-0.1-0.3,0-0.4c0.1-0.1,0.3-0.1,0.4,0
						c0.3,0.3,0.5,0.5,0.8,0.8c0.1,0.1,0.1,0.2,0.1,0.3C336.6,45.9,336.5,45.9,336.3,45.9C336.4,45.9,336.3,45.9,336.3,45.9z"/>
					<path d="M332.3,44.1c0.1,0,0.1,0.1,0.2,0.1c0.3,0.3,0.5,0.5,0.8,0.8c0.1,0.1,0.1,0.3,0,0.4c-0.1,0.1-0.3,0.1-0.4,0
						c-0.3-0.3-0.5-0.5-0.8-0.8c-0.1-0.1-0.1-0.2-0.1-0.3C332.1,44.1,332.2,44.1,332.3,44.1L332.3,44.1L332.3,44.1z"/>
					<path d="M331.7,46.9c-0.1,0-0.1-0.1-0.2-0.1c-0.3-0.3-0.5-0.5-0.8-0.8c-0.1-0.1-0.1-0.3,0-0.4c0.1-0.1,0.3-0.1,0.4,0
						c0.3,0.3,0.6,0.6,0.9,0.8c0.1,0.1,0.1,0.2,0,0.3S331.8,46.8,331.7,46.9L331.7,46.9L331.7,46.9z"/>
					<path d="M334.2,45.9c0,0,0.1,0,0.2,0.1c0.3,0.3,0.5,0.5,0.8,0.8c0.1,0.1,0.1,0.3,0,0.4s-0.3,0.1-0.4,0
						c-0.3-0.3-0.5-0.5-0.8-0.8c-0.1-0.1-0.1-0.2-0.1-0.3C333.9,46,334,45.9,334.2,45.9L334.2,45.9z"/>
					<path d="M333.5,48.7c-0.1,0-0.1-0.1-0.2-0.1c-0.3-0.3-0.5-0.5-0.8-0.8c-0.1-0.1-0.1-0.3,0-0.4s0.3-0.1,0.4,0
						c0.3,0.3,0.5,0.5,0.8,0.8c0.1,0.1,0.1,0.2,0.1,0.3S333.7,48.7,333.5,48.7L333.5,48.7L333.5,48.7z"/>
					<path d="M333.7,39.9c0.1,0,0.1,0.1,0.2,0.1c0.1,0.1,0.2,0.2,0.4,0.4c0.1,0.1,0.1,0.3,0,0.4c-0.1,0.1-0.3,0.1-0.4,0
						c-0.1-0.1-0.3-0.3-0.4-0.4c-0.1-0.1-0.1-0.2,0-0.3C333.4,39.9,333.5,39.9,333.7,39.9L333.7,39.9L333.7,39.9z"/>
					<path d="M333,41.9c-0.1,0.1-0.1,0.2-0.2,0.2c-0.1,0.1-0.2,0.1-0.3,0c-0.1-0.1-0.3-0.3-0.4-0.4c-0.1-0.1-0.1-0.3,0-0.4
						c0.1-0.1,0.2-0.1,0.4,0c0.2,0.1,0.3,0.3,0.5,0.5C332.9,41.8,332.9,41.9,333,41.9C332.9,41.9,332.9,41.9,333,41.9L333,41.9
						L333,41.9z"/>
					<path d="M339.5,45.7c0,0.1-0.1,0.2-0.2,0.2c-0.1,0-0.2,0-0.3,0c-0.1-0.1-0.3-0.3-0.4-0.4c-0.1-0.1-0.1-0.3,0-0.4
						c0.1-0.1,0.3-0.1,0.4,0c0.1,0.1,0.3,0.2,0.4,0.4C339.4,45.5,339.5,45.6,339.5,45.7L339.5,45.7L339.5,45.7z"/>
					<path d="M337.4,46.4c0,0,0.1,0,0.2,0.1c0.1,0.1,0.2,0.2,0.4,0.4c0.1,0.1,0.1,0.3,0,0.4s-0.3,0.1-0.4,0
						c-0.1-0.1-0.3-0.3-0.4-0.4c-0.1-0.1-0.1-0.2,0-0.3S337.3,46.4,337.4,46.4L337.4,46.4L337.4,46.4z"/>
					<path d="M329.9,45c-0.1,0-0.2-0.1-0.2-0.1c-0.1-0.1-0.3-0.2-0.4-0.4c-0.1-0.1-0.1-0.3,0-0.4c0.1-0.1,0.3-0.1,0.4,0
						c0.1,0.1,0.3,0.3,0.4,0.4c0.1,0.1,0.1,0.2,0,0.3C330.1,44.9,330,45,329.9,45L329.9,45L329.9,45z"/>
					<path d="M330.6,42.9c0.1-0.1,0.1-0.2,0.2-0.2c0.1-0.1,0.2-0.1,0.3,0c0.1,0.1,0.3,0.3,0.4,0.4c0.1,0.1,0.1,0.3,0,0.4
						c-0.1,0.1-0.3,0.1-0.4,0c-0.1-0.1-0.3-0.3-0.4-0.4C330.6,43.1,330.6,43,330.6,42.9z"/>
					<path d="M335.3,49.8c0,0.1,0,0.2-0.2,0.3c-0.1,0-0.2,0-0.3,0c-0.1-0.1-0.3-0.3-0.4-0.4c-0.1-0.1-0.1-0.3,0-0.4s0.3-0.1,0.4,0
						c0.1,0.1,0.3,0.3,0.4,0.4C335.3,49.7,335.3,49.8,335.3,49.8L335.3,49.8L335.3,49.8z"/>
					<path d="M336,47.8c0,0,0.1,0,0.2,0.1c0.1,0.1,0.3,0.2,0.4,0.4c0.1,0.1,0.1,0.3,0,0.4c-0.1,0.1-0.3,0.1-0.4,0
						c-0.1-0.1-0.2-0.2-0.4-0.4c-0.1-0.1-0.1-0.2-0.1-0.3C335.8,47.9,335.9,47.8,336,47.8L336,47.8L336,47.8z"/>
				</g>
			</g>
			<g id="injury04">
				
					<ellipse transform="matrix(4.531441e-02 -0.999 0.999 4.531441e-02 -149.705 243.9102)" class="st8" cx="52.8" cy="200.3" rx="18" ry="18"/>
				<g>
					<path d="M47,211.8c-3,0-5.6-2-6.2-4.9c-0.5-2.3,0-4.3,1.7-6c3.7-3.8,7.5-7.5,11.2-11.2c1-1,2.1-1.6,3.5-1.8
						c3.2-0.5,6.2,1.3,7.2,4.3c0.8,2.5,0.3,4.7-1.6,6.6c-3.7,3.7-7.4,7.4-11.1,11.1c-0.9,0.9-2,1.5-3.2,1.8
						C48,211.8,47.5,211.8,47,211.8L47,211.8L47,211.8z M42.3,205.5c0,0.1,0,0.4,0.1,0.6c0,0.1,0,0.2,0.1,0.3
						c0.5,2.3,2.7,3.9,5.1,3.7c1.2-0.1,2.1-0.6,3-1.4c3.7-3.7,7.5-7.5,11.2-11.2c1.2-1.2,1.6-2.6,1.3-4.3c-0.5-2.5-2.8-4.1-5.3-3.8
						c-1.1,0.1-2,0.6-2.8,1.4c-3.7,3.7-7.5,7.4-11.2,11.2C42.8,202.9,42.3,204.1,42.3,205.5L42.3,205.5L42.3,205.5z"/>
					<path class="st5" d="M42.2,205.5c0-1.4,0.5-2.5,1.4-3.5c3.7-3.7,7.5-7.4,11.2-11.2c0.8-0.8,1.7-1.2,2.8-1.4
						c2.5-0.3,4.8,1.4,5.3,3.8c0.3,1.6-0.1,3.1-1.3,4.3c-3.7,3.7-7.5,7.5-11.2,11.2c-0.8,0.8-1.8,1.3-3,1.4
						c-2.4,0.2-4.6-1.4-5.1-3.7c0-0.1,0-0.2-0.1-0.3C42.2,205.8,42.1,205.6,42.2,205.5L42.2,205.5L42.2,205.5z M46.3,199.9
						c0,0-0.2,0-0.2,0.1c-0.3,0.2-0.3,0.6-0.1,0.9c1.8,1.8,3.7,3.6,5.5,5.5c0,0,0,0,0.1,0.1c0.3,0.3,0.8,0.1,0.9-0.3
						c0.1-0.2,0-0.4-0.2-0.6c-1.5-1.5-3-3-4.6-4.6c-0.3-0.3-0.6-0.6-0.9-0.9C46.7,200,46.6,199.9,46.3,199.9L46.3,199.9L46.3,199.9z
						 M53.2,193.1c0,0-0.1,0-0.2,0c-0.4,0.1-0.5,0.6-0.2,0.9c1.8,1.8,3.6,3.6,5.5,5.4c0,0,0.1,0.1,0.1,0.1c0.2,0.1,0.4,0.1,0.6,0.1
						s0.3-0.3,0.3-0.5c0-0.2-0.1-0.3-0.2-0.5c-1.7-1.7-3.3-3.3-5-5c-0.1-0.1-0.3-0.3-0.4-0.4C53.5,193.1,53.4,193,53.2,193.1
						L53.2,193.1L53.2,193.1z M54,197.5c0.2,0,0.2-0.1,0.3-0.2c0.1-0.1,0-0.2-0.1-0.3c-0.3-0.3-0.5-0.5-0.8-0.8
						c-0.1-0.1-0.3-0.1-0.4,0c-0.1,0.1-0.1,0.3,0,0.4c0.3,0.3,0.5,0.5,0.8,0.8C53.9,197.4,54,197.4,54,197.5z M56.2,199
						c0,0,0-0.1-0.1-0.1c-0.3-0.3-0.5-0.6-0.8-0.8c-0.1-0.1-0.3-0.1-0.4,0c-0.1,0.1-0.1,0.3,0,0.4c0.1,0.1,0.2,0.2,0.2,0.2
						c0.2,0.2,0.4,0.4,0.6,0.6c0.1,0.1,0.2,0.1,0.3,0.1C56.2,199.3,56.2,199.2,56.2,199L56.2,199L56.2,199z M53,198.6
						c0-0.1-0.1-0.2-0.1-0.2c-0.2-0.3-0.5-0.5-0.8-0.8c-0.1-0.1-0.3-0.1-0.4,0s-0.1,0.3,0,0.4c0.2,0.1,0.3,0.3,0.4,0.4
						c0.1,0.1,0.2,0.2,0.4,0.4c0.1,0.1,0.2,0.1,0.3,0.1C52.9,198.8,53,198.7,53,198.6L53,198.6L53,198.6z M54.5,200.7
						c0.1,0,0.2-0.1,0.3-0.2c0-0.1,0-0.2-0.1-0.3c-0.3-0.3-0.5-0.5-0.8-0.8c-0.1-0.1-0.3-0.1-0.4,0s-0.1,0.3,0,0.4
						c0.3,0.3,0.5,0.5,0.8,0.8C54.4,200.6,54.5,200.7,54.5,200.7L54.5,200.7L54.5,200.7z M50.5,198.8c-0.1,0-0.2,0.1-0.3,0.2
						c0,0.1,0,0.2,0.1,0.3c0.3,0.3,0.5,0.5,0.8,0.8c0.1,0.1,0.3,0.1,0.4,0c0.1-0.1,0.1-0.3,0-0.4c-0.3-0.3-0.5-0.5-0.8-0.8
						C50.6,198.9,50.6,198.8,50.5,198.8L50.5,198.8L50.5,198.8z M49.9,201.6c0.1,0,0.2-0.1,0.3-0.2c0.1-0.1,0-0.2,0-0.3
						c-0.3-0.3-0.6-0.6-0.8-0.9c-0.1-0.1-0.3-0.1-0.4,0c-0.1,0.1-0.1,0.3,0,0.4c0.3,0.3,0.5,0.5,0.8,0.8
						C49.8,201.6,49.8,201.6,49.9,201.6L49.9,201.6L49.9,201.6z M52.4,200.7c-0.2,0-0.2,0.1-0.3,0.2c0,0.1,0,0.2,0.1,0.3
						c0.3,0.3,0.5,0.5,0.8,0.8c0.1,0.1,0.3,0.1,0.4,0s0.1-0.3,0-0.4c-0.3-0.3-0.5-0.5-0.8-0.8C52.5,200.7,52.4,200.7,52.4,200.7
						L52.4,200.7L52.4,200.7z M51.7,203.5c0.1,0,0.2-0.1,0.3-0.2c0-0.1,0-0.2-0.1-0.3c-0.3-0.3-0.5-0.6-0.8-0.8
						c-0.1-0.1-0.3-0.1-0.4,0s-0.1,0.3,0,0.4c0.3,0.3,0.5,0.5,0.8,0.8C51.6,203.4,51.7,203.5,51.7,203.5z M51.9,194.6
						c-0.1,0-0.2,0.1-0.3,0.2c0,0.1,0,0.2,0,0.3c0.1,0.1,0.3,0.3,0.4,0.4c0.1,0.1,0.3,0.1,0.4,0c0.1-0.1,0.1-0.3,0-0.4
						c-0.1-0.1-0.2-0.2-0.4-0.4C52,194.7,51.9,194.7,51.9,194.6z M51.1,196.7C51.1,196.7,51.1,196.7,51.1,196.7c0-0.1,0-0.1-0.1-0.2
						c-0.2-0.2-0.3-0.3-0.5-0.5c-0.1-0.1-0.3-0.1-0.4,0c-0.1,0.1-0.1,0.3,0,0.4c0.1,0.1,0.3,0.3,0.4,0.4c0.1,0.1,0.2,0.1,0.3,0
						C51,196.9,51.1,196.8,51.1,196.7L51.1,196.7L51.1,196.7z M57.7,200.4c0-0.1,0-0.1-0.1-0.2c-0.1-0.1-0.2-0.3-0.4-0.4
						c-0.1-0.1-0.3-0.1-0.4,0c-0.1,0.1-0.1,0.3,0,0.4c0.1,0.2,0.3,0.3,0.4,0.4c0.1,0.1,0.2,0.1,0.3,0
						C57.6,200.6,57.6,200.5,57.7,200.4L57.7,200.4L57.7,200.4z M55.6,201.2c-0.2,0-0.2,0.1-0.3,0.2s0,0.2,0,0.3
						c0.1,0.1,0.3,0.3,0.4,0.4c0.1,0.1,0.3,0.1,0.4,0s0.1-0.3,0-0.4s-0.2-0.2-0.4-0.4C55.7,201.2,55.7,201.2,55.6,201.2L55.6,201.2z
						 M48.1,199.8c0.1-0.1,0.2-0.1,0.2-0.2c0.1-0.1,0-0.2,0-0.3c-0.1-0.1-0.3-0.3-0.4-0.4c-0.1-0.1-0.3-0.1-0.4,0s-0.1,0.3,0,0.4
						c0.1,0.1,0.2,0.3,0.4,0.4C47.9,199.7,48,199.8,48.1,199.8L48.1,199.8L48.1,199.8z M48.8,197.7c0,0.1,0,0.2,0.1,0.2
						c0.1,0.1,0.3,0.3,0.4,0.4c0.1,0.1,0.3,0.1,0.4,0c0.1-0.1,0.1-0.3,0-0.4c-0.1-0.1-0.3-0.3-0.4-0.4c-0.1-0.1-0.2-0.1-0.3,0
						C48.9,197.6,48.8,197.6,48.8,197.7z M53.5,204.6c0,0,0-0.1-0.1-0.1c-0.1-0.1-0.3-0.3-0.4-0.4c-0.1-0.1-0.3-0.1-0.4,0
						c-0.1,0.1-0.1,0.3,0,0.4c0.1,0.1,0.3,0.3,0.4,0.4c0.1,0.1,0.2,0.1,0.3,0C53.4,204.8,53.5,204.8,53.5,204.6L53.5,204.6z
						 M54.2,202.6c-0.2,0-0.2,0.1-0.3,0.2s0,0.2,0.1,0.3c0.1,0.1,0.2,0.2,0.4,0.4c0.1,0.1,0.3,0.1,0.4,0c0.1-0.1,0.1-0.3,0-0.4
						c-0.1-0.1-0.2-0.3-0.4-0.4C54.3,202.6,54.3,202.6,54.2,202.6L54.2,202.6L54.2,202.6z"/>
					<path d="M46.4,199.9c0.2,0,0.4,0.1,0.5,0.2c0.3,0.3,0.6,0.6,0.9,0.9c1.5,1.5,3,3,4.6,4.6c0.2,0.2,0.2,0.3,0.2,0.6
						c-0.1,0.4-0.6,0.6-0.9,0.3c0,0,0,0-0.1-0.1c-1.8-1.8-3.7-3.6-5.5-5.5c-0.3-0.3-0.2-0.7,0.1-0.9
						C46.3,199.9,46.4,199.9,46.4,199.9L46.4,199.9L46.4,199.9z"/>
					<path d="M53.3,193.1c0.2,0,0.3,0.1,0.4,0.2c0.1,0.1,0.3,0.3,0.4,0.4c1.7,1.7,3.3,3.3,5,5c0.1,0.1,0.2,0.3,0.2,0.5
						c0,0.2-0.1,0.4-0.3,0.5s-0.4,0.1-0.6-0.1c0,0-0.1-0.1-0.1-0.1c-1.8-1.8-3.6-3.6-5.5-5.4c-0.3-0.3-0.2-0.8,0.2-0.9
						C53.2,193.1,53.2,193.1,53.3,193.1L53.3,193.1L53.3,193.1z"/>
					<path d="M54.2,197.5c0,0-0.1-0.1-0.2-0.1c-0.3-0.3-0.5-0.5-0.8-0.8c-0.1-0.1-0.1-0.3,0-0.4c0.1-0.1,0.3-0.1,0.4,0
						c0.3,0.3,0.5,0.5,0.8,0.8c0.1,0.1,0.1,0.2,0.1,0.3C54.4,197.4,54.3,197.5,54.2,197.5z"/>
					<path d="M56.3,199c0,0.2-0.1,0.2-0.2,0.3c-0.1,0.1-0.2,0-0.3-0.1c-0.2-0.2-0.4-0.4-0.6-0.6c-0.1-0.1-0.2-0.2-0.2-0.2
						c-0.1-0.1-0.1-0.3,0-0.4c0.1-0.1,0.3-0.1,0.4,0c0.3,0.3,0.5,0.5,0.8,0.8C56.3,198.9,56.3,199,56.3,199L56.3,199L56.3,199z"/>
					<path d="M53.1,198.6c0,0.1-0.1,0.2-0.2,0.3c-0.1,0.1-0.2,0-0.3-0.1c-0.1-0.1-0.2-0.2-0.4-0.4c-0.2-0.1-0.3-0.3-0.4-0.4
						c-0.1-0.1-0.1-0.3,0-0.4c0.1-0.1,0.3-0.1,0.4,0c0.2,0.2,0.5,0.5,0.8,0.8C53,198.4,53.1,198.5,53.1,198.6L53.1,198.6L53.1,198.6
						z"/>
					<path d="M54.7,200.8c-0.1,0-0.2-0.1-0.2-0.1c-0.3-0.3-0.5-0.5-0.8-0.8c-0.1-0.1-0.1-0.3,0-0.4c0.1-0.1,0.3-0.1,0.4,0
						c0.3,0.3,0.5,0.5,0.8,0.8c0.1,0.1,0.1,0.2,0.1,0.3C54.9,200.7,54.8,200.7,54.7,200.8L54.7,200.8L54.7,200.8z"/>
					<path d="M50.6,198.9c0.1,0,0.1,0.1,0.2,0.1c0.3,0.3,0.5,0.5,0.8,0.8c0.1,0.1,0.1,0.3,0,0.4c-0.1,0.1-0.3,0.1-0.4,0
						c-0.3-0.3-0.5-0.5-0.8-0.8c-0.1-0.1-0.1-0.2-0.1-0.3C50.4,198.9,50.5,198.9,50.6,198.9L50.6,198.9L50.6,198.9z"/>
					<path d="M50,201.7c-0.1,0-0.1-0.1-0.2-0.1c-0.3-0.3-0.5-0.5-0.8-0.8c-0.1-0.1-0.1-0.3,0-0.4c0.1-0.1,0.3-0.1,0.4,0
						c0.3,0.3,0.6,0.6,0.8,0.9c0.1,0.1,0.1,0.2,0,0.3S50.1,201.7,50,201.7L50,201.7L50,201.7z"/>
					<path d="M52.5,200.7c0,0,0.1,0,0.2,0.1c0.3,0.3,0.5,0.5,0.8,0.8c0.1,0.1,0.1,0.3,0,0.4s-0.3,0.1-0.4,0
						c-0.3-0.3-0.5-0.5-0.8-0.8c-0.1-0.1-0.1-0.2-0.1-0.3C52.2,200.8,52.3,200.7,52.5,200.7L52.5,200.7L52.5,200.7z"/>
					<path d="M51.9,203.5c-0.1,0-0.1-0.1-0.2-0.1c-0.3-0.3-0.5-0.5-0.8-0.8c-0.1-0.1-0.1-0.3,0-0.4s0.3-0.1,0.4,0
						c0.3,0.3,0.5,0.6,0.8,0.8c0.1,0.1,0.1,0.2,0.1,0.3S52,203.5,51.9,203.5z"/>
					<path d="M52,194.7c0.1,0,0.1,0.1,0.2,0.1c0.1,0.1,0.2,0.2,0.4,0.4c0.1,0.1,0.1,0.3,0,0.4c-0.1,0.1-0.3,0.1-0.4,0
						c-0.1-0.1-0.3-0.3-0.4-0.4c-0.1-0.1-0.1-0.2,0-0.3C51.8,194.7,51.8,194.7,52,194.7z"/>
					<path d="M51.3,196.8c-0.1,0.1-0.1,0.2-0.2,0.2c-0.1,0.1-0.2,0.1-0.3,0c-0.2-0.1-0.3-0.3-0.4-0.4c-0.1-0.1-0.1-0.3,0-0.4
						c0.1-0.1,0.2-0.1,0.4,0c0.2,0.1,0.3,0.3,0.5,0.5C51.2,196.6,51.2,196.7,51.3,196.8C51.2,196.7,51.3,196.8,51.3,196.8
						L51.3,196.8L51.3,196.8z"/>
					<path d="M57.8,200.5c0,0.1-0.1,0.2-0.2,0.2c-0.1,0.1-0.2,0.1-0.3,0c-0.2-0.1-0.3-0.3-0.4-0.4c-0.1-0.1-0.1-0.3,0-0.4
						c0.1-0.1,0.3-0.1,0.4,0c0.1,0.1,0.3,0.2,0.4,0.4C57.7,200.3,57.8,200.4,57.8,200.5L57.8,200.5L57.8,200.5z"/>
					<path d="M55.7,201.2c0,0,0.1,0,0.2,0.1c0.1,0.1,0.2,0.2,0.4,0.4c0.1,0.1,0.1,0.3,0,0.4s-0.3,0.1-0.4,0
						c-0.1-0.1-0.3-0.3-0.4-0.4c-0.1-0.1-0.1-0.2,0-0.3S55.6,201.2,55.7,201.2L55.7,201.2z"/>
					<path d="M48.2,199.8c-0.1-0.1-0.2-0.1-0.2-0.1c-0.1-0.1-0.3-0.2-0.4-0.4c-0.1-0.1-0.1-0.3,0-0.4c0.1-0.1,0.3-0.1,0.4,0
						c0.1,0.1,0.3,0.3,0.4,0.4c0.1,0.1,0.1,0.2,0,0.3C48.4,199.7,48.3,199.8,48.2,199.8L48.2,199.8L48.2,199.8z"/>
					<path d="M48.9,197.7c0.1-0.1,0.1-0.2,0.2-0.2c0.1-0.1,0.2-0.1,0.3,0c0.2,0.1,0.3,0.3,0.4,0.4c0.1,0.1,0.1,0.3,0,0.4
						s-0.3,0.1-0.4,0c-0.1-0.1-0.3-0.3-0.4-0.4C48.9,197.9,48.9,197.8,48.9,197.7z"/>
					<path d="M53.6,204.6c0,0.1,0,0.2-0.2,0.3s-0.2,0.1-0.3,0c-0.1-0.1-0.3-0.3-0.4-0.4c-0.1-0.1-0.1-0.3,0-0.4s0.3-0.1,0.4,0
						c0.2,0.1,0.3,0.3,0.4,0.4C53.5,204.5,53.6,204.6,53.6,204.6L53.6,204.6z"/>
					<path d="M54.3,202.6c0,0,0.1,0,0.2,0.1c0.1,0.1,0.3,0.2,0.4,0.4c0.1,0.1,0.1,0.3,0,0.4c-0.1,0.1-0.3,0.1-0.4,0
						c-0.1-0.1-0.2-0.2-0.4-0.4c-0.1-0.1-0.1-0.2-0.1-0.3C54.1,202.6,54.2,202.6,54.3,202.6L54.3,202.6L54.3,202.6z"/>
				</g>
			</g>
			<g id="injury03">
				<circle class="st8" cx="98.7" cy="302.2" r="18"/>
				<g>
					<path d="M93,313.8c-3,0-5.6-2-6.2-5c-0.5-2.3,0-4.3,1.7-6c3.7-3.8,7.5-7.5,11.2-11.2c1-1,2.1-1.5,3.4-1.8
						c3.2-0.5,6.2,1.3,7.2,4.3c0.8,2.5,0.3,4.7-1.6,6.6c-3.7,3.7-7.4,7.4-11.1,11.1c-0.9,0.9-2,1.5-3.2,1.8
						C93.9,313.7,93.4,313.8,93,313.8L93,313.8L93,313.8z M88.2,307.4c0,0.1,0,0.4,0.1,0.6c0,0.1,0,0.2,0.1,0.3
						c0.5,2.3,2.7,4,5.1,3.7c1.2-0.1,2.1-0.6,2.9-1.4c3.7-3.7,7.5-7.5,11.2-11.2c1.2-1.2,1.6-2.6,1.3-4.3c-0.5-2.5-2.8-4.1-5.3-3.8
						c-1.1,0.1-2.1,0.6-2.8,1.4c-3.7,3.7-7.4,7.5-11.2,11.2C88.7,304.9,88.2,306,88.2,307.4L88.2,307.4L88.2,307.4z"/>
					<path class="st5" d="M88.1,307.4c0-1.4,0.5-2.5,1.4-3.5c3.7-3.7,7.4-7.5,11.2-11.2c0.8-0.8,1.7-1.2,2.8-1.4
						c2.5-0.3,4.8,1.4,5.3,3.8c0.3,1.6-0.1,3.1-1.3,4.3c-3.7,3.7-7.5,7.5-11.2,11.2c-0.8,0.8-1.8,1.3-2.9,1.4
						c-2.4,0.2-4.6-1.4-5.1-3.7c0-0.1-0.1-0.2-0.1-0.3C88.1,307.8,88.1,307.6,88.1,307.4L88.1,307.4L88.1,307.4z M92.2,301.8
						c-0.1,0-0.2,0-0.2,0.1c-0.3,0.2-0.3,0.6-0.1,0.9c1.8,1.8,3.7,3.6,5.5,5.5c0,0,0,0,0.1,0c0.3,0.3,0.8,0.1,0.9-0.3
						c0.1-0.2,0-0.4-0.2-0.6c-1.5-1.5-3-3-4.6-4.6c-0.3-0.3-0.6-0.6-0.9-0.9C92.6,301.9,92.5,301.9,92.2,301.8L92.2,301.8
						L92.2,301.8z M99.1,295c-0.1,0-0.1,0-0.2,0c-0.4,0.1-0.5,0.6-0.2,0.9c1.8,1.8,3.6,3.6,5.4,5.5c0,0,0.1,0.1,0.1,0.1
						c0.2,0.1,0.4,0.1,0.6,0.1s0.3-0.3,0.3-0.5c0-0.2-0.1-0.3-0.2-0.5c-1.7-1.7-3.3-3.3-5-5c-0.1-0.1-0.3-0.3-0.4-0.4
						C99.4,295.1,99.3,295,99.1,295L99.1,295L99.1,295z M99.9,299.4c0.2,0,0.2-0.1,0.3-0.2c0.1-0.1,0-0.2-0.1-0.3
						c-0.3-0.3-0.5-0.5-0.8-0.8c-0.1-0.1-0.3-0.1-0.4,0c-0.1,0.1-0.1,0.3,0,0.4c0.3,0.3,0.5,0.5,0.8,0.8
						C99.8,299.4,99.9,299.4,99.9,299.4z M102.1,301c0,0,0-0.1-0.1-0.1c-0.3-0.3-0.5-0.5-0.8-0.8c-0.1-0.1-0.3-0.1-0.4,0
						c-0.1,0.1-0.1,0.3,0,0.4c0.1,0.1,0.2,0.2,0.2,0.2c0.2,0.2,0.4,0.4,0.6,0.6c0.1,0.1,0.2,0.1,0.3,0.1
						C102.1,301.2,102.1,301.1,102.1,301L102.1,301L102.1,301z M98.9,300.5c-0.1-0.1-0.1-0.2-0.1-0.2c-0.2-0.3-0.5-0.5-0.8-0.8
						c-0.1-0.1-0.3-0.1-0.4,0s-0.1,0.3,0,0.4c0.2,0.1,0.3,0.3,0.4,0.4c0.1,0.1,0.2,0.2,0.4,0.4c0.1,0.1,0.2,0.1,0.3,0
						C98.8,300.7,98.9,300.7,98.9,300.5L98.9,300.5L98.9,300.5z M100.4,302.7c0.1,0,0.2-0.1,0.3-0.2c0.1-0.1,0-0.2-0.1-0.3
						c-0.3-0.3-0.5-0.5-0.8-0.8c-0.1-0.1-0.3-0.1-0.4,0c-0.1,0.1-0.1,0.3,0,0.4c0.3,0.3,0.5,0.5,0.8,0.8
						C100.3,302.6,100.3,302.6,100.4,302.7L100.4,302.7L100.4,302.7z M96.4,300.8c-0.1,0-0.2,0.1-0.3,0.2c-0.1,0.1,0,0.2,0.1,0.3
						c0.3,0.3,0.5,0.5,0.8,0.8c0.1,0.1,0.3,0.1,0.4,0c0.1-0.1,0.1-0.3,0-0.4c-0.3-0.3-0.5-0.5-0.8-0.8
						C96.5,300.8,96.5,300.8,96.4,300.8L96.4,300.8L96.4,300.8z M95.8,303.6c0.1,0,0.2-0.1,0.3-0.2c0.1-0.1,0.1-0.2,0-0.3
						c-0.3-0.3-0.6-0.6-0.8-0.9c-0.1-0.1-0.3-0.1-0.4,0c-0.1,0.1-0.1,0.3,0,0.4c0.3,0.3,0.5,0.5,0.8,0.8
						C95.7,303.6,95.7,303.6,95.8,303.6L95.8,303.6L95.8,303.6z M98.3,302.7c-0.2,0-0.2,0.1-0.3,0.2c-0.1,0.1,0,0.2,0.1,0.3
						c0.3,0.3,0.5,0.5,0.8,0.8c0.1,0.1,0.3,0.1,0.4,0c0.1-0.1,0.1-0.3,0-0.4c-0.3-0.3-0.5-0.5-0.8-0.8
						C98.4,302.7,98.3,302.7,98.3,302.7L98.3,302.7L98.3,302.7z M97.7,305.5c0.1,0,0.2-0.1,0.3-0.2s0-0.2-0.1-0.3
						c-0.3-0.3-0.6-0.5-0.8-0.8c-0.1-0.1-0.3-0.1-0.4,0s-0.1,0.3,0,0.4c0.3,0.3,0.5,0.5,0.8,0.8C97.5,305.4,97.6,305.4,97.7,305.5
						L97.7,305.5L97.7,305.5z M97.8,296.6c-0.1,0-0.2,0.1-0.3,0.2c0,0.1,0,0.2,0.1,0.3c0.1,0.1,0.3,0.3,0.4,0.4
						c0.1,0.1,0.3,0.1,0.4,0c0.1-0.1,0.1-0.3,0-0.4c-0.1-0.1-0.2-0.2-0.4-0.4C97.9,296.7,97.8,296.6,97.8,296.6z M97.1,298.7
						C97.1,298.7,97.1,298.7,97.1,298.7c0-0.1,0-0.1-0.1-0.2c-0.2-0.2-0.3-0.3-0.5-0.5c-0.1-0.1-0.3-0.1-0.4,0
						c-0.1,0.1-0.1,0.3,0,0.4c0.1,0.1,0.3,0.3,0.4,0.4c0.1,0.1,0.2,0.1,0.3,0C96.9,298.9,97,298.8,97.1,298.7L97.1,298.7L97.1,298.7
						z M103.6,302.4c0-0.1-0.1-0.1-0.1-0.2c-0.1-0.1-0.2-0.3-0.4-0.4c-0.1-0.1-0.3-0.1-0.4,0c-0.1,0.1-0.1,0.3,0,0.4
						c0.1,0.2,0.3,0.3,0.4,0.4c0.1,0.1,0.2,0.1,0.3,0C103.5,302.6,103.5,302.5,103.6,302.4L103.6,302.4L103.6,302.4z M101.5,303.2
						c-0.2,0-0.2,0-0.3,0.2c-0.1,0.1,0,0.2,0,0.3c0.1,0.1,0.3,0.3,0.4,0.4c0.1,0.1,0.3,0.1,0.4,0s0.1-0.3,0-0.4s-0.2-0.2-0.4-0.4
						C101.7,303.2,101.6,303.2,101.5,303.2L101.5,303.2z M94,301.8c0.1-0.1,0.2-0.1,0.2-0.2c0.1-0.1,0.1-0.2,0-0.3
						c-0.1-0.1-0.3-0.3-0.4-0.4c-0.1-0.1-0.3-0.1-0.4,0s-0.1,0.3,0,0.4c0.1,0.1,0.2,0.3,0.4,0.4C93.8,301.7,93.9,301.7,94,301.8
						L94,301.8L94,301.8z M94.7,299.7c0,0.1,0.1,0.2,0.1,0.2c0.1,0.1,0.3,0.3,0.4,0.4c0.1,0.1,0.3,0.1,0.4,0c0.1-0.1,0.1-0.3,0-0.4
						c-0.1-0.1-0.3-0.3-0.4-0.4c-0.1-0.1-0.2-0.1-0.3,0C94.8,299.5,94.7,299.6,94.7,299.7C94.7,299.7,94.7,299.7,94.7,299.7z
						 M99.4,306.6c0,0,0-0.1-0.1-0.1c-0.1-0.1-0.3-0.3-0.4-0.4c-0.1-0.1-0.3-0.1-0.4,0c-0.1,0.1-0.1,0.3,0,0.4
						c0.1,0.1,0.3,0.3,0.4,0.4c0.1,0.1,0.2,0.1,0.3,0C99.3,306.8,99.4,306.7,99.4,306.6L99.4,306.6L99.4,306.6z M100.1,304.6
						c-0.2,0-0.2,0.1-0.3,0.2c-0.1,0.1,0,0.2,0.1,0.3c0.1,0.1,0.2,0.2,0.4,0.4c0.1,0.1,0.3,0.1,0.4,0c0.1-0.1,0.1-0.3,0-0.4
						c-0.1-0.1-0.2-0.3-0.4-0.4C100.2,304.6,100.2,304.6,100.1,304.6L100.1,304.6L100.1,304.6z"/>
					<path d="M92.3,301.8c0.2,0,0.4,0.1,0.5,0.2c0.3,0.3,0.6,0.6,0.9,0.9c1.5,1.5,3,3,4.6,4.6c0.2,0.2,0.2,0.3,0.2,0.6
						c-0.1,0.4-0.6,0.5-0.9,0.3c0,0,0,0-0.1,0c-1.8-1.8-3.7-3.6-5.5-5.5c-0.3-0.3-0.2-0.7,0.1-0.9C92.2,301.9,92.3,301.9,92.3,301.8
						L92.3,301.8L92.3,301.8z"/>
					<path d="M99.2,295c0.2,0,0.3,0.1,0.4,0.2c0.1,0.1,0.3,0.3,0.4,0.4c1.7,1.7,3.3,3.3,5,5c0.1,0.1,0.2,0.3,0.2,0.5
						c0,0.2-0.1,0.4-0.3,0.5s-0.4,0.1-0.6-0.1c0,0-0.1,0-0.1-0.1c-1.8-1.8-3.6-3.6-5.4-5.5c-0.3-0.3-0.2-0.8,0.2-0.9
						C99.1,295,99.2,295,99.2,295L99.2,295L99.2,295z"/>
					<path d="M100.1,299.4c0,0-0.1,0-0.2-0.1c-0.3-0.3-0.5-0.5-0.8-0.8c-0.1-0.1-0.1-0.3,0-0.4c0.1-0.1,0.3-0.1,0.4,0
						c0.3,0.3,0.5,0.5,0.8,0.8c0.1,0.1,0.1,0.2,0.1,0.3C100.3,299.4,100.2,299.4,100.1,299.4z"/>
					<path d="M102.2,301c0,0.2-0.1,0.2-0.2,0.3c-0.1,0-0.2,0-0.3-0.1l-0.6-0.6c-0.1-0.1-0.2-0.2-0.2-0.2c-0.1-0.1-0.1-0.3,0-0.4
						c0.1-0.1,0.3-0.1,0.4,0c0.3,0.3,0.6,0.5,0.8,0.8C102.2,300.9,102.2,300.9,102.2,301L102.2,301L102.2,301z"/>
					<path d="M99,300.5c0,0.1-0.1,0.2-0.2,0.3c-0.1,0-0.2,0-0.3,0c-0.1-0.1-0.2-0.2-0.4-0.4c-0.2-0.1-0.3-0.3-0.4-0.4
						c-0.1-0.1-0.1-0.3,0-0.4c0.1-0.1,0.3-0.1,0.4,0c0.2,0.2,0.5,0.5,0.8,0.8C98.9,300.4,99,300.5,99,300.5L99,300.5L99,300.5z"/>
					<path d="M100.6,302.7c-0.1,0-0.2-0.1-0.2-0.1c-0.3-0.3-0.5-0.5-0.8-0.8c-0.1-0.1-0.1-0.3,0-0.4c0.1-0.1,0.3-0.1,0.4,0
						c0.3,0.3,0.5,0.5,0.8,0.8c0.1,0.1,0.1,0.2,0.1,0.3C100.8,302.6,100.7,302.7,100.6,302.7L100.6,302.7L100.6,302.7z"/>
					<path d="M96.5,300.8c0.1,0,0.1,0.1,0.2,0.1c0.3,0.3,0.5,0.5,0.8,0.8c0.1,0.1,0.1,0.3,0,0.4c-0.1,0.1-0.3,0.1-0.4,0
						c-0.3-0.3-0.5-0.5-0.8-0.8c-0.1-0.1-0.1-0.2-0.1-0.3C96.3,300.9,96.4,300.8,96.5,300.8L96.5,300.8L96.5,300.8z"/>
					<path d="M95.9,303.6c-0.1,0-0.1-0.1-0.2-0.1c-0.3-0.3-0.5-0.5-0.8-0.8c-0.1-0.1-0.1-0.3,0-0.4c0.1-0.1,0.3-0.1,0.4,0
						c0.3,0.3,0.6,0.6,0.8,0.9c0.1,0.1,0.1,0.2,0,0.3C96.1,303.6,96.1,303.6,95.9,303.6L95.9,303.6L95.9,303.6z"/>
					<path d="M98.4,302.7c0,0,0.1,0,0.2,0.1c0.3,0.3,0.5,0.5,0.8,0.8c0.1,0.1,0.1,0.3,0,0.4s-0.3,0.1-0.4,0
						c-0.3-0.3-0.5-0.5-0.8-0.8c-0.1-0.1-0.1-0.2-0.1-0.3C98.1,302.8,98.2,302.7,98.4,302.7L98.4,302.7L98.4,302.7z"/>
					<path d="M97.8,305.5c-0.1,0-0.1-0.1-0.2-0.1c-0.3-0.3-0.5-0.5-0.8-0.8c-0.1-0.1-0.1-0.3,0-0.4s0.3-0.1,0.4,0
						c0.3,0.3,0.6,0.5,0.8,0.8c0.1,0.1,0.1,0.2,0.1,0.3S97.9,305.5,97.8,305.5L97.8,305.5L97.8,305.5z"/>
					<path d="M97.9,296.6c0.1,0,0.1,0.1,0.2,0.1c0.1,0.1,0.2,0.2,0.4,0.4c0.1,0.1,0.1,0.3,0,0.4c-0.1,0.1-0.3,0.1-0.4,0
						c-0.1-0.1-0.3-0.3-0.4-0.4c-0.1-0.1-0.1-0.2-0.1-0.3C97.7,296.7,97.7,296.6,97.9,296.6z"/>
					<path d="M97.2,298.7c-0.1,0.1-0.1,0.2-0.2,0.2c-0.1,0.1-0.2,0.1-0.3,0c-0.2-0.1-0.3-0.3-0.4-0.4c-0.1-0.1-0.1-0.3,0-0.4
						c0.1-0.1,0.2-0.1,0.4,0c0.2,0.1,0.3,0.3,0.5,0.5C97.1,298.6,97.1,298.6,97.2,298.7C97.2,298.7,97.2,298.7,97.2,298.7
						L97.2,298.7L97.2,298.7z"/>
					<path d="M103.7,302.4c0,0.1-0.1,0.2-0.2,0.2c-0.1,0-0.2,0-0.3,0c-0.2-0.1-0.3-0.3-0.4-0.4c-0.1-0.1-0.1-0.3,0-0.4
						c0.1-0.1,0.3-0.1,0.4,0c0.1,0.1,0.3,0.2,0.4,0.4C103.6,302.3,103.7,302.4,103.7,302.4L103.7,302.4L103.7,302.4z"/>
					<path d="M101.7,303.1c0,0,0.1,0,0.2,0.1c0.1,0.1,0.2,0.2,0.4,0.4c0.1,0.1,0.1,0.3,0,0.4s-0.3,0.1-0.4,0
						c-0.1-0.1-0.3-0.3-0.4-0.4c-0.1-0.1-0.1-0.2,0-0.3S101.5,303.2,101.7,303.1L101.7,303.1z"/>
					<path d="M94.1,301.8c-0.1,0-0.2-0.1-0.2-0.1c-0.1-0.1-0.3-0.2-0.4-0.4c-0.1-0.1-0.1-0.3,0-0.4c0.1-0.1,0.3-0.1,0.4,0
						c0.1,0.1,0.3,0.3,0.4,0.4c0.1,0.1,0.1,0.2,0,0.3C94.3,301.7,94.2,301.7,94.1,301.8L94.1,301.8L94.1,301.8z"/>
					<path d="M94.8,299.7c0.1-0.1,0.1-0.2,0.2-0.2c0.1-0.1,0.2-0.1,0.3,0c0.2,0.1,0.3,0.3,0.4,0.4c0.1,0.1,0.1,0.3,0,0.4
						s-0.3,0.1-0.4,0c-0.1-0.1-0.3-0.3-0.4-0.4C94.8,299.8,94.8,299.8,94.8,299.7C94.8,299.7,94.8,299.7,94.8,299.7z"/>
					<path d="M99.5,306.6c0,0.1-0.1,0.2-0.2,0.3s-0.2,0-0.3,0c-0.1-0.1-0.3-0.3-0.4-0.4c-0.1-0.1-0.1-0.3,0-0.4
						c0.1-0.1,0.3-0.1,0.4,0c0.2,0.1,0.3,0.3,0.4,0.4C99.5,306.5,99.5,306.5,99.5,306.6L99.5,306.6L99.5,306.6z"/>
					<path d="M100.2,304.5c0,0,0.1,0,0.2,0.1c0.1,0.1,0.3,0.2,0.4,0.4c0.1,0.1,0.1,0.3,0,0.4c-0.1,0.1-0.3,0.1-0.4,0
						c-0.1-0.1-0.2-0.2-0.4-0.4c-0.1-0.1-0.1-0.2-0.1-0.3C100,304.6,100.1,304.5,100.2,304.5L100.2,304.5L100.2,304.5z"/>
				</g>
			</g>
			<g id="injury02">
				<circle class="st8" cx="272.3" cy="333.9" r="18"/>
				<g>
					<path d="M266.6,345.4c-3,0-5.6-2-6.2-5c-0.5-2.3,0-4.3,1.7-6c3.7-3.8,7.5-7.5,11.2-11.2c1-1,2.1-1.5,3.5-1.8
						c3.2-0.5,6.2,1.3,7.2,4.3c0.8,2.5,0.3,4.7-1.6,6.6c-3.7,3.7-7.4,7.4-11.1,11.1c-0.9,0.9-2,1.5-3.2,1.8
						C267.5,345.4,267,345.4,266.6,345.4L266.6,345.4L266.6,345.4z M261.8,339.1c0,0.1,0,0.4,0.1,0.6c0,0.1,0,0.2,0.1,0.3
						c0.5,2.3,2.7,4,5.1,3.7c1.1-0.1,2.1-0.6,3-1.4c3.7-3.7,7.5-7.5,11.2-11.2c1.2-1.2,1.6-2.6,1.3-4.3c-0.5-2.5-2.8-4.1-5.3-3.8
						c-1.1,0.1-2,0.6-2.8,1.4c-3.7,3.7-7.5,7.5-11.2,11.2C262.3,336.5,261.8,337.6,261.8,339.1L261.8,339.1z"/>
					<path class="st5" d="M261.7,339c0-1.4,0.5-2.5,1.4-3.5c3.7-3.7,7.5-7.5,11.2-11.2c0.8-0.8,1.7-1.2,2.8-1.4
						c2.5-0.3,4.8,1.4,5.3,3.8c0.3,1.6-0.1,3.1-1.3,4.3c-3.7,3.7-7.5,7.5-11.2,11.2c-0.8,0.8-1.8,1.3-3,1.4
						c-2.4,0.2-4.6-1.4-5.1-3.7c0-0.1,0-0.2-0.1-0.3C261.7,339.4,261.7,339.2,261.7,339L261.7,339z M265.9,333.5c0,0-0.2,0-0.2,0.1
						c-0.3,0.2-0.4,0.6-0.1,0.9l5.5,5.5c0,0,0,0,0.1,0c0.3,0.3,0.8,0.1,0.9-0.3c0.1-0.2,0-0.4-0.2-0.6c-1.5-1.5-3-3-4.6-4.6
						l-0.9-0.9C266.2,333.6,266.1,333.5,265.9,333.5L265.9,333.5L265.9,333.5z M272.7,326.6c0,0-0.1,0-0.1,0
						c-0.4,0.1-0.5,0.6-0.2,0.9c1.8,1.8,3.6,3.6,5.5,5.5c0,0,0.1,0.1,0.1,0.1c0.2,0.1,0.4,0.1,0.6,0.1s0.3-0.3,0.3-0.5
						c0-0.2-0.1-0.3-0.2-0.5l-5-5l-0.4-0.4C273,326.7,272.9,326.6,272.7,326.6L272.7,326.6L272.7,326.6z M273.6,331.1
						c0.2,0,0.2-0.1,0.3-0.2c0.1-0.1,0-0.2-0.1-0.3l-0.8-0.8c-0.1-0.1-0.3-0.1-0.4,0c-0.1,0.1-0.1,0.3,0,0.4l0.8,0.8
						C273.5,331,273.5,331,273.6,331.1L273.6,331.1L273.6,331.1z M275.8,332.6c0,0,0-0.1-0.1-0.1c-0.3-0.3-0.5-0.5-0.8-0.8
						c-0.1-0.1-0.3-0.1-0.4,0c-0.1,0.1-0.1,0.3,0,0.4c0.1,0.1,0.2,0.2,0.2,0.2c0.2,0.2,0.4,0.4,0.6,0.6c0.1,0.1,0.2,0.1,0.3,0.1
						C275.7,332.9,275.8,332.8,275.8,332.6L275.8,332.6L275.8,332.6z M272.5,332.2c0-0.1-0.1-0.2-0.1-0.2c-0.2-0.3-0.5-0.5-0.8-0.8
						c-0.1-0.1-0.3-0.1-0.4,0c-0.1,0.1-0.1,0.3,0,0.4c0.1,0.1,0.3,0.3,0.4,0.4l0.4,0.4c0.1,0.1,0.2,0.1,0.3,0
						C272.4,332.4,272.5,332.3,272.5,332.2L272.5,332.2L272.5,332.2z M274.1,334.3c0.1,0,0.2-0.1,0.3-0.2c0-0.1,0-0.2-0.1-0.3
						l-0.8-0.8c-0.1-0.1-0.3-0.1-0.4,0c-0.1,0.1-0.1,0.3,0,0.4c0.3,0.3,0.5,0.5,0.8,0.8C273.9,334.2,274,334.3,274.1,334.3
						L274.1,334.3z M270,332.4c-0.1,0-0.2,0.1-0.3,0.2c0,0.1,0,0.2,0.1,0.3c0.3,0.3,0.5,0.5,0.8,0.8c0.1,0.1,0.3,0.1,0.4,0
						c0.1-0.1,0.1-0.3,0-0.4c-0.3-0.3-0.5-0.5-0.8-0.8C270.2,332.5,270.1,332.4,270,332.4L270,332.4L270,332.4z M269.4,335.2
						c0.1,0,0.2-0.1,0.3-0.2c0.1-0.1,0-0.2,0-0.3c-0.3-0.3-0.6-0.6-0.9-0.9c-0.1-0.1-0.3-0.1-0.4,0c-0.1,0.1-0.1,0.3,0,0.4l0.8,0.8
						C269.2,335.1,269.4,335.2,269.4,335.2L269.4,335.2L269.4,335.2z M271.9,334.3c-0.2,0-0.2,0.1-0.3,0.2c0,0.1,0,0.2,0.1,0.3
						c0.3,0.3,0.5,0.5,0.8,0.8c0.1,0.1,0.3,0.1,0.4,0c0.1-0.1,0.1-0.3,0-0.4c-0.3-0.3-0.5-0.5-0.8-0.8
						C272,334.3,272,334.3,271.9,334.3L271.9,334.3z M271.3,337.1c0.1,0,0.2-0.1,0.3-0.2s0-0.2-0.1-0.3l-0.8-0.8
						c-0.1-0.1-0.3-0.1-0.4,0c-0.1,0.1-0.1,0.3,0,0.4l0.8,0.8C271.1,337,271.2,337.1,271.3,337.1L271.3,337.1L271.3,337.1z
						 M271.4,328.2c-0.1,0-0.2,0.1-0.3,0.2c0,0.1,0,0.2,0,0.3c0.1,0.1,0.3,0.3,0.4,0.4c0.1,0.1,0.3,0.1,0.4,0c0.1-0.1,0.1-0.3,0-0.4
						c-0.1-0.1-0.2-0.2-0.4-0.4C271.5,328.3,271.5,328.3,271.4,328.2L271.4,328.2L271.4,328.2z M270.7,330.3
						C270.7,330.3,270.7,330.3,270.7,330.3c0-0.1,0-0.1-0.1-0.2c-0.1-0.2-0.3-0.3-0.5-0.5c-0.1-0.1-0.3-0.1-0.4,0
						c-0.1,0.1-0.1,0.3,0,0.4c0.1,0.1,0.3,0.3,0.4,0.4c0.1,0.1,0.2,0.1,0.3,0C270.6,330.5,270.6,330.4,270.7,330.3L270.7,330.3
						L270.7,330.3z M277.2,334c0-0.1,0-0.1-0.1-0.2c-0.1-0.1-0.2-0.3-0.4-0.4c-0.1-0.1-0.3-0.1-0.4,0c-0.1,0.1-0.1,0.3,0,0.4
						c0.1,0.2,0.3,0.3,0.4,0.4c0.1,0.1,0.2,0.1,0.3,0C277.1,334.2,277.2,334.1,277.2,334L277.2,334L277.2,334z M275.2,334.8
						c-0.2,0-0.2,0-0.3,0.2c0,0.1,0,0.2,0,0.3c0.1,0.1,0.3,0.3,0.4,0.4c0.1,0.1,0.3,0.1,0.4,0s0.1-0.3,0-0.4s-0.2-0.2-0.4-0.4
						C275.3,334.8,275.2,334.8,275.2,334.8L275.2,334.8L275.2,334.8z M267.6,333.4c0.1-0.1,0.2-0.1,0.2-0.2c0.1-0.1,0-0.2,0-0.3
						c-0.1-0.1-0.3-0.3-0.4-0.4c-0.1-0.1-0.3-0.1-0.4,0s-0.1,0.3,0,0.4c0.1,0.1,0.2,0.3,0.4,0.4
						C267.4,333.3,267.5,333.4,267.6,333.4L267.6,333.4L267.6,333.4z M268.3,331.3c0,0.1,0,0.2,0.1,0.2c0.1,0.1,0.3,0.3,0.4,0.4
						c0.1,0.1,0.3,0.1,0.4,0c0.1-0.1,0.1-0.3,0-0.4c-0.1-0.1-0.3-0.3-0.4-0.4c-0.1-0.1-0.2-0.1-0.3,0
						C268.4,331.2,268.4,331.2,268.3,331.3z M273,338.2c0,0,0-0.1-0.1-0.1c-0.1-0.1-0.3-0.3-0.4-0.4c-0.1-0.1-0.3-0.1-0.4,0
						c-0.1,0.1-0.1,0.3,0,0.4c0.1,0.1,0.3,0.3,0.4,0.4c0.1,0.1,0.2,0.1,0.3,0C272.9,338.4,273,338.4,273,338.2L273,338.2L273,338.2z
						 M273.8,336.2c-0.2,0-0.2,0.1-0.3,0.2c0,0.1,0,0.2,0.1,0.3c0.1,0.1,0.2,0.2,0.4,0.4c0.1,0.1,0.3,0.1,0.4,0
						c0.1-0.1,0.1-0.3,0-0.4c-0.1-0.1-0.2-0.3-0.4-0.4C273.9,336.2,273.8,336.2,273.8,336.2L273.8,336.2L273.8,336.2z"/>
					<path d="M266,333.5c0.2,0,0.4,0.1,0.5,0.2c0.3,0.3,0.6,0.6,0.9,0.9c1.5,1.5,3,3,4.6,4.6c0.2,0.2,0.2,0.3,0.2,0.6
						c-0.1,0.4-0.6,0.5-0.9,0.3c0,0,0,0-0.1,0l-5.5-5.5c-0.3-0.3-0.2-0.7,0.1-0.9C265.8,333.5,265.9,333.5,266,333.5L266,333.5
						L266,333.5z"/>
					<path d="M272.8,326.6c0.2,0,0.3,0.1,0.4,0.2c0.1,0.1,0.3,0.3,0.4,0.4l5,5c0.1,0.1,0.2,0.3,0.2,0.5c0,0.2-0.1,0.4-0.3,0.5
						s-0.4,0.1-0.6-0.1c0,0-0.1,0-0.1-0.1c-1.8-1.8-3.6-3.6-5.5-5.5c-0.3-0.3-0.2-0.8,0.2-0.9C272.7,326.7,272.8,326.7,272.8,326.6
						L272.8,326.6L272.8,326.6z"/>
					<path d="M273.7,331.1c0,0-0.1,0-0.2-0.1l-0.8-0.8c-0.1-0.1-0.1-0.3,0-0.4c0.1-0.1,0.3-0.1,0.4,0l0.8,0.8
						c0.1,0.1,0.1,0.2,0.1,0.3C273.9,331,273.9,331,273.7,331.1L273.7,331.1L273.7,331.1z"/>
					<path d="M275.9,332.6c0,0.2-0.1,0.2-0.2,0.3c-0.1,0-0.2,0-0.3-0.1l-0.6-0.6c-0.1-0.1-0.2-0.2-0.2-0.2c-0.1-0.1-0.1-0.3,0-0.4
						c0.1-0.1,0.3-0.1,0.4,0c0.3,0.3,0.5,0.5,0.8,0.8C275.8,332.5,275.9,332.6,275.9,332.6L275.9,332.6L275.9,332.6z"/>
					<path d="M272.6,332.2c0,0.1-0.1,0.2-0.2,0.3c-0.1,0-0.2,0-0.3,0l-0.4-0.4c-0.1-0.1-0.3-0.3-0.4-0.4c-0.1-0.1-0.1-0.3,0-0.4
						c0.1-0.1,0.3-0.1,0.4,0c0.2,0.2,0.5,0.5,0.8,0.8C272.6,332,272.6,332.1,272.6,332.2L272.6,332.2L272.6,332.2z"/>
					<path d="M274.2,334.3c-0.1,0-0.1-0.1-0.2-0.1c-0.3-0.3-0.5-0.5-0.8-0.8c-0.1-0.1-0.1-0.3,0-0.4c0.1-0.1,0.3-0.1,0.4,0
						c0.3,0.3,0.5,0.5,0.8,0.8c0.1,0.1,0.1,0.2,0.1,0.3C274.4,334.2,274.3,334.3,274.2,334.3L274.2,334.3z"/>
					<path d="M270.1,332.5c0.1,0,0.1,0.1,0.2,0.1c0.3,0.3,0.5,0.5,0.8,0.8c0.1,0.1,0.1,0.3,0,0.4c-0.1,0.1-0.3,0.1-0.4,0
						c-0.3-0.3-0.5-0.5-0.8-0.8c-0.1-0.1-0.1-0.2-0.1-0.3C269.9,332.5,270,332.5,270.1,332.5L270.1,332.5L270.1,332.5z"/>
					<path d="M269.5,335.3c-0.1,0-0.1-0.1-0.2-0.1l-0.8-0.8c-0.1-0.1-0.1-0.3,0-0.4c0.1-0.1,0.3-0.1,0.4,0c0.3,0.3,0.6,0.6,0.9,0.9
						c0.1,0.1,0.1,0.2,0,0.3C269.8,335.2,269.7,335.3,269.5,335.3L269.5,335.3L269.5,335.3z"/>
					<path d="M272,334.3c0,0,0.1,0,0.2,0.1c0.3,0.3,0.5,0.5,0.8,0.8c0.1,0.1,0.1,0.3,0,0.4s-0.3,0.1-0.4,0c-0.3-0.3-0.5-0.5-0.8-0.8
						c-0.1-0.1-0.1-0.2-0.1-0.3C271.8,334.4,271.9,334.3,272,334.3L272,334.3z"/>
					<path d="M271.4,337.1c-0.1,0-0.1-0.1-0.2-0.1l-0.8-0.8c-0.1-0.1-0.1-0.3,0-0.4s0.3-0.1,0.4,0c0.3,0.3,0.5,0.5,0.8,0.8
						c0.1,0.1,0.1,0.2,0.1,0.3S271.5,337.1,271.4,337.1L271.4,337.1L271.4,337.1z"/>
					<path d="M271.5,328.2c0.1,0,0.1,0.1,0.2,0.1c0.1,0.1,0.2,0.2,0.4,0.4c0.1,0.1,0.1,0.3,0,0.4c-0.1,0.1-0.3,0.1-0.4,0
						c-0.1-0.1-0.3-0.3-0.4-0.4c-0.1-0.1-0.1-0.2,0-0.3C271.3,328.3,271.4,328.3,271.5,328.2L271.5,328.2L271.5,328.2z"/>
					<path d="M270.8,330.3c-0.1,0.1-0.1,0.2-0.2,0.2c-0.1,0.1-0.2,0.1-0.3,0c-0.1-0.1-0.3-0.3-0.4-0.4c-0.1-0.1-0.1-0.3,0-0.4
						c0.1-0.1,0.2-0.1,0.4,0c0.2,0.1,0.3,0.3,0.5,0.5C270.8,330.2,270.8,330.3,270.8,330.3C270.8,330.3,270.8,330.3,270.8,330.3
						L270.8,330.3L270.8,330.3z"/>
					<path d="M277.3,334c0,0.1-0.1,0.2-0.2,0.2c-0.1,0-0.2,0-0.3,0c-0.1-0.1-0.3-0.3-0.4-0.4c-0.1-0.1-0.1-0.3,0-0.4
						c0.1-0.1,0.3-0.1,0.4,0c0.1,0.1,0.3,0.2,0.4,0.4C277.3,333.9,277.3,334,277.3,334L277.3,334L277.3,334z"/>
					<path d="M275.3,334.8c0,0,0.1,0,0.2,0.1c0.1,0.1,0.2,0.2,0.4,0.4c0.1,0.1,0.1,0.3,0,0.4s-0.3,0.1-0.4,0
						c-0.1-0.1-0.3-0.3-0.4-0.4c-0.1-0.1-0.1-0.2,0-0.3S275.1,334.8,275.3,334.8L275.3,334.8L275.3,334.8z"/>
					<path d="M267.7,333.4c-0.1,0-0.2-0.1-0.2-0.1c-0.1-0.1-0.3-0.2-0.4-0.4c-0.1-0.1-0.1-0.3,0-0.4c0.1-0.1,0.3-0.1,0.4,0
						c0.1,0.1,0.3,0.3,0.4,0.4c0.1,0.1,0.1,0.2,0,0.3C267.9,333.3,267.8,333.4,267.7,333.4L267.7,333.4L267.7,333.4z"/>
					<path d="M268.4,331.3c0.1-0.1,0.1-0.2,0.2-0.2c0.1-0.1,0.2-0.1,0.3,0c0.1,0.1,0.3,0.3,0.4,0.4c0.1,0.1,0.1,0.3,0,0.4
						c-0.1,0.1-0.3,0.1-0.4,0c-0.1-0.1-0.3-0.3-0.4-0.4C268.5,331.5,268.5,331.4,268.4,331.3z"/>
					<path d="M273.1,338.2c0,0.1,0,0.2-0.2,0.3c-0.1,0-0.2,0-0.3,0c-0.1-0.1-0.3-0.3-0.4-0.4c-0.1-0.1-0.1-0.3,0-0.4s0.3-0.1,0.4,0
						c0.1,0.1,0.3,0.3,0.4,0.4C273.1,338.1,273.1,338.2,273.1,338.2L273.1,338.2L273.1,338.2z"/>
					<path d="M273.9,336.2c0,0,0.1,0,0.2,0.1c0.1,0.1,0.3,0.2,0.4,0.4c0.1,0.1,0.1,0.3,0,0.4c-0.1,0.1-0.3,0.1-0.4,0
						c-0.1-0.1-0.2-0.2-0.4-0.4c-0.1-0.1-0.1-0.2-0.1-0.3C273.6,336.2,273.7,336.2,273.9,336.2L273.9,336.2L273.9,336.2z"/>
				</g>
			</g>
			<g id="injury01">
				<circle class="st8" cx="254.3" cy="18.5" r="18"/>
				<g>
					<path d="M248.6,30c-3,0-5.6-2-6.2-4.9c-0.5-2.3,0-4.3,1.7-6c3.7-3.8,7.5-7.5,11.2-11.2c1-1,2.1-1.6,3.5-1.8
						c3.2-0.5,6.2,1.3,7.2,4.3c0.8,2.5,0.3,4.7-1.6,6.6c-3.7,3.7-7.4,7.4-11.1,11.1c-0.9,0.9-2,1.5-3.2,1.8
						C249.5,30,249.1,30,248.6,30L248.6,30z M243.8,23.6c0,0.1,0,0.4,0.1,0.6c0,0.1,0,0.2,0.1,0.3c0.5,2.3,2.7,4,5.1,3.7
						c1.1-0.1,2.1-0.6,2.9-1.4c3.7-3.7,7.5-7.5,11.2-11.2c1.2-1.2,1.6-2.6,1.3-4.3c-0.5-2.5-2.8-4.2-5.3-3.8c-1.1,0.1-2,0.6-2.8,1.4
						c-3.7,3.7-7.4,7.4-11.2,11.2C244.3,21.1,243.9,22.2,243.8,23.6L243.8,23.6L243.8,23.6z"/>
					<path class="st5" d="M243.7,23.6c0-1.4,0.5-2.5,1.4-3.5c3.7-3.7,7.4-7.4,11.2-11.2c0.8-0.8,1.7-1.2,2.8-1.4
						c2.5-0.3,4.8,1.4,5.3,3.8c0.3,1.6-0.1,3.1-1.3,4.3c-3.7,3.7-7.5,7.5-11.2,11.2c-0.8,0.8-1.8,1.3-2.9,1.4
						c-2.4,0.2-4.6-1.4-5.1-3.7c0-0.1-0.1-0.2-0.1-0.3C243.8,24,243.7,23.8,243.7,23.6L243.7,23.6L243.7,23.6z M247.9,18.1
						c0,0-0.2,0-0.2,0.1c-0.3,0.2-0.4,0.6-0.1,0.9c1.8,1.8,3.6,3.6,5.5,5.5c0,0,0,0,0.1,0c0.3,0.3,0.8,0.1,0.9-0.3
						c0.1-0.2,0-0.4-0.2-0.6c-1.5-1.5-3-3-4.6-4.6c-0.3-0.3-0.6-0.6-0.9-0.9C248.3,18.1,248.1,18.1,247.9,18.1L247.9,18.1
						L247.9,18.1z M254.8,11.2c0,0-0.1,0-0.1,0c-0.4,0.1-0.5,0.6-0.2,0.9c1.8,1.8,3.6,3.6,5.5,5.4c0,0,0.1,0.1,0.1,0.1
						c0.2,0.1,0.4,0.1,0.6,0.1s0.3-0.3,0.3-0.5c0-0.2-0.1-0.3-0.2-0.5c-1.7-1.7-3.3-3.3-5-5c-0.1-0.1-0.3-0.3-0.4-0.4
						C255.1,11.3,254.9,11.2,254.8,11.2L254.8,11.2L254.8,11.2z M255.6,15.6c0.2,0,0.2-0.1,0.3-0.2c0.1-0.1,0-0.2-0.1-0.3
						c-0.3-0.3-0.5-0.5-0.8-0.8c-0.1-0.1-0.3-0.1-0.4,0c-0.1,0.1-0.1,0.3,0,0.4c0.3,0.3,0.5,0.5,0.8,0.8
						C255.5,15.6,255.6,15.6,255.6,15.6L255.6,15.6z M257.8,17.2c0,0,0-0.1-0.1-0.1c-0.3-0.3-0.5-0.5-0.8-0.8
						c-0.1-0.1-0.3-0.1-0.4,0c-0.1,0.1-0.1,0.3,0,0.4c0.1,0.1,0.2,0.2,0.2,0.2c0.2,0.2,0.4,0.4,0.6,0.6c0.1,0.1,0.2,0.1,0.3,0.1
						C257.7,17.4,257.8,17.4,257.8,17.2L257.8,17.2L257.8,17.2z M254.6,16.7c-0.1-0.1-0.1-0.2-0.1-0.2c-0.2-0.3-0.5-0.5-0.8-0.8
						c-0.1-0.1-0.3-0.1-0.4,0s-0.1,0.3,0,0.4c0.1,0.1,0.3,0.3,0.4,0.4c0.1,0.1,0.2,0.2,0.4,0.4c0.1,0.1,0.2,0.1,0.3,0
						C254.5,17,254.6,16.9,254.6,16.7L254.6,16.7L254.6,16.7z M256.1,18.9c0.1,0,0.2-0.1,0.3-0.2c0-0.1,0-0.2-0.1-0.3
						c-0.3-0.3-0.5-0.5-0.8-0.8c-0.1-0.1-0.3-0.1-0.4,0s-0.1,0.3,0,0.4c0.3,0.3,0.5,0.5,0.8,0.8C256,18.8,256,18.8,256.1,18.9
						L256.1,18.9z M252.1,17c-0.1,0-0.2,0.1-0.3,0.2c-0.1,0.1,0,0.2,0.1,0.3c0.3,0.3,0.5,0.5,0.8,0.8c0.1,0.1,0.3,0.1,0.4,0
						s0.1-0.3,0-0.4c-0.3-0.3-0.5-0.5-0.8-0.8C252.2,17.1,252.1,17,252.1,17L252.1,17L252.1,17z M251.5,19.8c0.1,0,0.2-0.1,0.3-0.2
						c0.1-0.1,0.1-0.2,0-0.3c-0.3-0.3-0.6-0.6-0.9-0.9c-0.1-0.1-0.3-0.1-0.4,0c-0.1,0.1-0.1,0.3,0,0.4c0.3,0.3,0.5,0.5,0.8,0.8
						C251.3,19.8,251.4,19.8,251.5,19.8L251.5,19.8L251.5,19.8z M254,18.9c-0.2,0-0.2,0.1-0.3,0.2c-0.1,0.1,0,0.2,0.1,0.3
						c0.3,0.3,0.5,0.5,0.8,0.8c0.1,0.1,0.3,0.1,0.4,0s0.1-0.3,0-0.4c-0.3-0.3-0.5-0.5-0.8-0.8C254.1,18.9,254,18.9,254,18.9
						L254,18.9z M253.3,21.7c0.1,0,0.2-0.1,0.3-0.2s0-0.2-0.1-0.3c-0.3-0.3-0.6-0.5-0.8-0.8c-0.1-0.1-0.3-0.1-0.4,0s-0.1,0.3,0,0.4
						c0.3,0.3,0.5,0.5,0.8,0.8C253.2,21.6,253.3,21.6,253.3,21.7L253.3,21.7L253.3,21.7z M253.4,12.8c-0.1,0-0.2,0.1-0.3,0.2
						c0,0.1,0,0.2,0.1,0.3c0.1,0.1,0.3,0.3,0.4,0.4c0.1,0.1,0.3,0.1,0.4,0c0.1-0.1,0.1-0.3,0-0.4c-0.1-0.1-0.2-0.2-0.4-0.4
						C253.6,12.9,253.5,12.9,253.4,12.8C253.4,12.8,253.4,12.8,253.4,12.8z M252.7,14.9C252.7,14.9,252.7,14.9,252.7,14.9
						c0-0.1,0-0.1-0.1-0.2c-0.1-0.2-0.3-0.3-0.5-0.5c-0.1-0.1-0.3-0.1-0.4,0c-0.1,0.1-0.1,0.3,0,0.4c0.1,0.1,0.3,0.3,0.4,0.4
						c0.1,0.1,0.2,0.1,0.3,0C252.6,15.1,252.7,15,252.7,14.9L252.7,14.9L252.7,14.9z M259.2,18.6c0-0.1,0-0.1-0.1-0.2
						c-0.1-0.1-0.2-0.3-0.4-0.4c-0.1-0.1-0.3-0.1-0.4,0c-0.1,0.1-0.1,0.3,0,0.4c0.1,0.2,0.3,0.3,0.4,0.4c0.1,0.1,0.2,0.1,0.3,0
						S259.2,18.7,259.2,18.6L259.2,18.6L259.2,18.6z M257.2,19.4c-0.2,0-0.2,0-0.3,0.2c0,0.1,0,0.2,0,0.3c0.1,0.1,0.3,0.3,0.4,0.4
						c0.1,0.1,0.3,0.1,0.4,0s0.1-0.3,0-0.4s-0.2-0.2-0.4-0.4C257.3,19.4,257.2,19.4,257.2,19.4L257.2,19.4L257.2,19.4z M249.7,18
						c0.1-0.1,0.2-0.1,0.2-0.2c0.1-0.1,0.1-0.2,0-0.3c-0.1-0.1-0.3-0.3-0.4-0.4c-0.1-0.1-0.3-0.1-0.4,0c-0.1,0.1-0.1,0.3,0,0.4
						c0.1,0.1,0.2,0.3,0.4,0.4C249.5,17.9,249.6,17.9,249.7,18L249.7,18L249.7,18z M250.3,15.9c0,0.1,0.1,0.2,0.1,0.2
						c0.1,0.1,0.3,0.3,0.4,0.4c0.1,0.1,0.3,0.1,0.4,0c0.1-0.1,0.1-0.3,0-0.4c-0.1-0.1-0.3-0.3-0.4-0.4c-0.1-0.1-0.2-0.1-0.3,0
						C250.5,15.7,250.4,15.8,250.3,15.9L250.3,15.9z M255,22.8c0,0,0-0.1-0.1-0.1c-0.1-0.1-0.3-0.3-0.4-0.4c-0.1-0.1-0.3-0.1-0.4,0
						c-0.1,0.1-0.1,0.3,0,0.4c0.1,0.1,0.3,0.3,0.4,0.4c0.1,0.1,0.2,0.1,0.3,0C255,23,255,22.9,255,22.8L255,22.8L255,22.8z
						 M255.8,20.8c-0.2,0-0.2,0.1-0.3,0.2c-0.1,0.1,0,0.2,0.1,0.3c0.1,0.1,0.2,0.2,0.4,0.4c0.1,0.1,0.3,0.1,0.4,0
						c0.1-0.1,0.1-0.3,0-0.4c-0.1-0.1-0.2-0.3-0.4-0.4C255.9,20.8,255.8,20.8,255.8,20.8L255.8,20.8z"/>
					<path d="M248,18.1c0.2,0,0.4,0.1,0.5,0.2c0.3,0.3,0.6,0.6,0.9,0.9c1.5,1.5,3,3,4.6,4.6c0.2,0.2,0.2,0.3,0.2,0.6
						c-0.1,0.4-0.6,0.5-0.9,0.3c0,0,0,0-0.1,0c-1.8-1.8-3.6-3.6-5.5-5.5c-0.3-0.3-0.2-0.7,0.1-0.9C247.9,18.1,248,18.1,248,18.1
						L248,18.1L248,18.1z"/>
					<path d="M254.9,11.2c0.2,0,0.3,0.1,0.4,0.2c0.1,0.1,0.3,0.3,0.4,0.4c1.7,1.7,3.3,3.3,5,5c0.1,0.1,0.2,0.3,0.2,0.5
						c0,0.2-0.1,0.4-0.3,0.5s-0.4,0.1-0.6-0.1c0,0-0.1,0-0.1-0.1c-1.8-1.8-3.6-3.6-5.4-5.4c-0.3-0.3-0.2-0.8,0.2-0.9
						C254.8,11.2,254.8,11.2,254.9,11.2C254.9,11.2,254.9,11.2,254.9,11.2z"/>
					<path d="M255.7,15.7c0,0-0.1-0.1-0.2-0.1c-0.3-0.3-0.5-0.5-0.8-0.8c-0.1-0.1-0.1-0.3,0-0.4c0.1-0.1,0.3-0.1,0.4,0
						c0.3,0.3,0.5,0.5,0.8,0.8c0.1,0.1,0.1,0.2,0.1,0.3C256,15.6,255.9,15.6,255.7,15.7L255.7,15.7z"/>
					<path d="M257.9,17.2c0,0.2-0.1,0.2-0.2,0.3c-0.1,0-0.2,0-0.3-0.1l-0.6-0.6c-0.1-0.1-0.2-0.2-0.2-0.2c-0.1-0.1-0.1-0.3,0-0.4
						c0.1-0.1,0.3-0.1,0.4,0c0.3,0.3,0.5,0.5,0.8,0.8C257.9,17.1,257.9,17.2,257.9,17.2L257.9,17.2L257.9,17.2z"/>
					<path d="M254.7,16.8c0,0.1-0.1,0.2-0.2,0.3c-0.1,0-0.2,0-0.3,0c-0.1-0.1-0.2-0.2-0.4-0.4c-0.1-0.1-0.3-0.3-0.4-0.4
						c-0.1-0.1-0.1-0.3,0-0.4c0.1-0.1,0.3-0.1,0.4,0c0.2,0.3,0.5,0.5,0.8,0.8C254.6,16.6,254.6,16.7,254.7,16.8L254.7,16.8
						L254.7,16.8z"/>
					<path d="M256.2,18.9c-0.1,0-0.1-0.1-0.2-0.1c-0.3-0.3-0.5-0.5-0.8-0.8c-0.1-0.1-0.1-0.3,0-0.4c0.1-0.1,0.3-0.1,0.4,0
						c0.3,0.3,0.5,0.5,0.8,0.8c0.1,0.1,0.1,0.2,0.1,0.3C256.5,18.8,256.4,18.9,256.2,18.9L256.2,18.9z"/>
					<path d="M252.2,17c0.1,0,0.1,0.1,0.2,0.1c0.3,0.3,0.5,0.5,0.8,0.8c0.1,0.1,0.1,0.3,0,0.4c-0.1,0.1-0.3,0.1-0.4,0
						c-0.3-0.3-0.5-0.5-0.8-0.8c-0.1-0.1-0.1-0.2-0.1-0.3C252,17.1,252,17.1,252.2,17L252.2,17L252.2,17z"/>
					<path d="M251.6,19.9c-0.1,0-0.1-0.1-0.2-0.1c-0.3-0.3-0.5-0.5-0.8-0.8c-0.1-0.1-0.1-0.3,0-0.4c0.1-0.1,0.3-0.1,0.4,0
						c0.3,0.3,0.6,0.6,0.9,0.9c0.1,0.1,0.1,0.2,0,0.3S251.7,19.9,251.6,19.9L251.6,19.9L251.6,19.9z"/>
					<path d="M254.1,18.9c0,0,0.1,0,0.2,0.1c0.3,0.3,0.5,0.5,0.8,0.8c0.1,0.1,0.1,0.3,0,0.4c-0.1,0.1-0.3,0.1-0.4,0
						c-0.3-0.3-0.5-0.5-0.8-0.8c-0.1-0.1-0.1-0.2-0.1-0.3C253.8,19,253.9,18.9,254.1,18.9L254.1,18.9z"/>
					<path d="M253.4,21.7c-0.1,0-0.1-0.1-0.2-0.1c-0.3-0.3-0.5-0.5-0.8-0.8c-0.1-0.1-0.1-0.3,0-0.4s0.3-0.1,0.4,0
						c0.3,0.3,0.6,0.5,0.8,0.8c0.1,0.1,0.1,0.2,0.1,0.3S253.6,21.7,253.4,21.7L253.4,21.7L253.4,21.7z"/>
					<path d="M253.6,12.9c0.1,0,0.1,0.1,0.2,0.1c0.1,0.1,0.2,0.2,0.4,0.4c0.1,0.1,0.1,0.3,0,0.4c-0.1,0.1-0.3,0.1-0.4,0
						c-0.1-0.1-0.3-0.3-0.4-0.4c-0.1-0.1-0.1-0.2-0.1-0.3C253.3,12.9,253.4,12.9,253.6,12.9C253.6,12.8,253.6,12.8,253.6,12.9z"/>
					<path d="M252.8,14.9c-0.1,0.1-0.1,0.2-0.2,0.2c-0.1,0.1-0.2,0.1-0.3,0c-0.1-0.1-0.3-0.3-0.4-0.4c-0.1-0.1-0.1-0.3,0-0.4
						c0.1-0.1,0.2-0.1,0.4,0c0.2,0.1,0.3,0.3,0.5,0.5C252.8,14.8,252.8,14.9,252.8,14.9C252.8,14.9,252.8,14.9,252.8,14.9
						L252.8,14.9L252.8,14.9z"/>
					<path d="M259.3,18.6c0,0.1-0.1,0.2-0.2,0.2c-0.1,0-0.2,0-0.3,0c-0.1-0.1-0.3-0.3-0.4-0.4c-0.1-0.1-0.1-0.3,0-0.4
						c0.1-0.1,0.3-0.1,0.4,0c0.1,0.1,0.3,0.2,0.4,0.4C259.3,18.5,259.3,18.6,259.3,18.6L259.3,18.6L259.3,18.6z"/>
					<path d="M257.3,19.4c0,0,0.1,0,0.2,0.1c0.1,0.1,0.2,0.2,0.4,0.4c0.1,0.1,0.1,0.3,0,0.4s-0.3,0.1-0.4,0
						c-0.1-0.1-0.3-0.3-0.4-0.4c-0.1-0.1-0.1-0.2,0-0.3S257.2,19.4,257.3,19.4L257.3,19.4L257.3,19.4z"/>
					<path d="M249.8,18c-0.1,0-0.2-0.1-0.2-0.1c-0.1-0.1-0.3-0.2-0.4-0.4c-0.1-0.1-0.1-0.3,0-0.4c0.1-0.1,0.3-0.1,0.4,0
						c0.1,0.1,0.3,0.3,0.4,0.4c0.1,0.1,0.1,0.2,0,0.3C249.9,17.9,249.9,18,249.8,18L249.8,18L249.8,18z"/>
					<path d="M250.4,15.9c0.1-0.1,0.1-0.2,0.2-0.2c0.1-0.1,0.2-0.1,0.3,0c0.1,0.1,0.3,0.3,0.4,0.4c0.1,0.1,0.1,0.3,0,0.4
						c-0.1,0.1-0.3,0.1-0.4,0c-0.1-0.1-0.3-0.3-0.4-0.4C250.5,16.1,250.5,16,250.4,15.9L250.4,15.9z"/>
					<path d="M255.1,22.8c0,0.1-0.1,0.2-0.2,0.3c-0.1,0-0.2,0-0.3,0c-0.1-0.1-0.3-0.3-0.4-0.4c-0.1-0.1-0.1-0.3,0-0.4s0.3-0.1,0.4,0
						c0.1,0.1,0.3,0.3,0.4,0.4C255.1,22.7,255.1,22.8,255.1,22.8L255.1,22.8L255.1,22.8z"/>
					<path d="M255.9,20.8c0,0,0.1,0,0.2,0.1c0.1,0.1,0.3,0.2,0.4,0.4c0.1,0.1,0.1,0.3,0,0.4c-0.1,0.1-0.3,0.1-0.4,0
						c-0.1-0.1-0.2-0.2-0.4-0.4c-0.1-0.1-0.1-0.2-0.1-0.3C255.7,20.8,255.8,20.8,255.9,20.8L255.9,20.8L255.9,20.8z"/>
				</g>
			</g>
		</g>
	</g>
</g>
</svg>
