<?xml version="1.0" encoding="UTF-8"?><svg id="_レイヤー_2" xmlns="http://www.w3.org/2000/svg" viewBox="0 0 55.262 47.858"><defs><style>.cls-1{fill:#ffe700;}.cls-2{fill:#e60012;}</style></defs><g id="_"><g><path d="m27.631,0c9.222,15.974,18.415,31.896,27.631,47.858H0C9.206,31.913,18.401,15.986,27.631,0ZM5.736,44.554h43.791c-7.308-12.657-14.593-25.274-21.896-37.922-7.308,12.657-14.59,25.269-21.895,37.922Z"/><path class="cls-1" d="m5.736,44.554c7.306-12.653,14.588-25.266,21.895-37.922,7.303,12.649,14.587,25.265,21.896,37.922H5.736Zm20.488-21.039c-.467-.738-1.067-1.392-1.809-1.908-.09-.062-.217-.07-.327-.104,0,.124-.032.258.005.369.255.754.319,1.514.153,2.299-.259,1.22-.878,2.257-1.637,3.215-.651.821-1.377,1.585-2.011,2.419-1.233,1.622-1.908,3.422-1.687,5.509.262,2.473,2.26,4.804,4.715,5.421.117.029.251-.007.377-.012-.022-.116-.024-.241-.07-.346-1.205-2.746-.897-5.303,1.002-7.629.715-.877,1.348-1.789,1.745-2.852.137-.367.244-.746.388-1.19.191.215.394.374.508.583.805,1.482,1.093,3.038.563,4.739.902-.149,1.523-.656,2.09-1.284.865,1.71,1.115,3.457.831,5.284-.132.846-.411,1.646-.785,2.415-.041.084-.072.228-.029.281.045.056.188.062.281.045.193-.035.381-.095.569-.154,3.438-1.062,6.344-5.174,4.945-9.687-.575-1.854-1.652-3.404-2.879-4.87-.906-1.083-1.838-2.148-2.514-3.401-.822-1.523-1.098-3.095-.426-4.754.035-.086-.008-.205-.015-.308-.103.027-.225.027-.308.084-1.327.897-2.306,2.091-2.914,3.567-.302.733-.507,1.505-.76,2.271Z"/><path class="cls-2" d="m26.223,23.515c.253-.766.458-1.539.76-2.271.608-1.476,1.587-2.669,2.914-3.567.083-.056.204-.057.308-.084.007.103.05.222.015.308-.672,1.659-.396,3.231.426,4.754.676,1.253,1.608,2.318,2.514,3.401,1.226,1.465,2.304,3.016,2.879,4.87,1.399,4.513-1.507,8.625-4.945,9.687-.188.058-.377.118-.569.154-.092.017-.236.011-.281-.045-.043-.053-.011-.197.029-.281.374-.769.654-1.569.785-2.415.284-1.827.034-3.573-.831-5.284-.566.628-1.188,1.136-2.09,1.284.531-1.701.243-3.257-.563-4.739-.113-.209-.317-.368-.508-.583-.143.443-.251.822-.388,1.19-.397,1.063-1.03,1.975-1.745,2.852-1.898,2.326-2.207,4.883-1.002,7.629.046.105.048.23.07.346-.126.006-.26.042-.377.012-2.455-.618-4.454-2.948-4.715-5.421-.221-2.086.454-3.887,1.687-5.509.634-.834,1.36-1.597,2.011-2.419.759-.958,1.378-1.994,1.637-3.215.166-.785.101-1.544-.153-2.299-.037-.111-.005-.245-.005-.369.11.033.237.041.327.104.742.516,1.342,1.171,1.809,1.908Z"/></g></g></svg>