<?xml version="1.0" encoding="UTF-8"?><svg id="_レイヤー_2" xmlns="http://www.w3.org/2000/svg" viewBox="0 0 33.504 33.504"><defs><style>.cls-1{fill:#eaac52;}.cls-2{fill:#fff;stroke:#070606;stroke-miterlimit:10;}</style></defs><g id="_"><g><circle class="cls-2" cx="16.752" cy="16.752" r="16.252"/><g><path d="m11.59,27.184c-2.697,0-5.056-1.84-5.653-4.479-.468-2.069.031-3.919,1.531-5.433,3.371-3.402,6.767-6.779,10.155-10.163.868-.867,1.911-1.404,3.123-1.605,2.858-.474,5.638,1.174,6.495,3.917.698,2.236.237,4.259-1.416,5.932-3.338,3.379-6.71,6.724-10.067,10.085-.815.816-1.777,1.362-2.905,1.611-.416.092-.836.139-1.262.135Zm-4.333-5.74c.013.135.03.35.054.564.011.101.032.202.054.301.474,2.109,2.447,3.573,4.619,3.369,1.038-.097,1.93-.508,2.666-1.243,3.381-3.376,6.763-6.75,10.132-10.136,1.069-1.075,1.463-2.391,1.185-3.881-.418-2.236-2.512-3.752-4.76-3.478-1,.122-1.855.541-2.565,1.251-3.371,3.368-6.741,6.737-10.109,10.109-.842.844-1.254,1.873-1.277,3.144Z"/><path class="cls-1" d="m7.162,21.444c.023-1.271.434-2.301,1.277-3.144,3.367-3.372,6.738-6.741,10.109-10.109.71-.71,1.565-1.129,2.565-1.251,2.248-.273,4.342,1.243,4.76,3.478.278,1.49-.116,2.806-1.185,3.881-3.369,3.387-6.752,6.761-10.132,10.136-.736.735-1.629,1.146-2.666,1.243-2.172.204-4.145-1.26-4.619-3.369-.022-.099-.043-.2-.054-.301-.024-.215-.041-.43-.054-.564Zm3.777-5.048c-.046.017-.142.034-.22.081-.283.169-.317.544-.073.788,1.652,1.653,3.304,3.305,4.956,4.957.017.017.034.033.052.048.286.231.705.09.795-.266.053-.21-.026-.373-.172-.519-1.378-1.376-2.754-2.753-4.131-4.13-.259-.259-.518-.516-.776-.776-.107-.108-.23-.175-.431-.182Zm6.211-6.173c-.046.008-.094.011-.138.025-.375.116-.472.561-.183.85,1.644,1.645,3.289,3.289,4.933,4.933.025.025.05.051.078.072.16.117.334.138.511.054.181-.086.278-.232.285-.439.006-.183-.086-.311-.207-.431-1.512-1.51-3.022-3.021-4.533-4.532-.122-.122-.244-.245-.368-.367-.105-.103-.226-.169-.38-.166Zm.771,3.996c.15-.001.228-.053.273-.15.051-.11.022-.207-.061-.29-.238-.239-.476-.478-.716-.716-.121-.12-.268-.126-.375-.021-.106.104-.103.256.015.376.234.238.469.474.709.706.05.049.122.075.154.094Zm1.976,1.388c-.016-.029-.036-.096-.079-.14-.243-.251-.491-.497-.74-.742-.11-.108-.254-.105-.357-.003-.102.101-.105.244,0,.358.071.078.149.151.224.226.169.169.338.34.508.507.082.081.181.11.291.062.099-.043.149-.122.154-.268Zm-2.923-.389c-.041-.068-.071-.145-.125-.201-.223-.232-.453-.458-.682-.685-.129-.128-.275-.139-.384-.031-.107.106-.098.261.024.386.132.135.266.267.4.4.108.108.215.219.327.324.079.074.175.086.273.043.095-.042.145-.117.167-.236Zm1.395,1.955c.122-.018.203-.07.245-.168.047-.108.019-.207-.064-.29-.239-.239-.477-.479-.717-.717-.113-.112-.267-.118-.369-.019-.107.103-.105.258.011.376.234.238.47.475.71.708.05.049.122.075.184.111Zm-3.658-1.698c-.121.017-.198.069-.243.167-.048.106-.023.201.056.281.241.243.483.485.726.726.119.118.257.124.366.02.11-.105.109-.256-.009-.376-.238-.241-.476-.481-.719-.717-.047-.046-.117-.068-.177-.102Zm-.543,2.54c.118-.012.193-.065.24-.155.05-.096.041-.196-.035-.274-.253-.259-.507-.516-.768-.768-.108-.104-.252-.093-.348.008-.097.102-.096.253.009.359.243.246.487.492.736.733.044.043.11.065.166.096Zm2.247-.847c-.149.004-.228.056-.27.155-.044.105-.02.2.06.281.242.242.483.485.726.726.117.116.262.12.366.016.102-.102.103-.256-.007-.368-.24-.244-.481-.487-.727-.725-.047-.046-.118-.067-.148-.084Zm-.57,2.524c.123-.012.201-.067.244-.164.046-.103.026-.2-.055-.281-.247-.248-.494-.496-.743-.742-.108-.106-.255-.103-.357.001-.099.101-.097.25.009.358.243.246.487.492.735.733.044.043.11.064.166.095Zm.099-8.019c-.116.017-.192.067-.232.162-.041.097-.033.195.042.274.116.123.234.244.358.358.112.103.263.095.359-.008.098-.104.094-.247-.014-.359-.109-.113-.218-.227-.335-.331-.049-.044-.118-.065-.178-.097Zm-.642,1.89c-.007-.008-.013-.016-.02-.024-.016-.044-.02-.098-.049-.129-.134-.143-.269-.287-.415-.416-.094-.082-.236-.059-.321.028-.09.092-.104.232-.015.331.123.137.255.267.391.391.08.073.189.078.273.018.066-.047.105-.132.156-.199Zm5.888,3.353c-.029-.057-.048-.123-.09-.169-.111-.122-.229-.237-.348-.351-.102-.097-.24-.098-.341-.009-.101.088-.125.231-.032.338.123.142.259.274.398.4.075.069.174.066.265.021.088-.044.133-.118.148-.229Zm-1.838.67c-.141.006-.221.048-.262.145-.042.098-.035.195.039.274.116.123.235.243.358.358.112.104.261.099.359-.003.097-.101.096-.249-.01-.36-.108-.114-.218-.227-.335-.332-.049-.044-.119-.066-.149-.082Zm-6.826-1.237c.071-.058.152-.101.198-.168.06-.087.047-.191-.028-.271-.121-.129-.244-.256-.374-.375-.104-.096-.258-.085-.35.012-.089.094-.089.252.007.352.114.119.229.238.351.348.046.042.113.06.195.102Zm.615-1.912c.036.08.049.142.085.182.119.13.244.256.373.376.1.093.247.086.341-.006.093-.09.107-.243.017-.342-.122-.133-.251-.26-.384-.382-.08-.073-.187-.083-.273-.023-.066.047-.108.128-.16.194Zm4.253,6.239c-.012-.027-.023-.086-.058-.123-.123-.132-.25-.261-.382-.384-.098-.091-.247-.081-.34.012-.092.092-.101.244-.01.341.121.129.246.253.375.375.08.075.179.076.275.033.095-.043.136-.125.141-.254Zm.692-1.831c-.14.008-.218.056-.26.15-.046.103-.027.201.052.282.112.115.226.23.342.341.109.105.257.107.359.01.097-.092.101-.255.002-.36-.113-.12-.229-.238-.351-.348-.046-.042-.114-.06-.143-.075Z"/><path d="m11.034,16.396c.201.007.324.074.431.182.257.26.517.518.776.776,1.377,1.377,2.753,2.754,4.131,4.13.146.146.225.309.172.519-.09.357-.509.497-.795.266-.018-.015-.035-.031-.052-.048-1.652-1.652-3.305-3.304-4.956-4.957-.243-.244-.21-.619.073-.788.078-.047.173-.065.22-.081Z"/><path d="m17.245,10.223c.154-.003.275.062.38.166.123.122.245.245.368.367,1.511,1.511,3.021,3.022,4.533,4.532.121.121.213.248.207.431-.007.207-.104.353-.285.439-.177.084-.352.063-.511-.054-.028-.021-.053-.047-.078-.072-1.645-1.644-3.289-3.289-4.933-4.933-.289-.289-.193-.735.183-.85.044-.014.092-.017.138-.025Z"/><path d="m18.016,14.219c-.032-.019-.104-.046-.154-.094-.24-.232-.475-.469-.709-.706-.118-.12-.121-.272-.015-.376.107-.105.254-.098.375.021.24.238.478.477.716.716.082.083.112.18.061.29-.045.097-.123.149-.273.15Z"/><path d="m19.992,15.608c-.005.146-.055.225-.154.268-.11.048-.208.019-.291-.062-.171-.168-.339-.338-.508-.507-.075-.075-.152-.147-.224-.226-.104-.114-.101-.257,0-.358.103-.102.247-.104.357.003.249.245.497.491.74.742.043.044.063.111.079.14Z"/><path d="m17.069,15.219c-.022.12-.072.195-.167.236-.098.043-.195.031-.273-.043-.112-.105-.218-.215-.327-.324-.134-.133-.268-.266-.4-.4-.122-.125-.131-.28-.024-.386.109-.108.255-.098.384.031.229.227.458.453.682.685.053.055.084.133.125.201Z"/><path d="m18.464,17.174c-.062-.036-.134-.063-.184-.111-.24-.232-.476-.47-.71-.708-.116-.118-.118-.273-.011-.376.102-.098.256-.092.369.019.24.238.479.478.717.717.083.083.11.182.064.29-.042.098-.123.15-.245.168Z"/><path d="m14.806,15.477c.059.033.129.056.177.102.243.235.481.476.719.717.118.119.119.271.009.376-.109.104-.247.098-.366-.02-.243-.241-.485-.483-.726-.726-.079-.08-.104-.175-.056-.281.045-.098.122-.15.243-.167Z"/><path d="m14.263,18.017c-.056-.031-.122-.053-.166-.096-.248-.241-.492-.487-.736-.733-.105-.106-.106-.257-.009-.359.097-.101.24-.112.348-.008.26.251.515.509.768.768.076.078.085.178.035.274-.047.09-.122.142-.24.155Z"/><path d="m16.51,17.17c.03.017.101.038.148.084.246.238.487.481.727.725.11.112.11.266.007.368-.105.104-.25.1-.366-.016-.243-.241-.485-.484-.726-.726-.08-.08-.104-.176-.06-.281.042-.1.121-.151.27-.155Z"/><path d="m15.94,19.694c-.056-.031-.121-.052-.166-.095-.248-.241-.492-.487-.735-.733-.107-.108-.108-.257-.009-.358.102-.104.249-.108.357-.001.249.246.496.494.743.742.081.081.101.178.055.281-.044.097-.121.152-.244.164Z"/><path d="m16.039,11.675c.06.031.129.053.178.097.117.105.226.219.335.331.108.112.112.254.014.359-.096.103-.247.111-.359.008-.124-.114-.242-.236-.358-.358-.074-.079-.082-.177-.042-.274.04-.096.116-.145.232-.162Z"/><path d="m15.397,13.565c-.051.068-.09.152-.156.199-.084.061-.193.056-.273-.018-.136-.124-.268-.254-.391-.391-.089-.099-.075-.24.015-.331.085-.087.228-.111.321-.028.147.129.281.273.415.416.029.031.033.085.049.129.007.008.013.016.02.024Z"/><path d="m21.285,16.918c-.015.111-.06.185-.148.229-.091.045-.19.048-.265-.021-.139-.126-.275-.258-.398-.4-.092-.106-.069-.249.032-.338.101-.088.239-.088.341.009.12.114.238.229.348.351.042.046.06.112.09.169Z"/><path d="m19.447,17.588c.031.016.1.038.149.082.117.105.226.218.335.332.106.111.107.259.01.36-.099.102-.248.108-.359.003-.123-.115-.242-.235-.358-.358-.074-.079-.081-.175-.039-.274.042-.097.121-.139.262-.145Z"/><path d="m12.621,16.352c-.082-.042-.149-.061-.195-.102-.122-.111-.237-.229-.351-.348-.096-.1-.096-.258-.007-.352.092-.097.246-.108.35-.012.13.12.253.246.374.375.075.08.088.184.028.271-.046.067-.127.11-.198.168Z"/><path d="m13.236,14.439c.052-.065.094-.147.16-.194.086-.06.193-.05.273.023.133.122.262.249.384.382.09.099.075.251-.017.342-.094.092-.241.099-.341.006-.129-.121-.254-.246-.373-.376-.037-.04-.049-.102-.085-.182Z"/><path d="m17.489,20.678c-.005.13-.045.212-.141.254-.096.043-.195.042-.275-.033-.128-.121-.254-.246-.375-.375-.091-.097-.082-.249.01-.341.093-.093.242-.103.34-.012.132.123.259.252.382.384.034.037.046.096.058.123Z"/><path d="m18.181,18.847c.03.015.097.033.143.075.122.11.238.228.351.348.1.106.095.268-.002.36-.102.097-.251.094-.359-.01-.116-.112-.229-.226-.342-.341-.079-.081-.098-.178-.052-.282.042-.094.12-.142.26-.15Z"/></g></g></g></svg>