<?xml version="1.0" encoding="UTF-8"?><svg id="_レイヤー_2" xmlns="http://www.w3.org/2000/svg" viewBox="0 0 33.936 33.936"><defs><style>.cls-1{fill:#063491;}.cls-2{fill:#fff;stroke:#070606;stroke-miterlimit:10;}</style></defs><g id="_"><g><circle class="cls-2" cx="16.968" cy="16.968" r="16.468"/><g><path class="cls-1" d="m13.822,16.351c-.877,0-1.755-.002-2.632.001-.197,0-.394.013-.586.065-.27.074-.402.22-.437.493-.019.145-.025.291-.027.437-.007.411.029.822-.019,1.231-.097.824-.688,1.509-1.488,1.73-1.184.328-2.404-.45-2.583-1.666-.069-.465-.034-.938-.016-1.408.029-.774.17-1.525.486-2.235.603-1.355,1.649-2.184,3.069-2.56.505-.134,1.02-.193,1.543-.199,1.885-.023,3.769-.004,5.654-.008.091,0,.138-.028.184-.106.617-1.048,1.501-1.769,2.657-2.152.092-.03.122-.069.116-.164-.009-.154-.007-.308,0-.462.004-.084-.023-.106-.106-.106-.565.004-1.131-.01-1.695.005-.83.021-1.568-.576-1.693-1.413-.142-.956.513-1.744,1.349-1.894.114-.02.227-.023.342-.023.589,0,1.178-.001,1.767.002.075,0,.113-.015.145-.093.215-.521.704-.845,1.256-.841.548.004,1.032.331,1.241.847.03.075.068.087.138.087.613-.002,1.225-.002,1.838-.001.944,0,1.693.816,1.641,1.759-.04.721-.579,1.417-1.408,1.553-.081.013-.165.015-.248.015-.585.001-1.17.002-1.755-.001-.082,0-.109.019-.105.104.007.166.005.332,0,.498-.001.064.013.093.082.115,1.185.388,2.093,1.121,2.716,2.202.038.066.082.07.143.07.802,0,1.604.002,2.407-.003.106,0,.13.028.13.131-.004,1.292-.003,2.585,0,3.877,0,.091-.02.118-.115.118-.735-.004-1.47-.001-2.205-.004-.079,0-.121.019-.158.096-.679,1.444-1.791,2.379-3.351,2.711-1.611.343-3.044-.075-4.263-1.187-.472-.43-.83-.947-1.089-1.531-.03-.069-.063-.09-.137-.089-.929.003-1.857.002-2.786.002Z"/><path class="cls-1" d="m8.205,21.12c.428.935.828,1.857,1.2,2.79.311.78.602,1.567.824,2.379.339,1.239-.48,2.392-1.593,2.618-1.194.242-2.29-.546-2.504-1.671-.084-.44.013-.853.135-1.265.324-1.098.763-2.153,1.209-3.205.213-.503.438-1,.658-1.5.019-.042.04-.083.071-.146Z"/></g></g></g></svg>